<?xml version="1.0" encoding="utf-8" standalone="no"?>
<!DOCTYPE svg PUBLIC "-//W3C//DTD SVG 1.1//EN"
  "http://www.w3.org/Graphics/SVG/1.1/DTD/svg11.dtd">
<svg xmlns:xlink="http://www.w3.org/1999/xlink" width="432pt" height="288pt" viewBox="0 0 432 288" xmlns="http://www.w3.org/2000/svg" version="1.1">
 <metadata>
  <rdf:RDF xmlns:dc="http://purl.org/dc/elements/1.1/" xmlns:cc="http://creativecommons.org/ns#" xmlns:rdf="http://www.w3.org/1999/02/22-rdf-syntax-ns#">
   <cc:Work>
    <dc:type rdf:resource="http://purl.org/dc/dcmitype/StillImage"/>
    <dc:date>2022-11-09T10:59:43.853057</dc:date>
    <dc:format>image/svg+xml</dc:format>
    <dc:creator>
     <cc:Agent>
      <dc:title>Matplotlib v3.5.2, https://matplotlib.org/</dc:title>
     </cc:Agent>
    </dc:creator>
   </cc:Work>
  </rdf:RDF>
 </metadata>
 <defs>
  <style type="text/css">*{stroke-linejoin: round; stroke-linecap: butt}</style>
 </defs>
 <g id="figure_1">
  <g id="patch_1">
   <path d="M 0 288 
L 432 288 
L 432 0 
L 0 0 
L 0 288 
z
" style="fill: none"/>
  </g>
  <g id="axes_1">
   <g id="patch_2">
    <path d="M 47.675 246.2 
L 352.72832 246.2 
L 352.72832 10.8 
L 47.675 10.8 
z
" style="fill: #ffffff"/>
   </g>
   <g id="matplotlib.axis_1">
    <g id="xtick_1">
     <g id="line2d_1">
      <defs>
       <path id="mcf44d0fcd6" d="M 0 0 
L 0 3.5 
" style="stroke: #000000; stroke-width: 0.8"/>
      </defs>
      <g>
       <use xlink:href="#mcf44d0fcd6" x="61.54106" y="246.2" style="stroke: #000000; stroke-width: 0.8"/>
      </g>
     </g>
     <g id="text_1">
      <!-- 0.00 -->
      <g transform="translate(50.408248 260.798437)scale(0.1 -0.1)">
       <defs>
        <path id="DejaVuSans-30" d="M 2034 4250 
Q 1547 4250 1301 3770 
Q 1056 3291 1056 2328 
Q 1056 1369 1301 889 
Q 1547 409 2034 409 
Q 2525 409 2770 889 
Q 3016 1369 3016 2328 
Q 3016 3291 2770 3770 
Q 2525 4250 2034 4250 
z
M 2034 4750 
Q 2819 4750 3233 4129 
Q 3647 3509 3647 2328 
Q 3647 1150 3233 529 
Q 2819 -91 2034 -91 
Q 1250 -91 836 529 
Q 422 1150 422 2328 
Q 422 3509 836 4129 
Q 1250 4750 2034 4750 
z
" transform="scale(0.015625)"/>
        <path id="DejaVuSans-2e" d="M 684 794 
L 1344 794 
L 1344 0 
L 684 0 
L 684 794 
z
" transform="scale(0.015625)"/>
       </defs>
       <use xlink:href="#DejaVuSans-30"/>
       <use xlink:href="#DejaVuSans-2e" x="63.623047"/>
       <use xlink:href="#DejaVuSans-30" x="95.410156"/>
       <use xlink:href="#DejaVuSans-30" x="159.033203"/>
      </g>
     </g>
    </g>
    <g id="xtick_2">
     <g id="line2d_2">
      <g>
       <use xlink:href="#mcf44d0fcd6" x="119.199489" y="246.2" style="stroke: #000000; stroke-width: 0.8"/>
      </g>
     </g>
     <g id="text_2">
      <!-- 0.02 -->
      <g transform="translate(108.066677 260.798437)scale(0.1 -0.1)">
       <defs>
        <path id="DejaVuSans-32" d="M 1228 531 
L 3431 531 
L 3431 0 
L 469 0 
L 469 531 
Q 828 903 1448 1529 
Q 2069 2156 2228 2338 
Q 2531 2678 2651 2914 
Q 2772 3150 2772 3378 
Q 2772 3750 2511 3984 
Q 2250 4219 1831 4219 
Q 1534 4219 1204 4116 
Q 875 4013 500 3803 
L 500 4441 
Q 881 4594 1212 4672 
Q 1544 4750 1819 4750 
Q 2544 4750 2975 4387 
Q 3406 4025 3406 3419 
Q 3406 3131 3298 2873 
Q 3191 2616 2906 2266 
Q 2828 2175 2409 1742 
Q 1991 1309 1228 531 
z
" transform="scale(0.015625)"/>
       </defs>
       <use xlink:href="#DejaVuSans-30"/>
       <use xlink:href="#DejaVuSans-2e" x="63.623047"/>
       <use xlink:href="#DejaVuSans-30" x="95.410156"/>
       <use xlink:href="#DejaVuSans-32" x="159.033203"/>
      </g>
     </g>
    </g>
    <g id="xtick_3">
     <g id="line2d_3">
      <g>
       <use xlink:href="#mcf44d0fcd6" x="176.857919" y="246.2" style="stroke: #000000; stroke-width: 0.8"/>
      </g>
     </g>
     <g id="text_3">
      <!-- 0.04 -->
      <g transform="translate(165.725106 260.798437)scale(0.1 -0.1)">
       <defs>
        <path id="DejaVuSans-34" d="M 2419 4116 
L 825 1625 
L 2419 1625 
L 2419 4116 
z
M 2253 4666 
L 3047 4666 
L 3047 1625 
L 3713 1625 
L 3713 1100 
L 3047 1100 
L 3047 0 
L 2419 0 
L 2419 1100 
L 313 1100 
L 313 1709 
L 2253 4666 
z
" transform="scale(0.015625)"/>
       </defs>
       <use xlink:href="#DejaVuSans-30"/>
       <use xlink:href="#DejaVuSans-2e" x="63.623047"/>
       <use xlink:href="#DejaVuSans-30" x="95.410156"/>
       <use xlink:href="#DejaVuSans-34" x="159.033203"/>
      </g>
     </g>
    </g>
    <g id="xtick_4">
     <g id="line2d_4">
      <g>
       <use xlink:href="#mcf44d0fcd6" x="234.516348" y="246.2" style="stroke: #000000; stroke-width: 0.8"/>
      </g>
     </g>
     <g id="text_4">
      <!-- 0.06 -->
      <g transform="translate(223.383536 260.798437)scale(0.1 -0.1)">
       <defs>
        <path id="DejaVuSans-36" d="M 2113 2584 
Q 1688 2584 1439 2293 
Q 1191 2003 1191 1497 
Q 1191 994 1439 701 
Q 1688 409 2113 409 
Q 2538 409 2786 701 
Q 3034 994 3034 1497 
Q 3034 2003 2786 2293 
Q 2538 2584 2113 2584 
z
M 3366 4563 
L 3366 3988 
Q 3128 4100 2886 4159 
Q 2644 4219 2406 4219 
Q 1781 4219 1451 3797 
Q 1122 3375 1075 2522 
Q 1259 2794 1537 2939 
Q 1816 3084 2150 3084 
Q 2853 3084 3261 2657 
Q 3669 2231 3669 1497 
Q 3669 778 3244 343 
Q 2819 -91 2113 -91 
Q 1303 -91 875 529 
Q 447 1150 447 2328 
Q 447 3434 972 4092 
Q 1497 4750 2381 4750 
Q 2619 4750 2861 4703 
Q 3103 4656 3366 4563 
z
" transform="scale(0.015625)"/>
       </defs>
       <use xlink:href="#DejaVuSans-30"/>
       <use xlink:href="#DejaVuSans-2e" x="63.623047"/>
       <use xlink:href="#DejaVuSans-30" x="95.410156"/>
       <use xlink:href="#DejaVuSans-36" x="159.033203"/>
      </g>
     </g>
    </g>
    <g id="xtick_5">
     <g id="line2d_5">
      <g>
       <use xlink:href="#mcf44d0fcd6" x="292.174778" y="246.2" style="stroke: #000000; stroke-width: 0.8"/>
      </g>
     </g>
     <g id="text_5">
      <!-- 0.08 -->
      <g transform="translate(281.041965 260.798437)scale(0.1 -0.1)">
       <defs>
        <path id="DejaVuSans-38" d="M 2034 2216 
Q 1584 2216 1326 1975 
Q 1069 1734 1069 1313 
Q 1069 891 1326 650 
Q 1584 409 2034 409 
Q 2484 409 2743 651 
Q 3003 894 3003 1313 
Q 3003 1734 2745 1975 
Q 2488 2216 2034 2216 
z
M 1403 2484 
Q 997 2584 770 2862 
Q 544 3141 544 3541 
Q 544 4100 942 4425 
Q 1341 4750 2034 4750 
Q 2731 4750 3128 4425 
Q 3525 4100 3525 3541 
Q 3525 3141 3298 2862 
Q 3072 2584 2669 2484 
Q 3125 2378 3379 2068 
Q 3634 1759 3634 1313 
Q 3634 634 3220 271 
Q 2806 -91 2034 -91 
Q 1263 -91 848 271 
Q 434 634 434 1313 
Q 434 1759 690 2068 
Q 947 2378 1403 2484 
z
M 1172 3481 
Q 1172 3119 1398 2916 
Q 1625 2713 2034 2713 
Q 2441 2713 2670 2916 
Q 2900 3119 2900 3481 
Q 2900 3844 2670 4047 
Q 2441 4250 2034 4250 
Q 1625 4250 1398 4047 
Q 1172 3844 1172 3481 
z
" transform="scale(0.015625)"/>
       </defs>
       <use xlink:href="#DejaVuSans-30"/>
       <use xlink:href="#DejaVuSans-2e" x="63.623047"/>
       <use xlink:href="#DejaVuSans-30" x="95.410156"/>
       <use xlink:href="#DejaVuSans-38" x="159.033203"/>
      </g>
     </g>
    </g>
    <g id="xtick_6">
     <g id="line2d_6">
      <g>
       <use xlink:href="#mcf44d0fcd6" x="349.833207" y="246.2" style="stroke: #000000; stroke-width: 0.8"/>
      </g>
     </g>
     <g id="text_6">
      <!-- 0.10 -->
      <g transform="translate(338.700395 260.798437)scale(0.1 -0.1)">
       <defs>
        <path id="DejaVuSans-31" d="M 794 531 
L 1825 531 
L 1825 4091 
L 703 3866 
L 703 4441 
L 1819 4666 
L 2450 4666 
L 2450 531 
L 3481 531 
L 3481 0 
L 794 0 
L 794 531 
z
" transform="scale(0.015625)"/>
       </defs>
       <use xlink:href="#DejaVuSans-30"/>
       <use xlink:href="#DejaVuSans-2e" x="63.623047"/>
       <use xlink:href="#DejaVuSans-31" x="95.410156"/>
       <use xlink:href="#DejaVuSans-30" x="159.033203"/>
      </g>
     </g>
    </g>
    <g id="text_7">
     <!-- Unitary duration (t) -->
     <g transform="translate(151.865723 274.476562)scale(0.1 -0.1)">
      <defs>
       <path id="DejaVuSans-55" d="M 556 4666 
L 1191 4666 
L 1191 1831 
Q 1191 1081 1462 751 
Q 1734 422 2344 422 
Q 2950 422 3222 751 
Q 3494 1081 3494 1831 
L 3494 4666 
L 4128 4666 
L 4128 1753 
Q 4128 841 3676 375 
Q 3225 -91 2344 -91 
Q 1459 -91 1007 375 
Q 556 841 556 1753 
L 556 4666 
z
" transform="scale(0.015625)"/>
       <path id="DejaVuSans-6e" d="M 3513 2113 
L 3513 0 
L 2938 0 
L 2938 2094 
Q 2938 2591 2744 2837 
Q 2550 3084 2163 3084 
Q 1697 3084 1428 2787 
Q 1159 2491 1159 1978 
L 1159 0 
L 581 0 
L 581 3500 
L 1159 3500 
L 1159 2956 
Q 1366 3272 1645 3428 
Q 1925 3584 2291 3584 
Q 2894 3584 3203 3211 
Q 3513 2838 3513 2113 
z
" transform="scale(0.015625)"/>
       <path id="DejaVuSans-69" d="M 603 3500 
L 1178 3500 
L 1178 0 
L 603 0 
L 603 3500 
z
M 603 4863 
L 1178 4863 
L 1178 4134 
L 603 4134 
L 603 4863 
z
" transform="scale(0.015625)"/>
       <path id="DejaVuSans-74" d="M 1172 4494 
L 1172 3500 
L 2356 3500 
L 2356 3053 
L 1172 3053 
L 1172 1153 
Q 1172 725 1289 603 
Q 1406 481 1766 481 
L 2356 481 
L 2356 0 
L 1766 0 
Q 1100 0 847 248 
Q 594 497 594 1153 
L 594 3053 
L 172 3053 
L 172 3500 
L 594 3500 
L 594 4494 
L 1172 4494 
z
" transform="scale(0.015625)"/>
       <path id="DejaVuSans-61" d="M 2194 1759 
Q 1497 1759 1228 1600 
Q 959 1441 959 1056 
Q 959 750 1161 570 
Q 1363 391 1709 391 
Q 2188 391 2477 730 
Q 2766 1069 2766 1631 
L 2766 1759 
L 2194 1759 
z
M 3341 1997 
L 3341 0 
L 2766 0 
L 2766 531 
Q 2569 213 2275 61 
Q 1981 -91 1556 -91 
Q 1019 -91 701 211 
Q 384 513 384 1019 
Q 384 1609 779 1909 
Q 1175 2209 1959 2209 
L 2766 2209 
L 2766 2266 
Q 2766 2663 2505 2880 
Q 2244 3097 1772 3097 
Q 1472 3097 1187 3025 
Q 903 2953 641 2809 
L 641 3341 
Q 956 3463 1253 3523 
Q 1550 3584 1831 3584 
Q 2591 3584 2966 3190 
Q 3341 2797 3341 1997 
z
" transform="scale(0.015625)"/>
       <path id="DejaVuSans-72" d="M 2631 2963 
Q 2534 3019 2420 3045 
Q 2306 3072 2169 3072 
Q 1681 3072 1420 2755 
Q 1159 2438 1159 1844 
L 1159 0 
L 581 0 
L 581 3500 
L 1159 3500 
L 1159 2956 
Q 1341 3275 1631 3429 
Q 1922 3584 2338 3584 
Q 2397 3584 2469 3576 
Q 2541 3569 2628 3553 
L 2631 2963 
z
" transform="scale(0.015625)"/>
       <path id="DejaVuSans-79" d="M 2059 -325 
Q 1816 -950 1584 -1140 
Q 1353 -1331 966 -1331 
L 506 -1331 
L 506 -850 
L 844 -850 
Q 1081 -850 1212 -737 
Q 1344 -625 1503 -206 
L 1606 56 
L 191 3500 
L 800 3500 
L 1894 763 
L 2988 3500 
L 3597 3500 
L 2059 -325 
z
" transform="scale(0.015625)"/>
       <path id="DejaVuSans-20" transform="scale(0.015625)"/>
       <path id="DejaVuSans-64" d="M 2906 2969 
L 2906 4863 
L 3481 4863 
L 3481 0 
L 2906 0 
L 2906 525 
Q 2725 213 2448 61 
Q 2172 -91 1784 -91 
Q 1150 -91 751 415 
Q 353 922 353 1747 
Q 353 2572 751 3078 
Q 1150 3584 1784 3584 
Q 2172 3584 2448 3432 
Q 2725 3281 2906 2969 
z
M 947 1747 
Q 947 1113 1208 752 
Q 1469 391 1925 391 
Q 2381 391 2643 752 
Q 2906 1113 2906 1747 
Q 2906 2381 2643 2742 
Q 2381 3103 1925 3103 
Q 1469 3103 1208 2742 
Q 947 2381 947 1747 
z
" transform="scale(0.015625)"/>
       <path id="DejaVuSans-75" d="M 544 1381 
L 544 3500 
L 1119 3500 
L 1119 1403 
Q 1119 906 1312 657 
Q 1506 409 1894 409 
Q 2359 409 2629 706 
Q 2900 1003 2900 1516 
L 2900 3500 
L 3475 3500 
L 3475 0 
L 2900 0 
L 2900 538 
Q 2691 219 2414 64 
Q 2138 -91 1772 -91 
Q 1169 -91 856 284 
Q 544 659 544 1381 
z
M 1991 3584 
L 1991 3584 
z
" transform="scale(0.015625)"/>
       <path id="DejaVuSans-6f" d="M 1959 3097 
Q 1497 3097 1228 2736 
Q 959 2375 959 1747 
Q 959 1119 1226 758 
Q 1494 397 1959 397 
Q 2419 397 2687 759 
Q 2956 1122 2956 1747 
Q 2956 2369 2687 2733 
Q 2419 3097 1959 3097 
z
M 1959 3584 
Q 2709 3584 3137 3096 
Q 3566 2609 3566 1747 
Q 3566 888 3137 398 
Q 2709 -91 1959 -91 
Q 1206 -91 779 398 
Q 353 888 353 1747 
Q 353 2609 779 3096 
Q 1206 3584 1959 3584 
z
" transform="scale(0.015625)"/>
       <path id="DejaVuSans-28" d="M 1984 4856 
Q 1566 4138 1362 3434 
Q 1159 2731 1159 2009 
Q 1159 1288 1364 580 
Q 1569 -128 1984 -844 
L 1484 -844 
Q 1016 -109 783 600 
Q 550 1309 550 2009 
Q 550 2706 781 3412 
Q 1013 4119 1484 4856 
L 1984 4856 
z
" transform="scale(0.015625)"/>
       <path id="DejaVuSans-29" d="M 513 4856 
L 1013 4856 
Q 1481 4119 1714 3412 
Q 1947 2706 1947 2009 
Q 1947 1309 1714 600 
Q 1481 -109 1013 -844 
L 513 -844 
Q 928 -128 1133 580 
Q 1338 1288 1338 2009 
Q 1338 2731 1133 3434 
Q 928 4138 513 4856 
z
" transform="scale(0.015625)"/>
      </defs>
      <use xlink:href="#DejaVuSans-55"/>
      <use xlink:href="#DejaVuSans-6e" x="73.193359"/>
      <use xlink:href="#DejaVuSans-69" x="136.572266"/>
      <use xlink:href="#DejaVuSans-74" x="164.355469"/>
      <use xlink:href="#DejaVuSans-61" x="203.564453"/>
      <use xlink:href="#DejaVuSans-72" x="264.84375"/>
      <use xlink:href="#DejaVuSans-79" x="305.957031"/>
      <use xlink:href="#DejaVuSans-20" x="365.136719"/>
      <use xlink:href="#DejaVuSans-64" x="396.923828"/>
      <use xlink:href="#DejaVuSans-75" x="460.400391"/>
      <use xlink:href="#DejaVuSans-72" x="523.779297"/>
      <use xlink:href="#DejaVuSans-61" x="564.892578"/>
      <use xlink:href="#DejaVuSans-74" x="626.171875"/>
      <use xlink:href="#DejaVuSans-69" x="665.380859"/>
      <use xlink:href="#DejaVuSans-6f" x="693.164062"/>
      <use xlink:href="#DejaVuSans-6e" x="754.345703"/>
      <use xlink:href="#DejaVuSans-20" x="817.724609"/>
      <use xlink:href="#DejaVuSans-28" x="849.511719"/>
      <use xlink:href="#DejaVuSans-74" x="888.525391"/>
      <use xlink:href="#DejaVuSans-29" x="927.734375"/>
     </g>
    </g>
   </g>
   <g id="matplotlib.axis_2">
    <g id="ytick_1">
     <g id="line2d_7">
      <defs>
       <path id="ma4d66c4751" d="M 0 0 
L -3.5 0 
" style="stroke: #000000; stroke-width: 0.8"/>
      </defs>
      <g>
       <use xlink:href="#ma4d66c4751" x="47.675" y="235.5" style="stroke: #000000; stroke-width: 0.8"/>
      </g>
     </g>
     <g id="text_8">
      <!-- 0.0 -->
      <g transform="translate(24.771875 239.299219)scale(0.1 -0.1)">
       <use xlink:href="#DejaVuSans-30"/>
       <use xlink:href="#DejaVuSans-2e" x="63.623047"/>
       <use xlink:href="#DejaVuSans-30" x="95.410156"/>
      </g>
     </g>
    </g>
    <g id="ytick_2">
     <g id="line2d_8">
      <g>
       <use xlink:href="#ma4d66c4751" x="47.675" y="192.700144" style="stroke: #000000; stroke-width: 0.8"/>
      </g>
     </g>
     <g id="text_9">
      <!-- 0.1 -->
      <g transform="translate(24.771875 196.499363)scale(0.1 -0.1)">
       <use xlink:href="#DejaVuSans-30"/>
       <use xlink:href="#DejaVuSans-2e" x="63.623047"/>
       <use xlink:href="#DejaVuSans-31" x="95.410156"/>
      </g>
     </g>
    </g>
    <g id="ytick_3">
     <g id="line2d_9">
      <g>
       <use xlink:href="#ma4d66c4751" x="47.675" y="149.900288" style="stroke: #000000; stroke-width: 0.8"/>
      </g>
     </g>
     <g id="text_10">
      <!-- 0.2 -->
      <g transform="translate(24.771875 153.699506)scale(0.1 -0.1)">
       <use xlink:href="#DejaVuSans-30"/>
       <use xlink:href="#DejaVuSans-2e" x="63.623047"/>
       <use xlink:href="#DejaVuSans-32" x="95.410156"/>
      </g>
     </g>
    </g>
    <g id="ytick_4">
     <g id="line2d_10">
      <g>
       <use xlink:href="#ma4d66c4751" x="47.675" y="107.100431" style="stroke: #000000; stroke-width: 0.8"/>
      </g>
     </g>
     <g id="text_11">
      <!-- 0.3 -->
      <g transform="translate(24.771875 110.89965)scale(0.1 -0.1)">
       <defs>
        <path id="DejaVuSans-33" d="M 2597 2516 
Q 3050 2419 3304 2112 
Q 3559 1806 3559 1356 
Q 3559 666 3084 287 
Q 2609 -91 1734 -91 
Q 1441 -91 1130 -33 
Q 819 25 488 141 
L 488 750 
Q 750 597 1062 519 
Q 1375 441 1716 441 
Q 2309 441 2620 675 
Q 2931 909 2931 1356 
Q 2931 1769 2642 2001 
Q 2353 2234 1838 2234 
L 1294 2234 
L 1294 2753 
L 1863 2753 
Q 2328 2753 2575 2939 
Q 2822 3125 2822 3475 
Q 2822 3834 2567 4026 
Q 2313 4219 1838 4219 
Q 1578 4219 1281 4162 
Q 984 4106 628 3988 
L 628 4550 
Q 988 4650 1302 4700 
Q 1616 4750 1894 4750 
Q 2613 4750 3031 4423 
Q 3450 4097 3450 3541 
Q 3450 3153 3228 2886 
Q 3006 2619 2597 2516 
z
" transform="scale(0.015625)"/>
       </defs>
       <use xlink:href="#DejaVuSans-30"/>
       <use xlink:href="#DejaVuSans-2e" x="63.623047"/>
       <use xlink:href="#DejaVuSans-33" x="95.410156"/>
      </g>
     </g>
    </g>
    <g id="ytick_5">
     <g id="line2d_11">
      <g>
       <use xlink:href="#ma4d66c4751" x="47.675" y="64.300575" style="stroke: #000000; stroke-width: 0.8"/>
      </g>
     </g>
     <g id="text_12">
      <!-- 0.4 -->
      <g transform="translate(24.771875 68.099794)scale(0.1 -0.1)">
       <use xlink:href="#DejaVuSans-30"/>
       <use xlink:href="#DejaVuSans-2e" x="63.623047"/>
       <use xlink:href="#DejaVuSans-34" x="95.410156"/>
      </g>
     </g>
    </g>
    <g id="ytick_6">
     <g id="line2d_12">
      <g>
       <use xlink:href="#ma4d66c4751" x="47.675" y="21.500719" style="stroke: #000000; stroke-width: 0.8"/>
      </g>
     </g>
     <g id="text_13">
      <!-- 0.5 -->
      <g transform="translate(24.771875 25.299938)scale(0.1 -0.1)">
       <defs>
        <path id="DejaVuSans-35" d="M 691 4666 
L 3169 4666 
L 3169 4134 
L 1269 4134 
L 1269 2991 
Q 1406 3038 1543 3061 
Q 1681 3084 1819 3084 
Q 2600 3084 3056 2656 
Q 3513 2228 3513 1497 
Q 3513 744 3044 326 
Q 2575 -91 1722 -91 
Q 1428 -91 1123 -41 
Q 819 9 494 109 
L 494 744 
Q 775 591 1075 516 
Q 1375 441 1709 441 
Q 2250 441 2565 725 
Q 2881 1009 2881 1497 
Q 2881 1984 2565 2268 
Q 2250 2553 1709 2553 
Q 1456 2553 1204 2497 
Q 953 2441 691 2322 
L 691 4666 
z
" transform="scale(0.015625)"/>
       </defs>
       <use xlink:href="#DejaVuSans-30"/>
       <use xlink:href="#DejaVuSans-2e" x="63.623047"/>
       <use xlink:href="#DejaVuSans-35" x="95.410156"/>
      </g>
     </g>
    </g>
    <g id="text_14">
     <!-- State Probability -->
     <g transform="translate(18.692188 169.753125)rotate(-90)scale(0.1 -0.1)">
      <defs>
       <path id="DejaVuSans-53" d="M 3425 4513 
L 3425 3897 
Q 3066 4069 2747 4153 
Q 2428 4238 2131 4238 
Q 1616 4238 1336 4038 
Q 1056 3838 1056 3469 
Q 1056 3159 1242 3001 
Q 1428 2844 1947 2747 
L 2328 2669 
Q 3034 2534 3370 2195 
Q 3706 1856 3706 1288 
Q 3706 609 3251 259 
Q 2797 -91 1919 -91 
Q 1588 -91 1214 -16 
Q 841 59 441 206 
L 441 856 
Q 825 641 1194 531 
Q 1563 422 1919 422 
Q 2459 422 2753 634 
Q 3047 847 3047 1241 
Q 3047 1584 2836 1778 
Q 2625 1972 2144 2069 
L 1759 2144 
Q 1053 2284 737 2584 
Q 422 2884 422 3419 
Q 422 4038 858 4394 
Q 1294 4750 2059 4750 
Q 2388 4750 2728 4690 
Q 3069 4631 3425 4513 
z
" transform="scale(0.015625)"/>
       <path id="DejaVuSans-65" d="M 3597 1894 
L 3597 1613 
L 953 1613 
Q 991 1019 1311 708 
Q 1631 397 2203 397 
Q 2534 397 2845 478 
Q 3156 559 3463 722 
L 3463 178 
Q 3153 47 2828 -22 
Q 2503 -91 2169 -91 
Q 1331 -91 842 396 
Q 353 884 353 1716 
Q 353 2575 817 3079 
Q 1281 3584 2069 3584 
Q 2775 3584 3186 3129 
Q 3597 2675 3597 1894 
z
M 3022 2063 
Q 3016 2534 2758 2815 
Q 2500 3097 2075 3097 
Q 1594 3097 1305 2825 
Q 1016 2553 972 2059 
L 3022 2063 
z
" transform="scale(0.015625)"/>
       <path id="DejaVuSans-50" d="M 1259 4147 
L 1259 2394 
L 2053 2394 
Q 2494 2394 2734 2622 
Q 2975 2850 2975 3272 
Q 2975 3691 2734 3919 
Q 2494 4147 2053 4147 
L 1259 4147 
z
M 628 4666 
L 2053 4666 
Q 2838 4666 3239 4311 
Q 3641 3956 3641 3272 
Q 3641 2581 3239 2228 
Q 2838 1875 2053 1875 
L 1259 1875 
L 1259 0 
L 628 0 
L 628 4666 
z
" transform="scale(0.015625)"/>
       <path id="DejaVuSans-62" d="M 3116 1747 
Q 3116 2381 2855 2742 
Q 2594 3103 2138 3103 
Q 1681 3103 1420 2742 
Q 1159 2381 1159 1747 
Q 1159 1113 1420 752 
Q 1681 391 2138 391 
Q 2594 391 2855 752 
Q 3116 1113 3116 1747 
z
M 1159 2969 
Q 1341 3281 1617 3432 
Q 1894 3584 2278 3584 
Q 2916 3584 3314 3078 
Q 3713 2572 3713 1747 
Q 3713 922 3314 415 
Q 2916 -91 2278 -91 
Q 1894 -91 1617 61 
Q 1341 213 1159 525 
L 1159 0 
L 581 0 
L 581 4863 
L 1159 4863 
L 1159 2969 
z
" transform="scale(0.015625)"/>
       <path id="DejaVuSans-6c" d="M 603 4863 
L 1178 4863 
L 1178 0 
L 603 0 
L 603 4863 
z
" transform="scale(0.015625)"/>
      </defs>
      <use xlink:href="#DejaVuSans-53"/>
      <use xlink:href="#DejaVuSans-74" x="63.476562"/>
      <use xlink:href="#DejaVuSans-61" x="102.685547"/>
      <use xlink:href="#DejaVuSans-74" x="163.964844"/>
      <use xlink:href="#DejaVuSans-65" x="203.173828"/>
      <use xlink:href="#DejaVuSans-20" x="264.697266"/>
      <use xlink:href="#DejaVuSans-50" x="296.484375"/>
      <use xlink:href="#DejaVuSans-72" x="355.037109"/>
      <use xlink:href="#DejaVuSans-6f" x="393.900391"/>
      <use xlink:href="#DejaVuSans-62" x="455.082031"/>
      <use xlink:href="#DejaVuSans-61" x="518.558594"/>
      <use xlink:href="#DejaVuSans-62" x="579.837891"/>
      <use xlink:href="#DejaVuSans-69" x="643.314453"/>
      <use xlink:href="#DejaVuSans-6c" x="671.097656"/>
      <use xlink:href="#DejaVuSans-69" x="698.880859"/>
      <use xlink:href="#DejaVuSans-74" x="726.664062"/>
      <use xlink:href="#DejaVuSans-79" x="765.873047"/>
     </g>
    </g>
   </g>
   <g id="line2d_13">
    <path d="M 61.54106 222.146178 
L 68.65186 218.721954 
L 75.76266 214.913755 
L 82.87346 210.730579 
L 89.98426 206.183912 
L 97.09506 201.287671 
L 104.20586 196.058147 
L 111.31666 190.513918 
L 118.42746 184.675756 
L 125.53826 178.566518 
L 132.64906 172.211021 
L 139.75986 165.635903 
L 146.87066 158.869476 
L 153.98146 151.941568 
L 161.09226 144.883345 
L 168.20306 137.727139 
L 175.31386 130.506257 
L 182.42466 123.254782 
L 189.53546 116.007381 
L 196.64626 108.799093 
L 203.75706 101.665123 
L 210.86786 94.640636 
L 217.97866 87.76054 
L 225.08946 81.059284 
L 232.20026 74.570644 
L 239.31106 68.327526 
L 246.42186 62.361765 
L 253.53266 56.703928 
L 260.64346 51.383137 
L 267.75426 46.426887 
L 274.86506 41.860878 
L 281.97586 37.708864 
L 289.08666 33.992504 
L 296.19746 30.731231 
L 303.30826 27.942134 
L 310.41906 25.639854 
L 317.52986 23.836492 
L 324.64066 22.54154 
L 331.75146 21.761819 
L 338.86226 21.501438 
" clip-path="url(#p72ad8b3a5d)" style="fill: none; stroke-dasharray: 7.5,0; stroke-dashoffset: 0; stroke: #1f77b4; stroke-width: 1.5"/>
    <defs>
     <path id="mf7486d031c" d="M 0 1.5 
C 0.397805 1.5 0.77937 1.341951 1.06066 1.06066 
C 1.341951 0.77937 1.5 0.397805 1.5 0 
C 1.5 -0.397805 1.341951 -0.77937 1.06066 -1.06066 
C 0.77937 -1.341951 0.397805 -1.5 0 -1.5 
C -0.397805 -1.5 -0.77937 -1.341951 -1.06066 -1.06066 
C -1.341951 -0.77937 -1.5 -0.397805 -1.5 0 
C -1.5 0.397805 -1.341951 0.77937 -1.06066 1.06066 
C -0.77937 1.341951 -0.397805 1.5 0 1.5 
z
" style="stroke: #1f77b4"/>
    </defs>
    <g clip-path="url(#p72ad8b3a5d)">
     <use xlink:href="#mf7486d031c" x="61.54106" y="222.146178" style="fill: #1f77b4; stroke: #1f77b4"/>
     <use xlink:href="#mf7486d031c" x="68.65186" y="218.721954" style="fill: #1f77b4; stroke: #1f77b4"/>
     <use xlink:href="#mf7486d031c" x="75.76266" y="214.913755" style="fill: #1f77b4; stroke: #1f77b4"/>
     <use xlink:href="#mf7486d031c" x="82.87346" y="210.730579" style="fill: #1f77b4; stroke: #1f77b4"/>
     <use xlink:href="#mf7486d031c" x="89.98426" y="206.183912" style="fill: #1f77b4; stroke: #1f77b4"/>
     <use xlink:href="#mf7486d031c" x="97.09506" y="201.287671" style="fill: #1f77b4; stroke: #1f77b4"/>
     <use xlink:href="#mf7486d031c" x="104.20586" y="196.058147" style="fill: #1f77b4; stroke: #1f77b4"/>
     <use xlink:href="#mf7486d031c" x="111.31666" y="190.513918" style="fill: #1f77b4; stroke: #1f77b4"/>
     <use xlink:href="#mf7486d031c" x="118.42746" y="184.675756" style="fill: #1f77b4; stroke: #1f77b4"/>
     <use xlink:href="#mf7486d031c" x="125.53826" y="178.566518" style="fill: #1f77b4; stroke: #1f77b4"/>
     <use xlink:href="#mf7486d031c" x="132.64906" y="172.211021" style="fill: #1f77b4; stroke: #1f77b4"/>
     <use xlink:href="#mf7486d031c" x="139.75986" y="165.635903" style="fill: #1f77b4; stroke: #1f77b4"/>
     <use xlink:href="#mf7486d031c" x="146.87066" y="158.869476" style="fill: #1f77b4; stroke: #1f77b4"/>
     <use xlink:href="#mf7486d031c" x="153.98146" y="151.941568" style="fill: #1f77b4; stroke: #1f77b4"/>
     <use xlink:href="#mf7486d031c" x="161.09226" y="144.883345" style="fill: #1f77b4; stroke: #1f77b4"/>
     <use xlink:href="#mf7486d031c" x="168.20306" y="137.727139" style="fill: #1f77b4; stroke: #1f77b4"/>
     <use xlink:href="#mf7486d031c" x="175.31386" y="130.506257" style="fill: #1f77b4; stroke: #1f77b4"/>
     <use xlink:href="#mf7486d031c" x="182.42466" y="123.254782" style="fill: #1f77b4; stroke: #1f77b4"/>
     <use xlink:href="#mf7486d031c" x="189.53546" y="116.007381" style="fill: #1f77b4; stroke: #1f77b4"/>
     <use xlink:href="#mf7486d031c" x="196.64626" y="108.799093" style="fill: #1f77b4; stroke: #1f77b4"/>
     <use xlink:href="#mf7486d031c" x="203.75706" y="101.665123" style="fill: #1f77b4; stroke: #1f77b4"/>
     <use xlink:href="#mf7486d031c" x="210.86786" y="94.640636" style="fill: #1f77b4; stroke: #1f77b4"/>
     <use xlink:href="#mf7486d031c" x="217.97866" y="87.76054" style="fill: #1f77b4; stroke: #1f77b4"/>
     <use xlink:href="#mf7486d031c" x="225.08946" y="81.059284" style="fill: #1f77b4; stroke: #1f77b4"/>
     <use xlink:href="#mf7486d031c" x="232.20026" y="74.570644" style="fill: #1f77b4; stroke: #1f77b4"/>
     <use xlink:href="#mf7486d031c" x="239.31106" y="68.327526" style="fill: #1f77b4; stroke: #1f77b4"/>
     <use xlink:href="#mf7486d031c" x="246.42186" y="62.361765" style="fill: #1f77b4; stroke: #1f77b4"/>
     <use xlink:href="#mf7486d031c" x="253.53266" y="56.703928" style="fill: #1f77b4; stroke: #1f77b4"/>
     <use xlink:href="#mf7486d031c" x="260.64346" y="51.383137" style="fill: #1f77b4; stroke: #1f77b4"/>
     <use xlink:href="#mf7486d031c" x="267.75426" y="46.426887" style="fill: #1f77b4; stroke: #1f77b4"/>
     <use xlink:href="#mf7486d031c" x="274.86506" y="41.860878" style="fill: #1f77b4; stroke: #1f77b4"/>
     <use xlink:href="#mf7486d031c" x="281.97586" y="37.708864" style="fill: #1f77b4; stroke: #1f77b4"/>
     <use xlink:href="#mf7486d031c" x="289.08666" y="33.992504" style="fill: #1f77b4; stroke: #1f77b4"/>
     <use xlink:href="#mf7486d031c" x="296.19746" y="30.731231" style="fill: #1f77b4; stroke: #1f77b4"/>
     <use xlink:href="#mf7486d031c" x="303.30826" y="27.942134" style="fill: #1f77b4; stroke: #1f77b4"/>
     <use xlink:href="#mf7486d031c" x="310.41906" y="25.639854" style="fill: #1f77b4; stroke: #1f77b4"/>
     <use xlink:href="#mf7486d031c" x="317.52986" y="23.836492" style="fill: #1f77b4; stroke: #1f77b4"/>
     <use xlink:href="#mf7486d031c" x="324.64066" y="22.54154" style="fill: #1f77b4; stroke: #1f77b4"/>
     <use xlink:href="#mf7486d031c" x="331.75146" y="21.761819" style="fill: #1f77b4; stroke: #1f77b4"/>
     <use xlink:href="#mf7486d031c" x="338.86226" y="21.501438" style="fill: #1f77b4; stroke: #1f77b4"/>
    </g>
   </g>
   <g id="line2d_14">
    <path d="M 61.54106 234.543043 
L 68.65186 234.816642 
L 75.76266 235.037703 
L 82.87346 235.210244 
L 89.98426 235.338412 
L 97.09506 235.426441 
L 104.20586 235.478622 
L 111.31666 235.499262 
L 118.42746 235.492652 
L 125.53826 235.463033 
L 132.64906 235.414557 
L 139.75986 235.351256 
L 146.87066 235.277014 
L 153.98146 235.195529 
L 161.09226 235.110287 
L 168.20306 235.024536 
L 175.31386 234.941259 
L 182.42466 234.86315 
L 189.53546 234.792596 
L 196.64626 234.731654 
L 203.75706 234.682038 
L 210.86786 234.645107 
L 217.97866 234.621849 
L 225.08946 234.612882 
L 232.20026 234.61844 
L 239.31106 234.638377 
L 246.42186 234.672168 
L 253.53266 234.718909 
L 260.64346 234.777328 
L 267.75426 234.845794 
L 274.86506 234.922329 
L 281.97586 235.004621 
L 289.08666 235.090048 
L 296.19746 235.175693 
L 303.30826 235.258367 
L 310.41906 235.334638 
L 317.52986 235.400855 
L 324.64066 235.453175 
L 331.75146 235.4876 
L 338.86226 235.5 
" clip-path="url(#p72ad8b3a5d)" style="fill: none; stroke-dasharray: 7.5,1.5; stroke-dashoffset: 0; stroke: #ff7f0e; stroke-width: 1.5"/>
    <defs>
     <path id="mce81a87c47" d="M 0 1.5 
C 0.397805 1.5 0.77937 1.341951 1.06066 1.06066 
C 1.341951 0.77937 1.5 0.397805 1.5 0 
C 1.5 -0.397805 1.341951 -0.77937 1.06066 -1.06066 
C 0.77937 -1.341951 0.397805 -1.5 0 -1.5 
C -0.397805 -1.5 -0.77937 -1.341951 -1.06066 -1.06066 
C -1.341951 -0.77937 -1.5 -0.397805 -1.5 0 
C -1.5 0.397805 -1.341951 0.77937 -1.06066 1.06066 
C -0.77937 1.341951 -0.397805 1.5 0 1.5 
z
" style="stroke: #ff7f0e"/>
    </defs>
    <g clip-path="url(#p72ad8b3a5d)">
     <use xlink:href="#mce81a87c47" x="61.54106" y="234.543043" style="fill: #ff7f0e; stroke: #ff7f0e"/>
     <use xlink:href="#mce81a87c47" x="68.65186" y="234.816642" style="fill: #ff7f0e; stroke: #ff7f0e"/>
     <use xlink:href="#mce81a87c47" x="75.76266" y="235.037703" style="fill: #ff7f0e; stroke: #ff7f0e"/>
     <use xlink:href="#mce81a87c47" x="82.87346" y="235.210244" style="fill: #ff7f0e; stroke: #ff7f0e"/>
     <use xlink:href="#mce81a87c47" x="89.98426" y="235.338412" style="fill: #ff7f0e; stroke: #ff7f0e"/>
     <use xlink:href="#mce81a87c47" x="97.09506" y="235.426441" style="fill: #ff7f0e; stroke: #ff7f0e"/>
     <use xlink:href="#mce81a87c47" x="104.20586" y="235.478622" style="fill: #ff7f0e; stroke: #ff7f0e"/>
     <use xlink:href="#mce81a87c47" x="111.31666" y="235.499262" style="fill: #ff7f0e; stroke: #ff7f0e"/>
     <use xlink:href="#mce81a87c47" x="118.42746" y="235.492652" style="fill: #ff7f0e; stroke: #ff7f0e"/>
     <use xlink:href="#mce81a87c47" x="125.53826" y="235.463033" style="fill: #ff7f0e; stroke: #ff7f0e"/>
     <use xlink:href="#mce81a87c47" x="132.64906" y="235.414557" style="fill: #ff7f0e; stroke: #ff7f0e"/>
     <use xlink:href="#mce81a87c47" x="139.75986" y="235.351256" style="fill: #ff7f0e; stroke: #ff7f0e"/>
     <use xlink:href="#mce81a87c47" x="146.87066" y="235.277014" style="fill: #ff7f0e; stroke: #ff7f0e"/>
     <use xlink:href="#mce81a87c47" x="153.98146" y="235.195529" style="fill: #ff7f0e; stroke: #ff7f0e"/>
     <use xlink:href="#mce81a87c47" x="161.09226" y="235.110287" style="fill: #ff7f0e; stroke: #ff7f0e"/>
     <use xlink:href="#mce81a87c47" x="168.20306" y="235.024536" style="fill: #ff7f0e; stroke: #ff7f0e"/>
     <use xlink:href="#mce81a87c47" x="175.31386" y="234.941259" style="fill: #ff7f0e; stroke: #ff7f0e"/>
     <use xlink:href="#mce81a87c47" x="182.42466" y="234.86315" style="fill: #ff7f0e; stroke: #ff7f0e"/>
     <use xlink:href="#mce81a87c47" x="189.53546" y="234.792596" style="fill: #ff7f0e; stroke: #ff7f0e"/>
     <use xlink:href="#mce81a87c47" x="196.64626" y="234.731654" style="fill: #ff7f0e; stroke: #ff7f0e"/>
     <use xlink:href="#mce81a87c47" x="203.75706" y="234.682038" style="fill: #ff7f0e; stroke: #ff7f0e"/>
     <use xlink:href="#mce81a87c47" x="210.86786" y="234.645107" style="fill: #ff7f0e; stroke: #ff7f0e"/>
     <use xlink:href="#mce81a87c47" x="217.97866" y="234.621849" style="fill: #ff7f0e; stroke: #ff7f0e"/>
     <use xlink:href="#mce81a87c47" x="225.08946" y="234.612882" style="fill: #ff7f0e; stroke: #ff7f0e"/>
     <use xlink:href="#mce81a87c47" x="232.20026" y="234.61844" style="fill: #ff7f0e; stroke: #ff7f0e"/>
     <use xlink:href="#mce81a87c47" x="239.31106" y="234.638377" style="fill: #ff7f0e; stroke: #ff7f0e"/>
     <use xlink:href="#mce81a87c47" x="246.42186" y="234.672168" style="fill: #ff7f0e; stroke: #ff7f0e"/>
     <use xlink:href="#mce81a87c47" x="253.53266" y="234.718909" style="fill: #ff7f0e; stroke: #ff7f0e"/>
     <use xlink:href="#mce81a87c47" x="260.64346" y="234.777328" style="fill: #ff7f0e; stroke: #ff7f0e"/>
     <use xlink:href="#mce81a87c47" x="267.75426" y="234.845794" style="fill: #ff7f0e; stroke: #ff7f0e"/>
     <use xlink:href="#mce81a87c47" x="274.86506" y="234.922329" style="fill: #ff7f0e; stroke: #ff7f0e"/>
     <use xlink:href="#mce81a87c47" x="281.97586" y="235.004621" style="fill: #ff7f0e; stroke: #ff7f0e"/>
     <use xlink:href="#mce81a87c47" x="289.08666" y="235.090048" style="fill: #ff7f0e; stroke: #ff7f0e"/>
     <use xlink:href="#mce81a87c47" x="296.19746" y="235.175693" style="fill: #ff7f0e; stroke: #ff7f0e"/>
     <use xlink:href="#mce81a87c47" x="303.30826" y="235.258367" style="fill: #ff7f0e; stroke: #ff7f0e"/>
     <use xlink:href="#mce81a87c47" x="310.41906" y="235.334638" style="fill: #ff7f0e; stroke: #ff7f0e"/>
     <use xlink:href="#mce81a87c47" x="317.52986" y="235.400855" style="fill: #ff7f0e; stroke: #ff7f0e"/>
     <use xlink:href="#mce81a87c47" x="324.64066" y="235.453175" style="fill: #ff7f0e; stroke: #ff7f0e"/>
     <use xlink:href="#mce81a87c47" x="331.75146" y="235.4876" style="fill: #ff7f0e; stroke: #ff7f0e"/>
     <use xlink:href="#mce81a87c47" x="338.86226" y="235.5" style="fill: #ff7f0e; stroke: #ff7f0e"/>
    </g>
   </g>
   <g id="line2d_15">
    <path d="M 61.54106 222.146307 
L 68.65186 221.12867 
L 75.76266 220.166924 
L 82.87346 219.271605 
L 89.98426 218.452399 
L 97.09506 217.718079 
L 104.20586 217.076435 
L 111.31666 216.534228 
L 118.42746 216.097132 
L 125.53826 215.7697 
L 132.64906 215.555332 
L 139.75986 215.456246 
L 146.87066 215.473466 
L 153.98146 215.606814 
L 161.09226 215.854912 
L 168.20306 216.215189 
L 175.31386 216.683904 
L 182.42466 217.256166 
L 189.53546 217.925975 
L 196.64626 218.686263 
L 203.75706 219.528939 
L 210.86786 220.444957 
L 217.97866 221.424369 
L 225.08946 222.456405 
L 232.20026 223.529546 
L 239.31106 224.631606 
L 246.42186 225.749823 
L 253.53266 226.870945 
L 260.64346 227.981335 
L 267.75426 229.067058 
L 274.86506 230.113994 
L 281.97586 231.107932 
L 289.08666 232.034681 
L 296.19746 232.880169 
L 303.30826 233.630551 
L 310.41906 234.272312 
L 317.52986 234.792368 
L 324.64066 235.178166 
L 331.75146 235.417779 
L 338.86226 235.5 
" clip-path="url(#p72ad8b3a5d)" style="fill: none; stroke-dasharray: 7.5,3; stroke-dashoffset: 0; stroke: #2ca02c; stroke-width: 1.5"/>
    <defs>
     <path id="mb0a562e2eb" d="M 0 1.5 
C 0.397805 1.5 0.77937 1.341951 1.06066 1.06066 
C 1.341951 0.77937 1.5 0.397805 1.5 0 
C 1.5 -0.397805 1.341951 -0.77937 1.06066 -1.06066 
C 0.77937 -1.341951 0.397805 -1.5 0 -1.5 
C -0.397805 -1.5 -0.77937 -1.341951 -1.06066 -1.06066 
C -1.341951 -0.77937 -1.5 -0.397805 -1.5 0 
C -1.5 0.397805 -1.341951 0.77937 -1.06066 1.06066 
C -0.77937 1.341951 -0.397805 1.5 0 1.5 
z
" style="stroke: #2ca02c"/>
    </defs>
    <g clip-path="url(#p72ad8b3a5d)">
     <use xlink:href="#mb0a562e2eb" x="61.54106" y="222.146307" style="fill: #2ca02c; stroke: #2ca02c"/>
     <use xlink:href="#mb0a562e2eb" x="68.65186" y="221.12867" style="fill: #2ca02c; stroke: #2ca02c"/>
     <use xlink:href="#mb0a562e2eb" x="75.76266" y="220.166924" style="fill: #2ca02c; stroke: #2ca02c"/>
     <use xlink:href="#mb0a562e2eb" x="82.87346" y="219.271605" style="fill: #2ca02c; stroke: #2ca02c"/>
     <use xlink:href="#mb0a562e2eb" x="89.98426" y="218.452399" style="fill: #2ca02c; stroke: #2ca02c"/>
     <use xlink:href="#mb0a562e2eb" x="97.09506" y="217.718079" style="fill: #2ca02c; stroke: #2ca02c"/>
     <use xlink:href="#mb0a562e2eb" x="104.20586" y="217.076435" style="fill: #2ca02c; stroke: #2ca02c"/>
     <use xlink:href="#mb0a562e2eb" x="111.31666" y="216.534228" style="fill: #2ca02c; stroke: #2ca02c"/>
     <use xlink:href="#mb0a562e2eb" x="118.42746" y="216.097132" style="fill: #2ca02c; stroke: #2ca02c"/>
     <use xlink:href="#mb0a562e2eb" x="125.53826" y="215.7697" style="fill: #2ca02c; stroke: #2ca02c"/>
     <use xlink:href="#mb0a562e2eb" x="132.64906" y="215.555332" style="fill: #2ca02c; stroke: #2ca02c"/>
     <use xlink:href="#mb0a562e2eb" x="139.75986" y="215.456246" style="fill: #2ca02c; stroke: #2ca02c"/>
     <use xlink:href="#mb0a562e2eb" x="146.87066" y="215.473466" style="fill: #2ca02c; stroke: #2ca02c"/>
     <use xlink:href="#mb0a562e2eb" x="153.98146" y="215.606814" style="fill: #2ca02c; stroke: #2ca02c"/>
     <use xlink:href="#mb0a562e2eb" x="161.09226" y="215.854912" style="fill: #2ca02c; stroke: #2ca02c"/>
     <use xlink:href="#mb0a562e2eb" x="168.20306" y="216.215189" style="fill: #2ca02c; stroke: #2ca02c"/>
     <use xlink:href="#mb0a562e2eb" x="175.31386" y="216.683904" style="fill: #2ca02c; stroke: #2ca02c"/>
     <use xlink:href="#mb0a562e2eb" x="182.42466" y="217.256166" style="fill: #2ca02c; stroke: #2ca02c"/>
     <use xlink:href="#mb0a562e2eb" x="189.53546" y="217.925975" style="fill: #2ca02c; stroke: #2ca02c"/>
     <use xlink:href="#mb0a562e2eb" x="196.64626" y="218.686263" style="fill: #2ca02c; stroke: #2ca02c"/>
     <use xlink:href="#mb0a562e2eb" x="203.75706" y="219.528939" style="fill: #2ca02c; stroke: #2ca02c"/>
     <use xlink:href="#mb0a562e2eb" x="210.86786" y="220.444957" style="fill: #2ca02c; stroke: #2ca02c"/>
     <use xlink:href="#mb0a562e2eb" x="217.97866" y="221.424369" style="fill: #2ca02c; stroke: #2ca02c"/>
     <use xlink:href="#mb0a562e2eb" x="225.08946" y="222.456405" style="fill: #2ca02c; stroke: #2ca02c"/>
     <use xlink:href="#mb0a562e2eb" x="232.20026" y="223.529546" style="fill: #2ca02c; stroke: #2ca02c"/>
     <use xlink:href="#mb0a562e2eb" x="239.31106" y="224.631606" style="fill: #2ca02c; stroke: #2ca02c"/>
     <use xlink:href="#mb0a562e2eb" x="246.42186" y="225.749823" style="fill: #2ca02c; stroke: #2ca02c"/>
     <use xlink:href="#mb0a562e2eb" x="253.53266" y="226.870945" style="fill: #2ca02c; stroke: #2ca02c"/>
     <use xlink:href="#mb0a562e2eb" x="260.64346" y="227.981335" style="fill: #2ca02c; stroke: #2ca02c"/>
     <use xlink:href="#mb0a562e2eb" x="267.75426" y="229.067058" style="fill: #2ca02c; stroke: #2ca02c"/>
     <use xlink:href="#mb0a562e2eb" x="274.86506" y="230.113994" style="fill: #2ca02c; stroke: #2ca02c"/>
     <use xlink:href="#mb0a562e2eb" x="281.97586" y="231.107932" style="fill: #2ca02c; stroke: #2ca02c"/>
     <use xlink:href="#mb0a562e2eb" x="289.08666" y="232.034681" style="fill: #2ca02c; stroke: #2ca02c"/>
     <use xlink:href="#mb0a562e2eb" x="296.19746" y="232.880169" style="fill: #2ca02c; stroke: #2ca02c"/>
     <use xlink:href="#mb0a562e2eb" x="303.30826" y="233.630551" style="fill: #2ca02c; stroke: #2ca02c"/>
     <use xlink:href="#mb0a562e2eb" x="310.41906" y="234.272312" style="fill: #2ca02c; stroke: #2ca02c"/>
     <use xlink:href="#mb0a562e2eb" x="317.52986" y="234.792368" style="fill: #2ca02c; stroke: #2ca02c"/>
     <use xlink:href="#mb0a562e2eb" x="324.64066" y="235.178166" style="fill: #2ca02c; stroke: #2ca02c"/>
     <use xlink:href="#mb0a562e2eb" x="331.75146" y="235.417779" style="fill: #2ca02c; stroke: #2ca02c"/>
     <use xlink:href="#mb0a562e2eb" x="338.86226" y="235.5" style="fill: #2ca02c; stroke: #2ca02c"/>
    </g>
   </g>
   <g id="line2d_16">
    <path d="M 61.54106 234.543053 
L 68.65186 234.816645 
L 75.76266 235.0377 
L 82.87346 235.210238 
L 89.98426 235.338405 
L 97.09506 235.426434 
L 104.20586 235.478617 
L 111.31666 235.499261 
L 118.42746 235.492656 
L 125.53826 235.463043 
L 132.64906 235.414574 
L 139.75986 235.351283 
L 146.87066 235.277049 
L 153.98146 235.195574 
L 161.09226 235.110342 
L 168.20306 235.024601 
L 175.31386 234.941335 
L 182.42466 234.863237 
L 189.53546 234.792693 
L 196.64626 234.73176 
L 203.75706 234.682153 
L 210.86786 234.64523 
L 217.97866 234.62198 
L 225.08946 234.613019 
L 232.20026 234.618582 
L 239.31106 234.638523 
L 246.42186 234.672315 
L 253.53266 234.719056 
L 260.64346 234.777474 
L 267.75426 234.845937 
L 274.86506 234.922466 
L 281.97586 235.004751 
L 289.08666 235.090169 
L 296.19746 235.175802 
L 303.30826 235.258463 
L 310.41906 235.334719 
L 317.52986 235.400918 
L 324.64066 235.45322 
L 331.75146 235.487623 
L 338.86226 235.5 
" clip-path="url(#p72ad8b3a5d)" style="fill: none; stroke-dasharray: 7.5,4.5; stroke-dashoffset: 0; stroke: #d62728; stroke-width: 1.5"/>
    <defs>
     <path id="m9893fc4099" d="M 0 1.5 
C 0.397805 1.5 0.77937 1.341951 1.06066 1.06066 
C 1.341951 0.77937 1.5 0.397805 1.5 0 
C 1.5 -0.397805 1.341951 -0.77937 1.06066 -1.06066 
C 0.77937 -1.341951 0.397805 -1.5 0 -1.5 
C -0.397805 -1.5 -0.77937 -1.341951 -1.06066 -1.06066 
C -1.341951 -0.77937 -1.5 -0.397805 -1.5 0 
C -1.5 0.397805 -1.341951 0.77937 -1.06066 1.06066 
C -0.77937 1.341951 -0.397805 1.5 0 1.5 
z
" style="stroke: #d62728"/>
    </defs>
    <g clip-path="url(#p72ad8b3a5d)">
     <use xlink:href="#m9893fc4099" x="61.54106" y="234.543053" style="fill: #d62728; stroke: #d62728"/>
     <use xlink:href="#m9893fc4099" x="68.65186" y="234.816645" style="fill: #d62728; stroke: #d62728"/>
     <use xlink:href="#m9893fc4099" x="75.76266" y="235.0377" style="fill: #d62728; stroke: #d62728"/>
     <use xlink:href="#m9893fc4099" x="82.87346" y="235.210238" style="fill: #d62728; stroke: #d62728"/>
     <use xlink:href="#m9893fc4099" x="89.98426" y="235.338405" style="fill: #d62728; stroke: #d62728"/>
     <use xlink:href="#m9893fc4099" x="97.09506" y="235.426434" style="fill: #d62728; stroke: #d62728"/>
     <use xlink:href="#m9893fc4099" x="104.20586" y="235.478617" style="fill: #d62728; stroke: #d62728"/>
     <use xlink:href="#m9893fc4099" x="111.31666" y="235.499261" style="fill: #d62728; stroke: #d62728"/>
     <use xlink:href="#m9893fc4099" x="118.42746" y="235.492656" style="fill: #d62728; stroke: #d62728"/>
     <use xlink:href="#m9893fc4099" x="125.53826" y="235.463043" style="fill: #d62728; stroke: #d62728"/>
     <use xlink:href="#m9893fc4099" x="132.64906" y="235.414574" style="fill: #d62728; stroke: #d62728"/>
     <use xlink:href="#m9893fc4099" x="139.75986" y="235.351283" style="fill: #d62728; stroke: #d62728"/>
     <use xlink:href="#m9893fc4099" x="146.87066" y="235.277049" style="fill: #d62728; stroke: #d62728"/>
     <use xlink:href="#m9893fc4099" x="153.98146" y="235.195574" style="fill: #d62728; stroke: #d62728"/>
     <use xlink:href="#m9893fc4099" x="161.09226" y="235.110342" style="fill: #d62728; stroke: #d62728"/>
     <use xlink:href="#m9893fc4099" x="168.20306" y="235.024601" style="fill: #d62728; stroke: #d62728"/>
     <use xlink:href="#m9893fc4099" x="175.31386" y="234.941335" style="fill: #d62728; stroke: #d62728"/>
     <use xlink:href="#m9893fc4099" x="182.42466" y="234.863237" style="fill: #d62728; stroke: #d62728"/>
     <use xlink:href="#m9893fc4099" x="189.53546" y="234.792693" style="fill: #d62728; stroke: #d62728"/>
     <use xlink:href="#m9893fc4099" x="196.64626" y="234.73176" style="fill: #d62728; stroke: #d62728"/>
     <use xlink:href="#m9893fc4099" x="203.75706" y="234.682153" style="fill: #d62728; stroke: #d62728"/>
     <use xlink:href="#m9893fc4099" x="210.86786" y="234.64523" style="fill: #d62728; stroke: #d62728"/>
     <use xlink:href="#m9893fc4099" x="217.97866" y="234.62198" style="fill: #d62728; stroke: #d62728"/>
     <use xlink:href="#m9893fc4099" x="225.08946" y="234.613019" style="fill: #d62728; stroke: #d62728"/>
     <use xlink:href="#m9893fc4099" x="232.20026" y="234.618582" style="fill: #d62728; stroke: #d62728"/>
     <use xlink:href="#m9893fc4099" x="239.31106" y="234.638523" style="fill: #d62728; stroke: #d62728"/>
     <use xlink:href="#m9893fc4099" x="246.42186" y="234.672315" style="fill: #d62728; stroke: #d62728"/>
     <use xlink:href="#m9893fc4099" x="253.53266" y="234.719056" style="fill: #d62728; stroke: #d62728"/>
     <use xlink:href="#m9893fc4099" x="260.64346" y="234.777474" style="fill: #d62728; stroke: #d62728"/>
     <use xlink:href="#m9893fc4099" x="267.75426" y="234.845937" style="fill: #d62728; stroke: #d62728"/>
     <use xlink:href="#m9893fc4099" x="274.86506" y="234.922466" style="fill: #d62728; stroke: #d62728"/>
     <use xlink:href="#m9893fc4099" x="281.97586" y="235.004751" style="fill: #d62728; stroke: #d62728"/>
     <use xlink:href="#m9893fc4099" x="289.08666" y="235.090169" style="fill: #d62728; stroke: #d62728"/>
     <use xlink:href="#m9893fc4099" x="296.19746" y="235.175802" style="fill: #d62728; stroke: #d62728"/>
     <use xlink:href="#m9893fc4099" x="303.30826" y="235.258463" style="fill: #d62728; stroke: #d62728"/>
     <use xlink:href="#m9893fc4099" x="310.41906" y="235.334719" style="fill: #d62728; stroke: #d62728"/>
     <use xlink:href="#m9893fc4099" x="317.52986" y="235.400918" style="fill: #d62728; stroke: #d62728"/>
     <use xlink:href="#m9893fc4099" x="324.64066" y="235.45322" style="fill: #d62728; stroke: #d62728"/>
     <use xlink:href="#m9893fc4099" x="331.75146" y="235.487623" style="fill: #d62728; stroke: #d62728"/>
     <use xlink:href="#m9893fc4099" x="338.86226" y="235.5" style="fill: #d62728; stroke: #d62728"/>
    </g>
   </g>
   <g id="line2d_17">
    <path d="M 61.54106 49.163628 
L 68.65186 53.331951 
L 75.76266 57.880902 
L 82.87346 62.786924 
L 89.98426 68.024701 
L 97.09506 73.567307 
L 104.20586 79.386371 
L 111.31666 85.452246 
L 118.42746 91.734193 
L 125.53826 98.200563 
L 132.64906 104.818988 
L 139.75986 111.556576 
L 146.87066 118.380108 
L 153.98146 125.256238 
L 161.09226 132.151688 
L 168.20306 139.03345 
L 175.31386 145.868977 
L 182.42466 152.626378 
L 189.53546 159.274603 
L 196.64626 165.783623 
L 203.75706 172.124606 
L 210.86786 178.27008 
L 217.97866 184.19409 
L 225.08946 189.872344 
L 232.20026 195.282348 
L 239.31106 200.403527 
L 246.42186 205.217338 
L 253.53266 209.707363 
L 260.64346 213.859393 
L 267.75426 217.661498 
L 274.86506 221.104076 
L 281.97586 224.179894 
L 289.08666 226.88411 
L 296.19746 229.214278 
L 303.30826 231.170341 
L 310.41906 232.754607 
L 317.52986 233.971709 
L 324.64066 234.828551 
L 331.75146 235.33424 
L 338.86226 235.5 
" clip-path="url(#p72ad8b3a5d)" style="fill: none; stroke-dasharray: 7.5,6; stroke-dashoffset: 0; stroke: #9467bd; stroke-width: 1.5"/>
    <defs>
     <path id="mf43087e27c" d="M 0 1.5 
C 0.397805 1.5 0.77937 1.341951 1.06066 1.06066 
C 1.341951 0.77937 1.5 0.397805 1.5 0 
C 1.5 -0.397805 1.341951 -0.77937 1.06066 -1.06066 
C 0.77937 -1.341951 0.397805 -1.5 0 -1.5 
C -0.397805 -1.5 -0.77937 -1.341951 -1.06066 -1.06066 
C -1.341951 -0.77937 -1.5 -0.397805 -1.5 0 
C -1.5 0.397805 -1.341951 0.77937 -1.06066 1.06066 
C -0.77937 1.341951 -0.397805 1.5 0 1.5 
z
" style="stroke: #9467bd"/>
    </defs>
    <g clip-path="url(#p72ad8b3a5d)">
     <use xlink:href="#mf43087e27c" x="61.54106" y="49.163628" style="fill: #9467bd; stroke: #9467bd"/>
     <use xlink:href="#mf43087e27c" x="68.65186" y="53.331951" style="fill: #9467bd; stroke: #9467bd"/>
     <use xlink:href="#mf43087e27c" x="75.76266" y="57.880902" style="fill: #9467bd; stroke: #9467bd"/>
     <use xlink:href="#mf43087e27c" x="82.87346" y="62.786924" style="fill: #9467bd; stroke: #9467bd"/>
     <use xlink:href="#mf43087e27c" x="89.98426" y="68.024701" style="fill: #9467bd; stroke: #9467bd"/>
     <use xlink:href="#mf43087e27c" x="97.09506" y="73.567307" style="fill: #9467bd; stroke: #9467bd"/>
     <use xlink:href="#mf43087e27c" x="104.20586" y="79.386371" style="fill: #9467bd; stroke: #9467bd"/>
     <use xlink:href="#mf43087e27c" x="111.31666" y="85.452246" style="fill: #9467bd; stroke: #9467bd"/>
     <use xlink:href="#mf43087e27c" x="118.42746" y="91.734193" style="fill: #9467bd; stroke: #9467bd"/>
     <use xlink:href="#mf43087e27c" x="125.53826" y="98.200563" style="fill: #9467bd; stroke: #9467bd"/>
     <use xlink:href="#mf43087e27c" x="132.64906" y="104.818988" style="fill: #9467bd; stroke: #9467bd"/>
     <use xlink:href="#mf43087e27c" x="139.75986" y="111.556576" style="fill: #9467bd; stroke: #9467bd"/>
     <use xlink:href="#mf43087e27c" x="146.87066" y="118.380108" style="fill: #9467bd; stroke: #9467bd"/>
     <use xlink:href="#mf43087e27c" x="153.98146" y="125.256238" style="fill: #9467bd; stroke: #9467bd"/>
     <use xlink:href="#mf43087e27c" x="161.09226" y="132.151688" style="fill: #9467bd; stroke: #9467bd"/>
     <use xlink:href="#mf43087e27c" x="168.20306" y="139.03345" style="fill: #9467bd; stroke: #9467bd"/>
     <use xlink:href="#mf43087e27c" x="175.31386" y="145.868977" style="fill: #9467bd; stroke: #9467bd"/>
     <use xlink:href="#mf43087e27c" x="182.42466" y="152.626378" style="fill: #9467bd; stroke: #9467bd"/>
     <use xlink:href="#mf43087e27c" x="189.53546" y="159.274603" style="fill: #9467bd; stroke: #9467bd"/>
     <use xlink:href="#mf43087e27c" x="196.64626" y="165.783623" style="fill: #9467bd; stroke: #9467bd"/>
     <use xlink:href="#mf43087e27c" x="203.75706" y="172.124606" style="fill: #9467bd; stroke: #9467bd"/>
     <use xlink:href="#mf43087e27c" x="210.86786" y="178.27008" style="fill: #9467bd; stroke: #9467bd"/>
     <use xlink:href="#mf43087e27c" x="217.97866" y="184.19409" style="fill: #9467bd; stroke: #9467bd"/>
     <use xlink:href="#mf43087e27c" x="225.08946" y="189.872344" style="fill: #9467bd; stroke: #9467bd"/>
     <use xlink:href="#mf43087e27c" x="232.20026" y="195.282348" style="fill: #9467bd; stroke: #9467bd"/>
     <use xlink:href="#mf43087e27c" x="239.31106" y="200.403527" style="fill: #9467bd; stroke: #9467bd"/>
     <use xlink:href="#mf43087e27c" x="246.42186" y="205.217338" style="fill: #9467bd; stroke: #9467bd"/>
     <use xlink:href="#mf43087e27c" x="253.53266" y="209.707363" style="fill: #9467bd; stroke: #9467bd"/>
     <use xlink:href="#mf43087e27c" x="260.64346" y="213.859393" style="fill: #9467bd; stroke: #9467bd"/>
     <use xlink:href="#mf43087e27c" x="267.75426" y="217.661498" style="fill: #9467bd; stroke: #9467bd"/>
     <use xlink:href="#mf43087e27c" x="274.86506" y="221.104076" style="fill: #9467bd; stroke: #9467bd"/>
     <use xlink:href="#mf43087e27c" x="281.97586" y="224.179894" style="fill: #9467bd; stroke: #9467bd"/>
     <use xlink:href="#mf43087e27c" x="289.08666" y="226.88411" style="fill: #9467bd; stroke: #9467bd"/>
     <use xlink:href="#mf43087e27c" x="296.19746" y="229.214278" style="fill: #9467bd; stroke: #9467bd"/>
     <use xlink:href="#mf43087e27c" x="303.30826" y="231.170341" style="fill: #9467bd; stroke: #9467bd"/>
     <use xlink:href="#mf43087e27c" x="310.41906" y="232.754607" style="fill: #9467bd; stroke: #9467bd"/>
     <use xlink:href="#mf43087e27c" x="317.52986" y="233.971709" style="fill: #9467bd; stroke: #9467bd"/>
     <use xlink:href="#mf43087e27c" x="324.64066" y="234.828551" style="fill: #9467bd; stroke: #9467bd"/>
     <use xlink:href="#mf43087e27c" x="331.75146" y="235.33424" style="fill: #9467bd; stroke: #9467bd"/>
     <use xlink:href="#mf43087e27c" x="338.86226" y="235.5" style="fill: #9467bd; stroke: #9467bd"/>
    </g>
   </g>
   <g id="line2d_18">
    <path d="M 61.54106 222.146831 
L 68.65186 221.129199 
L 75.76266 220.167455 
L 82.87346 219.272133 
L 89.98426 218.452922 
L 97.09506 217.718592 
L 104.20586 217.076936 
L 111.31666 216.534713 
L 118.42746 216.097598 
L 125.53826 215.770145 
L 132.64906 215.555753 
L 139.75986 215.45664 
L 146.87066 215.473832 
L 153.98146 215.60715 
L 161.09226 215.855216 
L 168.20306 216.215461 
L 175.31386 216.684141 
L 182.42466 217.25637 
L 189.53546 217.926145 
L 196.64626 218.686398 
L 203.75706 219.529042 
L 210.86786 220.445027 
L 217.97866 221.424408 
L 225.08946 222.456416 
L 232.20026 223.529529 
L 239.31106 224.631565 
L 246.42186 225.749759 
L 253.53266 226.870863 
L 260.64346 227.981236 
L 267.75426 229.066947 
L 274.86506 230.113875 
L 281.97586 231.107808 
L 289.08666 232.034557 
L 296.19746 232.880048 
L 303.30826 233.630439 
L 310.41906 234.272213 
L 317.52986 234.792287 
L 324.64066 235.178107 
L 331.75146 235.417747 
L 338.86226 235.5 
" clip-path="url(#p72ad8b3a5d)" style="fill: none; stroke-dasharray: 7.5,7.5; stroke-dashoffset: 0; stroke: #8c564b; stroke-width: 1.5"/>
    <defs>
     <path id="mcd2895314a" d="M 0 1.5 
C 0.397805 1.5 0.77937 1.341951 1.06066 1.06066 
C 1.341951 0.77937 1.5 0.397805 1.5 0 
C 1.5 -0.397805 1.341951 -0.77937 1.06066 -1.06066 
C 0.77937 -1.341951 0.397805 -1.5 0 -1.5 
C -0.397805 -1.5 -0.77937 -1.341951 -1.06066 -1.06066 
C -1.341951 -0.77937 -1.5 -0.397805 -1.5 0 
C -1.5 0.397805 -1.341951 0.77937 -1.06066 1.06066 
C -0.77937 1.341951 -0.397805 1.5 0 1.5 
z
" style="stroke: #8c564b"/>
    </defs>
    <g clip-path="url(#p72ad8b3a5d)">
     <use xlink:href="#mcd2895314a" x="61.54106" y="222.146831" style="fill: #8c564b; stroke: #8c564b"/>
     <use xlink:href="#mcd2895314a" x="68.65186" y="221.129199" style="fill: #8c564b; stroke: #8c564b"/>
     <use xlink:href="#mcd2895314a" x="75.76266" y="220.167455" style="fill: #8c564b; stroke: #8c564b"/>
     <use xlink:href="#mcd2895314a" x="82.87346" y="219.272133" style="fill: #8c564b; stroke: #8c564b"/>
     <use xlink:href="#mcd2895314a" x="89.98426" y="218.452922" style="fill: #8c564b; stroke: #8c564b"/>
     <use xlink:href="#mcd2895314a" x="97.09506" y="217.718592" style="fill: #8c564b; stroke: #8c564b"/>
     <use xlink:href="#mcd2895314a" x="104.20586" y="217.076936" style="fill: #8c564b; stroke: #8c564b"/>
     <use xlink:href="#mcd2895314a" x="111.31666" y="216.534713" style="fill: #8c564b; stroke: #8c564b"/>
     <use xlink:href="#mcd2895314a" x="118.42746" y="216.097598" style="fill: #8c564b; stroke: #8c564b"/>
     <use xlink:href="#mcd2895314a" x="125.53826" y="215.770145" style="fill: #8c564b; stroke: #8c564b"/>
     <use xlink:href="#mcd2895314a" x="132.64906" y="215.555753" style="fill: #8c564b; stroke: #8c564b"/>
     <use xlink:href="#mcd2895314a" x="139.75986" y="215.45664" style="fill: #8c564b; stroke: #8c564b"/>
     <use xlink:href="#mcd2895314a" x="146.87066" y="215.473832" style="fill: #8c564b; stroke: #8c564b"/>
     <use xlink:href="#mcd2895314a" x="153.98146" y="215.60715" style="fill: #8c564b; stroke: #8c564b"/>
     <use xlink:href="#mcd2895314a" x="161.09226" y="215.855216" style="fill: #8c564b; stroke: #8c564b"/>
     <use xlink:href="#mcd2895314a" x="168.20306" y="216.215461" style="fill: #8c564b; stroke: #8c564b"/>
     <use xlink:href="#mcd2895314a" x="175.31386" y="216.684141" style="fill: #8c564b; stroke: #8c564b"/>
     <use xlink:href="#mcd2895314a" x="182.42466" y="217.25637" style="fill: #8c564b; stroke: #8c564b"/>
     <use xlink:href="#mcd2895314a" x="189.53546" y="217.926145" style="fill: #8c564b; stroke: #8c564b"/>
     <use xlink:href="#mcd2895314a" x="196.64626" y="218.686398" style="fill: #8c564b; stroke: #8c564b"/>
     <use xlink:href="#mcd2895314a" x="203.75706" y="219.529042" style="fill: #8c564b; stroke: #8c564b"/>
     <use xlink:href="#mcd2895314a" x="210.86786" y="220.445027" style="fill: #8c564b; stroke: #8c564b"/>
     <use xlink:href="#mcd2895314a" x="217.97866" y="221.424408" style="fill: #8c564b; stroke: #8c564b"/>
     <use xlink:href="#mcd2895314a" x="225.08946" y="222.456416" style="fill: #8c564b; stroke: #8c564b"/>
     <use xlink:href="#mcd2895314a" x="232.20026" y="223.529529" style="fill: #8c564b; stroke: #8c564b"/>
     <use xlink:href="#mcd2895314a" x="239.31106" y="224.631565" style="fill: #8c564b; stroke: #8c564b"/>
     <use xlink:href="#mcd2895314a" x="246.42186" y="225.749759" style="fill: #8c564b; stroke: #8c564b"/>
     <use xlink:href="#mcd2895314a" x="253.53266" y="226.870863" style="fill: #8c564b; stroke: #8c564b"/>
     <use xlink:href="#mcd2895314a" x="260.64346" y="227.981236" style="fill: #8c564b; stroke: #8c564b"/>
     <use xlink:href="#mcd2895314a" x="267.75426" y="229.066947" style="fill: #8c564b; stroke: #8c564b"/>
     <use xlink:href="#mcd2895314a" x="274.86506" y="230.113875" style="fill: #8c564b; stroke: #8c564b"/>
     <use xlink:href="#mcd2895314a" x="281.97586" y="231.107808" style="fill: #8c564b; stroke: #8c564b"/>
     <use xlink:href="#mcd2895314a" x="289.08666" y="232.034557" style="fill: #8c564b; stroke: #8c564b"/>
     <use xlink:href="#mcd2895314a" x="296.19746" y="232.880048" style="fill: #8c564b; stroke: #8c564b"/>
     <use xlink:href="#mcd2895314a" x="303.30826" y="233.630439" style="fill: #8c564b; stroke: #8c564b"/>
     <use xlink:href="#mcd2895314a" x="310.41906" y="234.272213" style="fill: #8c564b; stroke: #8c564b"/>
     <use xlink:href="#mcd2895314a" x="317.52986" y="234.792287" style="fill: #8c564b; stroke: #8c564b"/>
     <use xlink:href="#mcd2895314a" x="324.64066" y="235.178107" style="fill: #8c564b; stroke: #8c564b"/>
     <use xlink:href="#mcd2895314a" x="331.75146" y="235.417747" style="fill: #8c564b; stroke: #8c564b"/>
     <use xlink:href="#mcd2895314a" x="338.86226" y="235.5" style="fill: #8c564b; stroke: #8c564b"/>
    </g>
   </g>
   <g id="line2d_19">
    <path d="M 61.54106 49.165438 
L 68.65186 53.333571 
L 75.76266 57.882331 
L 82.87346 62.788166 
L 89.98426 68.02576 
L 97.09506 73.568187 
L 104.20586 79.387076 
L 111.31666 85.452784 
L 118.42746 91.73457 
L 125.53826 98.200787 
L 132.64906 104.819066 
L 139.75986 111.556517 
L 146.87066 118.379922 
L 153.98146 125.255934 
L 161.09226 132.151277 
L 168.20306 139.032942 
L 175.31386 145.868383 
L 182.42466 152.625709 
L 189.53546 159.273869 
L 196.64626 165.782836 
L 203.75706 172.123777 
L 210.86786 178.26922 
L 217.97866 184.193209 
L 225.08946 189.871454 
L 232.20026 195.281458 
L 239.31106 200.402648 
L 246.42186 205.216479 
L 253.53266 209.706534 
L 260.64346 213.858602 
L 267.75426 217.660753 
L 274.86506 221.103384 
L 281.97586 224.179262 
L 289.08666 226.883543 
L 296.19746 229.213782 
L 303.30826 231.169921 
L 310.41906 232.754266 
L 317.52986 233.971451 
L 324.64066 234.828378 
L 331.75146 235.334153 
L 338.86226 235.5 
" clip-path="url(#p72ad8b3a5d)" style="fill: none; stroke-dasharray: 7.5,9; stroke-dashoffset: 0; stroke: #e377c2; stroke-width: 1.5"/>
    <defs>
     <path id="m2859552e9d" d="M 0 1.5 
C 0.397805 1.5 0.77937 1.341951 1.06066 1.06066 
C 1.341951 0.77937 1.5 0.397805 1.5 0 
C 1.5 -0.397805 1.341951 -0.77937 1.06066 -1.06066 
C 0.77937 -1.341951 0.397805 -1.5 0 -1.5 
C -0.397805 -1.5 -0.77937 -1.341951 -1.06066 -1.06066 
C -1.341951 -0.77937 -1.5 -0.397805 -1.5 0 
C -1.5 0.397805 -1.341951 0.77937 -1.06066 1.06066 
C -0.77937 1.341951 -0.397805 1.5 0 1.5 
z
" style="stroke: #e377c2"/>
    </defs>
    <g clip-path="url(#p72ad8b3a5d)">
     <use xlink:href="#m2859552e9d" x="61.54106" y="49.165438" style="fill: #e377c2; stroke: #e377c2"/>
     <use xlink:href="#m2859552e9d" x="68.65186" y="53.333571" style="fill: #e377c2; stroke: #e377c2"/>
     <use xlink:href="#m2859552e9d" x="75.76266" y="57.882331" style="fill: #e377c2; stroke: #e377c2"/>
     <use xlink:href="#m2859552e9d" x="82.87346" y="62.788166" style="fill: #e377c2; stroke: #e377c2"/>
     <use xlink:href="#m2859552e9d" x="89.98426" y="68.02576" style="fill: #e377c2; stroke: #e377c2"/>
     <use xlink:href="#m2859552e9d" x="97.09506" y="73.568187" style="fill: #e377c2; stroke: #e377c2"/>
     <use xlink:href="#m2859552e9d" x="104.20586" y="79.387076" style="fill: #e377c2; stroke: #e377c2"/>
     <use xlink:href="#m2859552e9d" x="111.31666" y="85.452784" style="fill: #e377c2; stroke: #e377c2"/>
     <use xlink:href="#m2859552e9d" x="118.42746" y="91.73457" style="fill: #e377c2; stroke: #e377c2"/>
     <use xlink:href="#m2859552e9d" x="125.53826" y="98.200787" style="fill: #e377c2; stroke: #e377c2"/>
     <use xlink:href="#m2859552e9d" x="132.64906" y="104.819066" style="fill: #e377c2; stroke: #e377c2"/>
     <use xlink:href="#m2859552e9d" x="139.75986" y="111.556517" style="fill: #e377c2; stroke: #e377c2"/>
     <use xlink:href="#m2859552e9d" x="146.87066" y="118.379922" style="fill: #e377c2; stroke: #e377c2"/>
     <use xlink:href="#m2859552e9d" x="153.98146" y="125.255934" style="fill: #e377c2; stroke: #e377c2"/>
     <use xlink:href="#m2859552e9d" x="161.09226" y="132.151277" style="fill: #e377c2; stroke: #e377c2"/>
     <use xlink:href="#m2859552e9d" x="168.20306" y="139.032942" style="fill: #e377c2; stroke: #e377c2"/>
     <use xlink:href="#m2859552e9d" x="175.31386" y="145.868383" style="fill: #e377c2; stroke: #e377c2"/>
     <use xlink:href="#m2859552e9d" x="182.42466" y="152.625709" style="fill: #e377c2; stroke: #e377c2"/>
     <use xlink:href="#m2859552e9d" x="189.53546" y="159.273869" style="fill: #e377c2; stroke: #e377c2"/>
     <use xlink:href="#m2859552e9d" x="196.64626" y="165.782836" style="fill: #e377c2; stroke: #e377c2"/>
     <use xlink:href="#m2859552e9d" x="203.75706" y="172.123777" style="fill: #e377c2; stroke: #e377c2"/>
     <use xlink:href="#m2859552e9d" x="210.86786" y="178.26922" style="fill: #e377c2; stroke: #e377c2"/>
     <use xlink:href="#m2859552e9d" x="217.97866" y="184.193209" style="fill: #e377c2; stroke: #e377c2"/>
     <use xlink:href="#m2859552e9d" x="225.08946" y="189.871454" style="fill: #e377c2; stroke: #e377c2"/>
     <use xlink:href="#m2859552e9d" x="232.20026" y="195.281458" style="fill: #e377c2; stroke: #e377c2"/>
     <use xlink:href="#m2859552e9d" x="239.31106" y="200.402648" style="fill: #e377c2; stroke: #e377c2"/>
     <use xlink:href="#m2859552e9d" x="246.42186" y="205.216479" style="fill: #e377c2; stroke: #e377c2"/>
     <use xlink:href="#m2859552e9d" x="253.53266" y="209.706534" style="fill: #e377c2; stroke: #e377c2"/>
     <use xlink:href="#m2859552e9d" x="260.64346" y="213.858602" style="fill: #e377c2; stroke: #e377c2"/>
     <use xlink:href="#m2859552e9d" x="267.75426" y="217.660753" style="fill: #e377c2; stroke: #e377c2"/>
     <use xlink:href="#m2859552e9d" x="274.86506" y="221.103384" style="fill: #e377c2; stroke: #e377c2"/>
     <use xlink:href="#m2859552e9d" x="281.97586" y="224.179262" style="fill: #e377c2; stroke: #e377c2"/>
     <use xlink:href="#m2859552e9d" x="289.08666" y="226.883543" style="fill: #e377c2; stroke: #e377c2"/>
     <use xlink:href="#m2859552e9d" x="296.19746" y="229.213782" style="fill: #e377c2; stroke: #e377c2"/>
     <use xlink:href="#m2859552e9d" x="303.30826" y="231.169921" style="fill: #e377c2; stroke: #e377c2"/>
     <use xlink:href="#m2859552e9d" x="310.41906" y="232.754266" style="fill: #e377c2; stroke: #e377c2"/>
     <use xlink:href="#m2859552e9d" x="317.52986" y="233.971451" style="fill: #e377c2; stroke: #e377c2"/>
     <use xlink:href="#m2859552e9d" x="324.64066" y="234.828378" style="fill: #e377c2; stroke: #e377c2"/>
     <use xlink:href="#m2859552e9d" x="331.75146" y="235.334153" style="fill: #e377c2; stroke: #e377c2"/>
     <use xlink:href="#m2859552e9d" x="338.86226" y="235.5" style="fill: #e377c2; stroke: #e377c2"/>
    </g>
   </g>
   <g id="line2d_20">
    <path d="M 61.54106 222.14696 
L 68.65186 218.722806 
L 75.76266 214.914669 
L 82.87346 210.731548 
L 89.98426 206.184928 
L 97.09506 201.288726 
L 104.20586 196.059233 
L 111.31666 190.515027 
L 118.42746 184.67688 
L 125.53826 178.567648 
L 132.64906 172.212147 
L 139.75986 165.637017 
L 146.87066 158.87057 
L 153.98146 151.942632 
L 161.09226 144.884371 
L 168.20306 137.72812 
L 175.31386 130.507183 
L 182.42466 123.255646 
L 189.53546 116.008176 
L 196.64626 108.799811 
L 203.75706 101.665759 
L 210.86786 94.641182 
L 217.97866 87.760992 
L 225.08946 81.059635 
L 232.20026 74.570891 
L 239.31106 68.327665 
L 246.42186 62.361791 
L 253.53266 56.70384 
L 260.64346 51.382932 
L 267.75426 46.426564 
L 274.86506 41.860436 
L 281.97586 37.708304 
L 289.08666 33.991825 
L 296.19746 30.730435 
L 303.30826 27.941223 
L 310.41906 25.638829 
L 317.52986 23.835358 
L 324.64066 22.540301 
L 331.75146 21.760478 
L 338.86226 21.5 
" clip-path="url(#p72ad8b3a5d)" style="fill: none; stroke-dasharray: 7.5,10.5; stroke-dashoffset: 0; stroke: #7f7f7f; stroke-width: 1.5"/>
    <defs>
     <path id="meb4d0a9218" d="M 0 1.5 
C 0.397805 1.5 0.77937 1.341951 1.06066 1.06066 
C 1.341951 0.77937 1.5 0.397805 1.5 0 
C 1.5 -0.397805 1.341951 -0.77937 1.06066 -1.06066 
C 0.77937 -1.341951 0.397805 -1.5 0 -1.5 
C -0.397805 -1.5 -0.77937 -1.341951 -1.06066 -1.06066 
C -1.341951 -0.77937 -1.5 -0.397805 -1.5 0 
C -1.5 0.397805 -1.341951 0.77937 -1.06066 1.06066 
C -0.77937 1.341951 -0.397805 1.5 0 1.5 
z
" style="stroke: #7f7f7f"/>
    </defs>
    <g clip-path="url(#p72ad8b3a5d)">
     <use xlink:href="#meb4d0a9218" x="61.54106" y="222.14696" style="fill: #7f7f7f; stroke: #7f7f7f"/>
     <use xlink:href="#meb4d0a9218" x="68.65186" y="218.722806" style="fill: #7f7f7f; stroke: #7f7f7f"/>
     <use xlink:href="#meb4d0a9218" x="75.76266" y="214.914669" style="fill: #7f7f7f; stroke: #7f7f7f"/>
     <use xlink:href="#meb4d0a9218" x="82.87346" y="210.731548" style="fill: #7f7f7f; stroke: #7f7f7f"/>
     <use xlink:href="#meb4d0a9218" x="89.98426" y="206.184928" style="fill: #7f7f7f; stroke: #7f7f7f"/>
     <use xlink:href="#meb4d0a9218" x="97.09506" y="201.288726" style="fill: #7f7f7f; stroke: #7f7f7f"/>
     <use xlink:href="#meb4d0a9218" x="104.20586" y="196.059233" style="fill: #7f7f7f; stroke: #7f7f7f"/>
     <use xlink:href="#meb4d0a9218" x="111.31666" y="190.515027" style="fill: #7f7f7f; stroke: #7f7f7f"/>
     <use xlink:href="#meb4d0a9218" x="118.42746" y="184.67688" style="fill: #7f7f7f; stroke: #7f7f7f"/>
     <use xlink:href="#meb4d0a9218" x="125.53826" y="178.567648" style="fill: #7f7f7f; stroke: #7f7f7f"/>
     <use xlink:href="#meb4d0a9218" x="132.64906" y="172.212147" style="fill: #7f7f7f; stroke: #7f7f7f"/>
     <use xlink:href="#meb4d0a9218" x="139.75986" y="165.637017" style="fill: #7f7f7f; stroke: #7f7f7f"/>
     <use xlink:href="#meb4d0a9218" x="146.87066" y="158.87057" style="fill: #7f7f7f; stroke: #7f7f7f"/>
     <use xlink:href="#meb4d0a9218" x="153.98146" y="151.942632" style="fill: #7f7f7f; stroke: #7f7f7f"/>
     <use xlink:href="#meb4d0a9218" x="161.09226" y="144.884371" style="fill: #7f7f7f; stroke: #7f7f7f"/>
     <use xlink:href="#meb4d0a9218" x="168.20306" y="137.72812" style="fill: #7f7f7f; stroke: #7f7f7f"/>
     <use xlink:href="#meb4d0a9218" x="175.31386" y="130.507183" style="fill: #7f7f7f; stroke: #7f7f7f"/>
     <use xlink:href="#meb4d0a9218" x="182.42466" y="123.255646" style="fill: #7f7f7f; stroke: #7f7f7f"/>
     <use xlink:href="#meb4d0a9218" x="189.53546" y="116.008176" style="fill: #7f7f7f; stroke: #7f7f7f"/>
     <use xlink:href="#meb4d0a9218" x="196.64626" y="108.799811" style="fill: #7f7f7f; stroke: #7f7f7f"/>
     <use xlink:href="#meb4d0a9218" x="203.75706" y="101.665759" style="fill: #7f7f7f; stroke: #7f7f7f"/>
     <use xlink:href="#meb4d0a9218" x="210.86786" y="94.641182" style="fill: #7f7f7f; stroke: #7f7f7f"/>
     <use xlink:href="#meb4d0a9218" x="217.97866" y="87.760992" style="fill: #7f7f7f; stroke: #7f7f7f"/>
     <use xlink:href="#meb4d0a9218" x="225.08946" y="81.059635" style="fill: #7f7f7f; stroke: #7f7f7f"/>
     <use xlink:href="#meb4d0a9218" x="232.20026" y="74.570891" style="fill: #7f7f7f; stroke: #7f7f7f"/>
     <use xlink:href="#meb4d0a9218" x="239.31106" y="68.327665" style="fill: #7f7f7f; stroke: #7f7f7f"/>
     <use xlink:href="#meb4d0a9218" x="246.42186" y="62.361791" style="fill: #7f7f7f; stroke: #7f7f7f"/>
     <use xlink:href="#meb4d0a9218" x="253.53266" y="56.70384" style="fill: #7f7f7f; stroke: #7f7f7f"/>
     <use xlink:href="#meb4d0a9218" x="260.64346" y="51.382932" style="fill: #7f7f7f; stroke: #7f7f7f"/>
     <use xlink:href="#meb4d0a9218" x="267.75426" y="46.426564" style="fill: #7f7f7f; stroke: #7f7f7f"/>
     <use xlink:href="#meb4d0a9218" x="274.86506" y="41.860436" style="fill: #7f7f7f; stroke: #7f7f7f"/>
     <use xlink:href="#meb4d0a9218" x="281.97586" y="37.708304" style="fill: #7f7f7f; stroke: #7f7f7f"/>
     <use xlink:href="#meb4d0a9218" x="289.08666" y="33.991825" style="fill: #7f7f7f; stroke: #7f7f7f"/>
     <use xlink:href="#meb4d0a9218" x="296.19746" y="30.730435" style="fill: #7f7f7f; stroke: #7f7f7f"/>
     <use xlink:href="#meb4d0a9218" x="303.30826" y="27.941223" style="fill: #7f7f7f; stroke: #7f7f7f"/>
     <use xlink:href="#meb4d0a9218" x="310.41906" y="25.638829" style="fill: #7f7f7f; stroke: #7f7f7f"/>
     <use xlink:href="#meb4d0a9218" x="317.52986" y="23.835358" style="fill: #7f7f7f; stroke: #7f7f7f"/>
     <use xlink:href="#meb4d0a9218" x="324.64066" y="22.540301" style="fill: #7f7f7f; stroke: #7f7f7f"/>
     <use xlink:href="#meb4d0a9218" x="331.75146" y="21.760478" style="fill: #7f7f7f; stroke: #7f7f7f"/>
     <use xlink:href="#meb4d0a9218" x="338.86226" y="21.5" style="fill: #7f7f7f; stroke: #7f7f7f"/>
    </g>
   </g>
   <g id="patch_3">
    <path d="M 47.675 246.2 
L 47.675 10.8 
" style="fill: none; stroke: #000000; stroke-width: 0.8; stroke-linejoin: miter; stroke-linecap: square"/>
   </g>
   <g id="patch_4">
    <path d="M 352.72832 246.2 
L 352.72832 10.8 
" style="fill: none; stroke: #000000; stroke-width: 0.8; stroke-linejoin: miter; stroke-linecap: square"/>
   </g>
   <g id="patch_5">
    <path d="M 47.675 246.2 
L 352.72832 246.2 
" style="fill: none; stroke: #000000; stroke-width: 0.8; stroke-linejoin: miter; stroke-linecap: square"/>
   </g>
   <g id="patch_6">
    <path d="M 47.675 10.8 
L 352.72832 10.8 
" style="fill: none; stroke: #000000; stroke-width: 0.8; stroke-linejoin: miter; stroke-linecap: square"/>
   </g>
   <g id="legend_1">
    <g id="patch_7">
     <path d="M 359.72832 139.6 
L 418.12832 139.6 
Q 420.12832 139.6 420.12832 137.6 
L 420.12832 17.8 
Q 420.12832 15.8 418.12832 15.8 
L 359.72832 15.8 
Q 357.72832 15.8 357.72832 17.8 
L 357.72832 137.6 
Q 357.72832 139.6 359.72832 139.6 
z
" style="fill: #ffffff; opacity: 0.8; stroke: #cccccc; stroke-linejoin: miter"/>
    </g>
    <g id="line2d_21">
     <path d="M 361.72832 24 
L 371.72832 24 
L 381.72832 24 
" style="fill: none; stroke-dasharray: 7.5,0; stroke-dashoffset: 0; stroke: #1f77b4; stroke-width: 1.5"/>
     <g>
      <use xlink:href="#mf7486d031c" x="371.72832" y="24" style="fill: #1f77b4; stroke: #1f77b4"/>
     </g>
    </g>
    <g id="text_15">
     <!-- $|$000$\rangle$ -->
     <g transform="translate(389.72832 27.5)scale(0.1 -0.1)">
      <defs>
       <path id="DejaVuSans-7c" d="M 1344 4891 
L 1344 -1509 
L 813 -1509 
L 813 4891 
L 1344 4891 
z
" transform="scale(0.015625)"/>
       <path id="DejaVuSans-27e9" d="M 1925 2006 
L 1044 -844 
L 513 -844 
L 1394 2006 
L 513 4856 
L 1044 4856 
L 1925 2006 
z
" transform="scale(0.015625)"/>
      </defs>
      <use xlink:href="#DejaVuSans-7c" transform="translate(0 0.578125)"/>
      <use xlink:href="#DejaVuSans-30" transform="translate(33.691406 0.578125)"/>
      <use xlink:href="#DejaVuSans-30" transform="translate(97.314453 0.578125)"/>
      <use xlink:href="#DejaVuSans-30" transform="translate(160.9375 0.578125)"/>
      <use xlink:href="#DejaVuSans-27e9" transform="translate(224.560547 0.578125)"/>
     </g>
    </g>
    <g id="line2d_22">
     <path d="M 361.72832 39.1 
L 371.72832 39.1 
L 381.72832 39.1 
" style="fill: none; stroke-dasharray: 7.5,1.5; stroke-dashoffset: 0; stroke: #ff7f0e; stroke-width: 1.5"/>
     <g>
      <use xlink:href="#mce81a87c47" x="371.72832" y="39.1" style="fill: #ff7f0e; stroke: #ff7f0e"/>
     </g>
    </g>
    <g id="text_16">
     <!-- $|$001$\rangle$ -->
     <g transform="translate(389.72832 42.6)scale(0.1 -0.1)">
      <use xlink:href="#DejaVuSans-7c" transform="translate(0 0.578125)"/>
      <use xlink:href="#DejaVuSans-30" transform="translate(33.691406 0.578125)"/>
      <use xlink:href="#DejaVuSans-30" transform="translate(97.314453 0.578125)"/>
      <use xlink:href="#DejaVuSans-31" transform="translate(160.9375 0.578125)"/>
      <use xlink:href="#DejaVuSans-27e9" transform="translate(224.560547 0.578125)"/>
     </g>
    </g>
    <g id="line2d_23">
     <path d="M 361.72832 54.2 
L 371.72832 54.2 
L 381.72832 54.2 
" style="fill: none; stroke-dasharray: 7.5,3; stroke-dashoffset: 0; stroke: #2ca02c; stroke-width: 1.5"/>
     <g>
      <use xlink:href="#mb0a562e2eb" x="371.72832" y="54.2" style="fill: #2ca02c; stroke: #2ca02c"/>
     </g>
    </g>
    <g id="text_17">
     <!-- $|$010$\rangle$ -->
     <g transform="translate(389.72832 57.7)scale(0.1 -0.1)">
      <use xlink:href="#DejaVuSans-7c" transform="translate(0 0.578125)"/>
      <use xlink:href="#DejaVuSans-30" transform="translate(33.691406 0.578125)"/>
      <use xlink:href="#DejaVuSans-31" transform="translate(97.314453 0.578125)"/>
      <use xlink:href="#DejaVuSans-30" transform="translate(160.9375 0.578125)"/>
      <use xlink:href="#DejaVuSans-27e9" transform="translate(224.560547 0.578125)"/>
     </g>
    </g>
    <g id="line2d_24">
     <path d="M 361.72832 69.3 
L 371.72832 69.3 
L 381.72832 69.3 
" style="fill: none; stroke-dasharray: 7.5,4.5; stroke-dashoffset: 0; stroke: #d62728; stroke-width: 1.5"/>
     <g>
      <use xlink:href="#m9893fc4099" x="371.72832" y="69.3" style="fill: #d62728; stroke: #d62728"/>
     </g>
    </g>
    <g id="text_18">
     <!-- $|$011$\rangle$ -->
     <g transform="translate(389.72832 72.8)scale(0.1 -0.1)">
      <use xlink:href="#DejaVuSans-7c" transform="translate(0 0.578125)"/>
      <use xlink:href="#DejaVuSans-30" transform="translate(33.691406 0.578125)"/>
      <use xlink:href="#DejaVuSans-31" transform="translate(97.314453 0.578125)"/>
      <use xlink:href="#DejaVuSans-31" transform="translate(160.9375 0.578125)"/>
      <use xlink:href="#DejaVuSans-27e9" transform="translate(224.560547 0.578125)"/>
     </g>
    </g>
    <g id="line2d_25">
     <path d="M 361.72832 84.4 
L 371.72832 84.4 
L 381.72832 84.4 
" style="fill: none; stroke-dasharray: 7.5,6; stroke-dashoffset: 0; stroke: #9467bd; stroke-width: 1.5"/>
     <g>
      <use xlink:href="#mf43087e27c" x="371.72832" y="84.4" style="fill: #9467bd; stroke: #9467bd"/>
     </g>
    </g>
    <g id="text_19">
     <!-- $|$100$\rangle$ -->
     <g transform="translate(389.72832 87.9)scale(0.1 -0.1)">
      <use xlink:href="#DejaVuSans-7c" transform="translate(0 0.578125)"/>
      <use xlink:href="#DejaVuSans-31" transform="translate(33.691406 0.578125)"/>
      <use xlink:href="#DejaVuSans-30" transform="translate(97.314453 0.578125)"/>
      <use xlink:href="#DejaVuSans-30" transform="translate(160.9375 0.578125)"/>
      <use xlink:href="#DejaVuSans-27e9" transform="translate(224.560547 0.578125)"/>
     </g>
    </g>
    <g id="line2d_26">
     <path d="M 361.72832 99.5 
L 371.72832 99.5 
L 381.72832 99.5 
" style="fill: none; stroke-dasharray: 7.5,7.5; stroke-dashoffset: 0; stroke: #8c564b; stroke-width: 1.5"/>
     <g>
      <use xlink:href="#mcd2895314a" x="371.72832" y="99.5" style="fill: #8c564b; stroke: #8c564b"/>
     </g>
    </g>
    <g id="text_20">
     <!-- $|$101$\rangle$ -->
     <g transform="translate(389.72832 103)scale(0.1 -0.1)">
      <use xlink:href="#DejaVuSans-7c" transform="translate(0 0.578125)"/>
      <use xlink:href="#DejaVuSans-31" transform="translate(33.691406 0.578125)"/>
      <use xlink:href="#DejaVuSans-30" transform="translate(97.314453 0.578125)"/>
      <use xlink:href="#DejaVuSans-31" transform="translate(160.9375 0.578125)"/>
      <use xlink:href="#DejaVuSans-27e9" transform="translate(224.560547 0.578125)"/>
     </g>
    </g>
    <g id="line2d_27">
     <path d="M 361.72832 114.6 
L 371.72832 114.6 
L 381.72832 114.6 
" style="fill: none; stroke-dasharray: 7.5,9; stroke-dashoffset: 0; stroke: #e377c2; stroke-width: 1.5"/>
     <g>
      <use xlink:href="#m2859552e9d" x="371.72832" y="114.6" style="fill: #e377c2; stroke: #e377c2"/>
     </g>
    </g>
    <g id="text_21">
     <!-- $|$110$\rangle$ -->
     <g transform="translate(389.72832 118.1)scale(0.1 -0.1)">
      <use xlink:href="#DejaVuSans-7c" transform="translate(0 0.578125)"/>
      <use xlink:href="#DejaVuSans-31" transform="translate(33.691406 0.578125)"/>
      <use xlink:href="#DejaVuSans-31" transform="translate(97.314453 0.578125)"/>
      <use xlink:href="#DejaVuSans-30" transform="translate(160.9375 0.578125)"/>
      <use xlink:href="#DejaVuSans-27e9" transform="translate(224.560547 0.578125)"/>
     </g>
    </g>
    <g id="line2d_28">
     <path d="M 361.72832 129.7 
L 371.72832 129.7 
L 381.72832 129.7 
" style="fill: none; stroke-dasharray: 7.5,10.5; stroke-dashoffset: 0; stroke: #7f7f7f; stroke-width: 1.5"/>
     <g>
      <use xlink:href="#meb4d0a9218" x="371.72832" y="129.7" style="fill: #7f7f7f; stroke: #7f7f7f"/>
     </g>
    </g>
    <g id="text_22">
     <!-- $|$111$\rangle$ -->
     <g transform="translate(389.72832 133.2)scale(0.1 -0.1)">
      <use xlink:href="#DejaVuSans-7c" transform="translate(0 0.578125)"/>
      <use xlink:href="#DejaVuSans-31" transform="translate(33.691406 0.578125)"/>
      <use xlink:href="#DejaVuSans-31" transform="translate(97.314453 0.578125)"/>
      <use xlink:href="#DejaVuSans-31" transform="translate(160.9375 0.578125)"/>
      <use xlink:href="#DejaVuSans-27e9" transform="translate(224.560547 0.578125)"/>
     </g>
    </g>
   </g>
  </g>
 </g>
 <defs>
  <clipPath id="p72ad8b3a5d">
   <rect x="47.675" y="10.8" width="305.05332" height="235.4"/>
  </clipPath>
 </defs>
</svg>
