<?xml version="1.0" encoding="utf-8" standalone="no"?>
<!DOCTYPE svg PUBLIC "-//W3C//DTD SVG 1.1//EN"
  "http://www.w3.org/Graphics/SVG/1.1/DTD/svg11.dtd">
<svg xmlns:xlink="http://www.w3.org/1999/xlink" width="432pt" height="288pt" viewBox="0 0 432 288" xmlns="http://www.w3.org/2000/svg" version="1.1">
 <metadata>
  <rdf:RDF xmlns:dc="http://purl.org/dc/elements/1.1/" xmlns:cc="http://creativecommons.org/ns#" xmlns:rdf="http://www.w3.org/1999/02/22-rdf-syntax-ns#">
   <cc:Work>
    <dc:type rdf:resource="http://purl.org/dc/dcmitype/StillImage"/>
    <dc:date>2022-11-21T12:49:21.011210</dc:date>
    <dc:format>image/svg+xml</dc:format>
    <dc:creator>
     <cc:Agent>
      <dc:title>Matplotlib v3.5.2, https://matplotlib.org/</dc:title>
     </cc:Agent>
    </dc:creator>
   </cc:Work>
  </rdf:RDF>
 </metadata>
 <defs>
  <style type="text/css">*{stroke-linejoin: round; stroke-linecap: butt}</style>
 </defs>
 <g id="figure_1">
  <g id="patch_1">
   <path d="M 0 288 
L 432 288 
L 432 0 
L 0 0 
L 0 288 
z
" style="fill: none"/>
  </g>
  <g id="patch_2">
   <path d="M 112.68 252 
L 330.12 252 
L 330.12 34.56 
L 112.68 34.56 
L 112.68 252 
z
" style="fill: none"/>
  </g>
  <g id="pane3d_1">
   <g id="patch_3">
    <path d="M 126.593097 192.163605 
L 216.456602 154.596489 
L 216.23029 62.283418 
L 123.540546 92.93358 
" style="fill: none; opacity: 0"/>
   </g>
  </g>
  <g id="pane3d_2">
   <g id="patch_4">
    <path d="M 216.456602 154.596489 
L 320.76512 185.693817 
L 323.734621 87.644342 
L 216.23029 62.283418 
" style="fill: none; opacity: 0"/>
   </g>
  </g>
  <g id="pane3d_3">
   <g id="patch_5">
    <path d="M 126.593097 192.163605 
L 233.546625 228.991271 
L 320.76512 185.693817 
L 216.456602 154.596489 
" style="fill: none; opacity: 0"/>
   </g>
  </g>
  <g id="axis3d_1">
   <g id="line2d_1">
    <path d="M 126.593097 192.163605 
L 233.546625 228.991271 
" style="fill: none; stroke: #000000; stroke-width: 0.8; stroke-linecap: square"/>
   </g>
   <g id="text_1">
    <!-- $c_1$ -->
    <g transform="translate(162.185535 226.078789)rotate(-340.999706)scale(0.1 -0.1)">
     <defs>
      <path id="DejaVuSans-Oblique-63" d="M 3431 3366 
L 3316 2797 
Q 3109 2947 2876 3022 
Q 2644 3097 2394 3097 
Q 2119 3097 1870 3000 
Q 1622 2903 1453 2725 
Q 1184 2453 1037 2087 
Q 891 1722 891 1331 
Q 891 859 1127 628 
Q 1363 397 1844 397 
Q 2081 397 2348 469 
Q 2616 541 2906 684 
L 2797 116 
Q 2547 13 2283 -39 
Q 2019 -91 1741 -91 
Q 1044 -91 669 257 
Q 294 606 294 1253 
Q 294 1797 489 2255 
Q 684 2713 1069 3078 
Q 1331 3328 1684 3456 
Q 2038 3584 2456 3584 
Q 2700 3584 2940 3529 
Q 3181 3475 3431 3366 
z
" transform="scale(0.015625)"/>
      <path id="DejaVuSans-31" d="M 794 531 
L 1825 531 
L 1825 4091 
L 703 3866 
L 703 4441 
L 1819 4666 
L 2450 4666 
L 2450 531 
L 3481 531 
L 3481 0 
L 794 0 
L 794 531 
z
" transform="scale(0.015625)"/>
     </defs>
     <use xlink:href="#DejaVuSans-Oblique-63"/>
     <use xlink:href="#DejaVuSans-31" transform="translate(54.980469 -16.40625)scale(0.7)"/>
    </g>
   </g>
   <g id="xtick_1">
    <g id="line2d_2">
     <path d="M 129.3617 192.521824 
L 127.020814 193.503523 
" style="fill: none; stroke: #000000; stroke-width: 0.8; stroke-linecap: square"/>
    </g>
    <g id="text_2">
     <!-- 0 -->
     <g transform="translate(123.729553 202.872669)scale(0.1 -0.1)">
      <defs>
       <path id="DejaVuSans-30" d="M 2034 4250 
Q 1547 4250 1301 3770 
Q 1056 3291 1056 2328 
Q 1056 1369 1301 889 
Q 1547 409 2034 409 
Q 2525 409 2770 889 
Q 3016 1369 3016 2328 
Q 3016 3291 2770 3770 
Q 2525 4250 2034 4250 
z
M 2034 4750 
Q 2819 4750 3233 4129 
Q 3647 3509 3647 2328 
Q 3647 1150 3233 529 
Q 2819 -91 2034 -91 
Q 1250 -91 836 529 
Q 422 1150 422 2328 
Q 422 3509 836 4129 
Q 1250 4750 2034 4750 
z
" transform="scale(0.015625)"/>
      </defs>
      <use xlink:href="#DejaVuSans-30"/>
     </g>
    </g>
   </g>
   <g id="xtick_2">
    <g id="line2d_3">
     <path d="M 153.681855 200.885694 
L 151.350703 201.901941 
" style="fill: none; stroke: #000000; stroke-width: 0.8; stroke-linecap: square"/>
    </g>
   </g>
   <g id="xtick_3">
    <g id="line2d_4">
     <path d="M 178.864633 209.546226 
L 176.545389 210.598877 
" style="fill: none; stroke: #000000; stroke-width: 0.8; stroke-linecap: square"/>
    </g>
    <g id="text_3">
     <!-- $\pi/2$ -->
     <g transform="translate(168.711228 220.02395)scale(0.1 -0.1)">
      <defs>
       <path id="DejaVuSans-Oblique-3c0" d="M 584 3500 
L 3938 3500 
L 3825 2925 
L 3384 2925 
L 2966 775 
Q 2922 550 2981 450 
Q 3038 353 3209 353 
Q 3256 353 3325 363 
Q 3397 369 3419 372 
L 3338 -44 
Q 3222 -84 3103 -103 
Q 2981 -122 2866 -122 
Q 2491 -122 2388 81 
Q 2284 288 2391 838 
L 2797 2925 
L 1506 2925 
L 938 0 
L 350 0 
L 919 2925 
L 472 2925 
L 584 3500 
z
" transform="scale(0.015625)"/>
       <path id="DejaVuSans-2f" d="M 1625 4666 
L 2156 4666 
L 531 -594 
L 0 -594 
L 1625 4666 
z
" transform="scale(0.015625)"/>
       <path id="DejaVuSans-32" d="M 1228 531 
L 3431 531 
L 3431 0 
L 469 0 
L 469 531 
Q 828 903 1448 1529 
Q 2069 2156 2228 2338 
Q 2531 2678 2651 2914 
Q 2772 3150 2772 3378 
Q 2772 3750 2511 3984 
Q 2250 4219 1831 4219 
Q 1534 4219 1204 4116 
Q 875 4013 500 3803 
L 500 4441 
Q 881 4594 1212 4672 
Q 1544 4750 1819 4750 
Q 2544 4750 2975 4387 
Q 3406 4025 3406 3419 
Q 3406 3131 3298 2873 
Q 3191 2616 2906 2266 
Q 2828 2175 2409 1742 
Q 1991 1309 1228 531 
z
" transform="scale(0.015625)"/>
      </defs>
      <use xlink:href="#DejaVuSans-Oblique-3c0" transform="translate(0 0.78125)"/>
      <use xlink:href="#DejaVuSans-2f" transform="translate(60.205078 0.78125)"/>
      <use xlink:href="#DejaVuSans-32" transform="translate(90.271484 0.78125)"/>
     </g>
    </g>
   </g>
   <g id="xtick_4">
    <g id="line2d_5">
     <path d="M 204.956758 218.519489 
L 202.651814 219.610537 
" style="fill: none; stroke: #000000; stroke-width: 0.8; stroke-linecap: square"/>
    </g>
   </g>
   <g id="xtick_5">
    <g id="line2d_6">
     <path d="M 232.008391 227.822734 
L 229.72038 228.954317 
" style="fill: none; stroke: #000000; stroke-width: 0.8; stroke-linecap: square"/>
    </g>
    <g id="text_4">
     <!-- $\pi$ -->
     <g transform="translate(226.508744 238.438902)scale(0.1 -0.1)">
      <use xlink:href="#DejaVuSans-Oblique-3c0" transform="translate(0 0.3125)"/>
     </g>
    </g>
   </g>
  </g>
  <g id="axis3d_2">
   <g id="line2d_7">
    <path d="M 320.76512 185.693817 
L 233.546625 228.991271 
" style="fill: none; stroke: #000000; stroke-width: 0.8; stroke-linecap: square"/>
   </g>
   <g id="text_5">
    <!-- $c_2$ -->
    <g transform="translate(282.604154 219.516762)rotate(-26.400958)scale(0.1 -0.1)">
     <use xlink:href="#DejaVuSans-Oblique-63"/>
     <use xlink:href="#DejaVuSans-32" transform="translate(54.980469 -16.40625)scale(0.7)"/>
    </g>
   </g>
   <g id="xtick_6">
    <g id="line2d_8">
     <path d="M 234.526897 227.731913 
L 237.291026 228.680754 
" style="fill: none; stroke: #000000; stroke-width: 0.8; stroke-linecap: square"/>
    </g>
    <g id="text_6">
     <!-- 0 -->
     <g transform="translate(239.506083 235.822219)scale(0.1 -0.1)">
      <use xlink:href="#DejaVuSans-30"/>
     </g>
    </g>
   </g>
   <g id="xtick_7">
    <g id="line2d_9">
     <path d="M 252.429731 218.857807 
L 255.178565 219.774212 
" style="fill: none; stroke: #000000; stroke-width: 0.8; stroke-linecap: square"/>
    </g>
   </g>
   <g id="xtick_8">
    <g id="line2d_10">
     <path d="M 269.726251 210.284239 
L 272.459229 211.169844 
" style="fill: none; stroke: #000000; stroke-width: 0.8; stroke-linecap: square"/>
    </g>
   </g>
   <g id="xtick_9">
    <g id="line2d_11">
     <path d="M 286.446744 201.996197 
L 289.163389 202.852529 
" style="fill: none; stroke: #000000; stroke-width: 0.8; stroke-linecap: square"/>
    </g>
   </g>
   <g id="xtick_10">
    <g id="line2d_12">
     <path d="M 302.619516 193.979651 
L 305.31942 194.808137 
" style="fill: none; stroke: #000000; stroke-width: 0.8; stroke-linecap: square"/>
    </g>
   </g>
   <g id="xtick_11">
    <g id="line2d_13">
     <path d="M 318.271044 186.221475 
L 320.953866 187.023452 
" style="fill: none; stroke: #000000; stroke-width: 0.8; stroke-linecap: square"/>
    </g>
    <g id="text_7">
     <!-- $\pi/2$ -->
     <g transform="translate(323.015598 193.798428)scale(0.1 -0.1)">
      <use xlink:href="#DejaVuSans-Oblique-3c0" transform="translate(0 0.78125)"/>
      <use xlink:href="#DejaVuSans-2f" transform="translate(60.205078 0.78125)"/>
      <use xlink:href="#DejaVuSans-32" transform="translate(90.271484 0.78125)"/>
     </g>
    </g>
   </g>
  </g>
  <g id="axis3d_3">
   <g id="line2d_14">
    <path d="M 126.593097 192.163605 
L 123.540546 92.93358 
" style="fill: none; stroke: #000000; stroke-width: 0.8; stroke-linecap: square"/>
   </g>
   <g id="text_8">
    <!-- $c_3$ -->
    <g transform="translate(115.484798 148.831403)rotate(-90)scale(0.1 -0.1)">
     <defs>
      <path id="DejaVuSans-33" d="M 2597 2516 
Q 3050 2419 3304 2112 
Q 3559 1806 3559 1356 
Q 3559 666 3084 287 
Q 2609 -91 1734 -91 
Q 1441 -91 1130 -33 
Q 819 25 488 141 
L 488 750 
Q 750 597 1062 519 
Q 1375 441 1716 441 
Q 2309 441 2620 675 
Q 2931 909 2931 1356 
Q 2931 1769 2642 2001 
Q 2353 2234 1838 2234 
L 1294 2234 
L 1294 2753 
L 1863 2753 
Q 2328 2753 2575 2939 
Q 2822 3125 2822 3475 
Q 2822 3834 2567 4026 
Q 2313 4219 1838 4219 
Q 1578 4219 1281 4162 
Q 984 4106 628 3988 
L 628 4550 
Q 988 4650 1302 4700 
Q 1616 4750 1894 4750 
Q 2613 4750 3031 4423 
Q 3450 4097 3450 3541 
Q 3450 3153 3228 2886 
Q 3006 2619 2597 2516 
z
" transform="scale(0.015625)"/>
     </defs>
     <use xlink:href="#DejaVuSans-Oblique-63"/>
     <use xlink:href="#DejaVuSans-33" transform="translate(54.980469 -16.40625)scale(0.7)"/>
    </g>
   </g>
   <g id="xtick_12">
    <g id="line2d_15">
     <path d="M 127.329374 190.510774 
L 124.945551 189.693205 
" style="fill: none; stroke: #000000; stroke-width: 0.8; stroke-linecap: square"/>
    </g>
    <g id="text_9">
     <!-- 0 -->
     <g transform="translate(113.211802 193.228274)scale(0.1 -0.1)">
      <use xlink:href="#DejaVuSans-30"/>
     </g>
    </g>
   </g>
   <g id="xtick_13">
    <g id="line2d_16">
     <path d="M 126.761344 171.895841 
L 124.364563 171.105521 
" style="fill: none; stroke: #000000; stroke-width: 0.8; stroke-linecap: square"/>
    </g>
   </g>
   <g id="xtick_14">
    <g id="line2d_17">
     <path d="M 126.186622 153.061628 
L 123.776743 152.299256 
" style="fill: none; stroke: #000000; stroke-width: 0.8; stroke-linecap: square"/>
    </g>
   </g>
   <g id="xtick_15">
    <g id="line2d_18">
     <path d="M 125.605089 134.004235 
L 123.18197 133.270531 
" style="fill: none; stroke: #000000; stroke-width: 0.8; stroke-linecap: square"/>
    </g>
   </g>
   <g id="xtick_16">
    <g id="line2d_19">
     <path d="M 125.016625 114.719674 
L 122.58012 114.015376 
" style="fill: none; stroke: #000000; stroke-width: 0.8; stroke-linecap: square"/>
    </g>
   </g>
   <g id="xtick_17">
    <g id="line2d_20">
     <path d="M 124.421104 95.203856 
L 121.971065 94.529724 
" style="fill: none; stroke: #000000; stroke-width: 0.8; stroke-linecap: square"/>
    </g>
    <g id="text_10">
     <!-- $\pi/2$ -->
     <g transform="translate(101.033824 97.928701)scale(0.1 -0.1)">
      <use xlink:href="#DejaVuSans-Oblique-3c0" transform="translate(0 0.78125)"/>
      <use xlink:href="#DejaVuSans-2f" transform="translate(60.205078 0.78125)"/>
      <use xlink:href="#DejaVuSans-32" transform="translate(90.271484 0.78125)"/>
     </g>
    </g>
   </g>
  </g>
  <g id="axes_1">
   <g id="line2d_21">
    <path d="M 130.471726 190.107257 
L 265.228534 168.507698 
" clip-path="url(#pc1a0d08ef2)" style="fill: none; stroke-dasharray: 1.85,0.8; stroke-dashoffset: 0; stroke: #000000; stroke-width: 0.5"/>
   </g>
   <g id="line2d_22">
    <path d="M 250.130328 195.201393 
L 179.992779 207.03875 
" clip-path="url(#pc1a0d08ef2)" style="fill: none; stroke-dasharray: 1.85,0.8; stroke-dashoffset: 0; stroke: #000000; stroke-width: 0.5"/>
   </g>
   <g id="line2d_23">
    <path d="M 199.409119 179.057594 
L 179.992779 207.03875 
" clip-path="url(#pc1a0d08ef2)" style="fill: none; stroke-dasharray: 1.85,0.8; stroke-dashoffset: 0; stroke: #000000; stroke-width: 0.5"/>
   </g>
   <g id="line2d_24">
    <path d="M 199.049905 133.084109 
L 199.409119 179.057594 
" clip-path="url(#pc1a0d08ef2)" style="fill: none; stroke-dasharray: 1.85,0.8; stroke-dashoffset: 0; stroke: #000000; stroke-width: 0.5"/>
   </g>
   <g id="line2d_25">
    <path d="M 199.049905 133.084109 
L 265.228534 168.507698 
" clip-path="url(#pc1a0d08ef2)" style="fill: none; stroke-dasharray: 1.85,0.8; stroke-dashoffset: 0; stroke: #000000; stroke-width: 0.5"/>
   </g>
   <g id="line2d_26">
    <path d="M 130.471726 190.107257 
L 233.154371 225.214961 
" clip-path="url(#pc1a0d08ef2)" style="fill: none; stroke: #000000; stroke-width: 0.5; stroke-linecap: square"/>
   </g>
   <g id="line2d_27">
    <path d="M 233.154371 225.214961 
L 265.228534 168.507698 
" clip-path="url(#pc1a0d08ef2)" style="fill: none; stroke: #000000; stroke-width: 0.5; stroke-linecap: square"/>
   </g>
   <g id="line2d_28">
    <path d="M 265.228534 168.507698 
L 266.396351 77.085153 
" clip-path="url(#pc1a0d08ef2)" style="fill: none; stroke: #000000; stroke-width: 0.5; stroke-linecap: square"/>
   </g>
   <g id="line2d_29">
    <path d="M 266.396351 77.085153 
L 233.154371 225.214961 
" clip-path="url(#pc1a0d08ef2)" style="fill: none; stroke: #000000; stroke-width: 0.5; stroke-linecap: square"/>
   </g>
   <g id="line2d_30">
    <path d="M 266.396351 77.085153 
L 130.471726 190.107257 
" clip-path="url(#pc1a0d08ef2)" style="fill: none; stroke: #000000; stroke-width: 0.5; stroke-linecap: square"/>
   </g>
   <g id="line2d_31">
    <path d="M 179.992779 207.03875 
L 250.515026 147.854031 
" clip-path="url(#pc1a0d08ef2)" style="fill: none; stroke: #000000; stroke-width: 0.5; stroke-linecap: square"/>
   </g>
   <g id="line2d_32">
    <path d="M 179.992779 207.03875 
L 199.049905 133.084109 
" clip-path="url(#pc1a0d08ef2)" style="fill: none; stroke: #000000; stroke-width: 0.5; stroke-linecap: square"/>
   </g>
   <g id="line2d_33">
    <path d="M 250.515026 147.854031 
L 199.049905 133.084109 
" clip-path="url(#pc1a0d08ef2)" style="fill: none; stroke: #000000; stroke-width: 0.5; stroke-linecap: square"/>
   </g>
   <g id="line2d_34">
    <path d="M 250.515026 147.854031 
L 265.228534 168.507698 
" clip-path="url(#pc1a0d08ef2)" style="fill: none; stroke: #000000; stroke-width: 0.5; stroke-linecap: square"/>
   </g>
   <g id="line2d_35">
    <path d="M 250.515026 147.854031 
L 250.130328 195.201393 
" clip-path="url(#pc1a0d08ef2)" style="fill: none; stroke: #000000; stroke-width: 0.5; stroke-linecap: square"/>
   </g>
   <g id="Path3DCollection_1">
    <defs>
     <path id="C0_0_a6cc359265" d="M 0 2.236068 
C 0.593012 2.236068 1.161816 2.000462 1.581139 1.581139 
C 2.000462 1.161816 2.236068 0.593012 2.236068 -0 
C 2.236068 -0.593012 2.000462 -1.161816 1.581139 -1.581139 
C 1.161816 -2.000462 0.593012 -2.236068 0 -2.236068 
C -0.593012 -2.236068 -1.161816 -2.000462 -1.581139 -1.581139 
C -2.000462 -1.161816 -2.236068 -0.593012 -2.236068 0 
C -2.236068 0.593012 -2.000462 1.161816 -1.581139 1.581139 
C -1.161816 2.000462 -0.593012 2.236068 0 2.236068 
z
"/>
    </defs>
    <g clip-path="url(#pc1a0d08ef2)">
     <use xlink:href="#C0_0_a6cc359265" x="224.848334" y="170.301221" style="fill: #ff0000; fill-opacity: 0.3; stroke: #ff0000; stroke-opacity: 0.3"/>
    </g>
    <g clip-path="url(#pc1a0d08ef2)">
     <use xlink:href="#C0_0_a6cc359265" x="234.327803" y="175.874888" style="fill: #ff0000; fill-opacity: 0.356107; stroke: #ff0000; stroke-opacity: 0.356107"/>
    </g>
    <g clip-path="url(#pc1a0d08ef2)">
     <use xlink:href="#C0_0_a6cc359265" x="224.903519" y="148.403903" style="fill: #ff0000; fill-opacity: 0.447893; stroke: #ff0000; stroke-opacity: 0.447893"/>
    </g>
    <g clip-path="url(#pc1a0d08ef2)">
     <use xlink:href="#C0_0_a6cc359265" x="199.012776" y="174.845412" style="fill: #ff0000; fill-opacity: 0.463866; stroke: #ff0000; stroke-opacity: 0.463866"/>
    </g>
    <g clip-path="url(#pc1a0d08ef2)">
     <use xlink:href="#C0_0_a6cc359265" x="228.332434" y="159.142156" style="fill: #ff0000; fill-opacity: 0.464517; stroke: #ff0000; stroke-opacity: 0.464517"/>
    </g>
    <g clip-path="url(#pc1a0d08ef2)">
     <use xlink:href="#C0_0_a6cc359265" x="248.473629" y="175.838818" style="fill: #ff0000; fill-opacity: 0.46594; stroke: #ff0000; stroke-opacity: 0.46594"/>
    </g>
    <g clip-path="url(#pc1a0d08ef2)">
     <use xlink:href="#C0_0_a6cc359265" x="217.45897" y="157.82684" style="fill: #ff0000; fill-opacity: 0.46651; stroke: #ff0000; stroke-opacity: 0.46651"/>
    </g>
    <g clip-path="url(#pc1a0d08ef2)">
     <use xlink:href="#C0_0_a6cc359265" x="240.67054" y="154.596765" style="fill: #ff0000; fill-opacity: 0.50708; stroke: #ff0000; stroke-opacity: 0.50708"/>
    </g>
    <g clip-path="url(#pc1a0d08ef2)">
     <use xlink:href="#C0_0_a6cc359265" x="204.05108" y="145.165892" style="fill: #ff0000; fill-opacity: 0.51636; stroke: #ff0000; stroke-opacity: 0.51636"/>
    </g>
    <g clip-path="url(#pc1a0d08ef2)">
     <use xlink:href="#C0_0_a6cc359265" x="204.778531" y="170.359951" style="fill: #ff0000; fill-opacity: 0.534404; stroke: #ff0000; stroke-opacity: 0.534404"/>
    </g>
    <g clip-path="url(#pc1a0d08ef2)">
     <use xlink:href="#C0_0_a6cc359265" x="207.388861" y="179.099144" style="fill: #ff0000; fill-opacity: 0.537661; stroke: #ff0000; stroke-opacity: 0.537661"/>
    </g>
    <g clip-path="url(#pc1a0d08ef2)">
     <use xlink:href="#C0_0_a6cc359265" x="199.80005" y="187.788027" style="fill: #ff0000; fill-opacity: 0.545634; stroke: #ff0000; stroke-opacity: 0.545634"/>
    </g>
    <g clip-path="url(#pc1a0d08ef2)">
     <use xlink:href="#C0_0_a6cc359265" x="205.762867" y="178.620673" style="fill: #ff0000; fill-opacity: 0.549439; stroke: #ff0000; stroke-opacity: 0.549439"/>
    </g>
    <g clip-path="url(#pc1a0d08ef2)">
     <use xlink:href="#C0_0_a6cc359265" x="222.420832" y="178.954049" style="fill: #ff0000; fill-opacity: 0.551359; stroke: #ff0000; stroke-opacity: 0.551359"/>
    </g>
    <g clip-path="url(#pc1a0d08ef2)">
     <use xlink:href="#C0_0_a6cc359265" x="194.631138" y="180.376364" style="fill: #ff0000; fill-opacity: 0.562761; stroke: #ff0000; stroke-opacity: 0.562761"/>
    </g>
    <g clip-path="url(#pc1a0d08ef2)">
     <use xlink:href="#C0_0_a6cc359265" x="195.965227" y="175.800548" style="fill: #ff0000; fill-opacity: 0.566006; stroke: #ff0000; stroke-opacity: 0.566006"/>
    </g>
    <g clip-path="url(#pc1a0d08ef2)">
     <use xlink:href="#C0_0_a6cc359265" x="199.960021" y="188.211535" style="fill: #ff0000; fill-opacity: 0.569022; stroke: #ff0000; stroke-opacity: 0.569022"/>
    </g>
    <g clip-path="url(#pc1a0d08ef2)">
     <use xlink:href="#C0_0_a6cc359265" x="241.911109" y="165.931002" style="fill: #ff0000; fill-opacity: 0.575442; stroke: #ff0000; stroke-opacity: 0.575442"/>
    </g>
    <g clip-path="url(#pc1a0d08ef2)">
     <use xlink:href="#C0_0_a6cc359265" x="204.980323" y="185.740247" style="fill: #ff0000; fill-opacity: 0.577105; stroke: #ff0000; stroke-opacity: 0.577105"/>
    </g>
    <g clip-path="url(#pc1a0d08ef2)">
     <use xlink:href="#C0_0_a6cc359265" x="234.309352" y="170.638038" style="fill: #ff0000; fill-opacity: 0.577287; stroke: #ff0000; stroke-opacity: 0.577287"/>
    </g>
    <g clip-path="url(#pc1a0d08ef2)">
     <use xlink:href="#C0_0_a6cc359265" x="189.376076" y="179.040945" style="fill: #ff0000; fill-opacity: 0.596514; stroke: #ff0000; stroke-opacity: 0.596514"/>
    </g>
    <g clip-path="url(#pc1a0d08ef2)">
     <use xlink:href="#C0_0_a6cc359265" x="186.050454" y="173.344576" style="fill: #ff0000; fill-opacity: 0.598296; stroke: #ff0000; stroke-opacity: 0.598296"/>
    </g>
    <g clip-path="url(#pc1a0d08ef2)">
     <use xlink:href="#C0_0_a6cc359265" x="211.188989" y="188.752958" style="fill: #ff0000; fill-opacity: 0.610003; stroke: #ff0000; stroke-opacity: 0.610003"/>
    </g>
    <g clip-path="url(#pc1a0d08ef2)">
     <use xlink:href="#C0_0_a6cc359265" x="206.044175" y="189.772394" style="fill: #ff0000; fill-opacity: 0.614382; stroke: #ff0000; stroke-opacity: 0.614382"/>
    </g>
    <g clip-path="url(#pc1a0d08ef2)">
     <use xlink:href="#C0_0_a6cc359265" x="187.3404" y="185.412147" style="fill: #ff0000; fill-opacity: 0.615591; stroke: #ff0000; stroke-opacity: 0.615591"/>
    </g>
    <g clip-path="url(#pc1a0d08ef2)">
     <use xlink:href="#C0_0_a6cc359265" x="228.956404" y="184.345031" style="fill: #ff0000; fill-opacity: 0.616441; stroke: #ff0000; stroke-opacity: 0.616441"/>
    </g>
    <g clip-path="url(#pc1a0d08ef2)">
     <use xlink:href="#C0_0_a6cc359265" x="244.677235" y="189.282316" style="fill: #ff0000; fill-opacity: 0.618003; stroke: #ff0000; stroke-opacity: 0.618003"/>
    </g>
    <g clip-path="url(#pc1a0d08ef2)">
     <use xlink:href="#C0_0_a6cc359265" x="227.943132" y="174.360014" style="fill: #ff0000; fill-opacity: 0.626045; stroke: #ff0000; stroke-opacity: 0.626045"/>
    </g>
    <g clip-path="url(#pc1a0d08ef2)">
     <use xlink:href="#C0_0_a6cc359265" x="216.234923" y="188.292757" style="fill: #ff0000; fill-opacity: 0.627737; stroke: #ff0000; stroke-opacity: 0.627737"/>
    </g>
    <g clip-path="url(#pc1a0d08ef2)">
     <use xlink:href="#C0_0_a6cc359265" x="202.199231" y="178.483832" style="fill: #ff0000; fill-opacity: 0.632326; stroke: #ff0000; stroke-opacity: 0.632326"/>
    </g>
    <g clip-path="url(#pc1a0d08ef2)">
     <use xlink:href="#C0_0_a6cc359265" x="234.645664" y="192.064037" style="fill: #ff0000; fill-opacity: 0.659725; stroke: #ff0000; stroke-opacity: 0.659725"/>
    </g>
    <g clip-path="url(#pc1a0d08ef2)">
     <use xlink:href="#C0_0_a6cc359265" x="231.965282" y="184.270638" style="fill: #ff0000; fill-opacity: 0.663805; stroke: #ff0000; stroke-opacity: 0.663805"/>
    </g>
    <g clip-path="url(#pc1a0d08ef2)">
     <use xlink:href="#C0_0_a6cc359265" x="210.895633" y="178.269864" style="fill: #ff0000; fill-opacity: 0.666653; stroke: #ff0000; stroke-opacity: 0.666653"/>
    </g>
    <g clip-path="url(#pc1a0d08ef2)">
     <use xlink:href="#C0_0_a6cc359265" x="177.737983" y="191.755643" style="fill: #ff0000; fill-opacity: 0.669471; stroke: #ff0000; stroke-opacity: 0.669471"/>
    </g>
    <g clip-path="url(#pc1a0d08ef2)">
     <use xlink:href="#C0_0_a6cc359265" x="192.570423" y="180.007976" style="fill: #ff0000; fill-opacity: 0.669512; stroke: #ff0000; stroke-opacity: 0.669512"/>
    </g>
    <g clip-path="url(#pc1a0d08ef2)">
     <use xlink:href="#C0_0_a6cc359265" x="232.076967" y="183.822446" style="fill: #ff0000; fill-opacity: 0.695073; stroke: #ff0000; stroke-opacity: 0.695073"/>
    </g>
    <g clip-path="url(#pc1a0d08ef2)">
     <use xlink:href="#C0_0_a6cc359265" x="227.027775" y="180.493147" style="fill: #ff0000; fill-opacity: 0.696467; stroke: #ff0000; stroke-opacity: 0.696467"/>
    </g>
    <g clip-path="url(#pc1a0d08ef2)">
     <use xlink:href="#C0_0_a6cc359265" x="221.198852" y="183.411473" style="fill: #ff0000; fill-opacity: 0.712867; stroke: #ff0000; stroke-opacity: 0.712867"/>
    </g>
    <g clip-path="url(#pc1a0d08ef2)">
     <use xlink:href="#C0_0_a6cc359265" x="216.374749" y="178.156101" style="fill: #ff0000; fill-opacity: 0.715077; stroke: #ff0000; stroke-opacity: 0.715077"/>
    </g>
    <g clip-path="url(#pc1a0d08ef2)">
     <use xlink:href="#C0_0_a6cc359265" x="222.734902" y="182.045322" style="fill: #ff0000; fill-opacity: 0.723206; stroke: #ff0000; stroke-opacity: 0.723206"/>
    </g>
    <g clip-path="url(#pc1a0d08ef2)">
     <use xlink:href="#C0_0_a6cc359265" x="197.445152" y="192.084594" style="fill: #ff0000; fill-opacity: 0.723262; stroke: #ff0000; stroke-opacity: 0.723262"/>
    </g>
    <g clip-path="url(#pc1a0d08ef2)">
     <use xlink:href="#C0_0_a6cc359265" x="209.782998" y="191.133131" style="fill: #ff0000; fill-opacity: 0.736179; stroke: #ff0000; stroke-opacity: 0.736179"/>
    </g>
    <g clip-path="url(#pc1a0d08ef2)">
     <use xlink:href="#C0_0_a6cc359265" x="220.38746" y="180.966704" style="fill: #ff0000; fill-opacity: 0.751801; stroke: #ff0000; stroke-opacity: 0.751801"/>
    </g>
    <g clip-path="url(#pc1a0d08ef2)">
     <use xlink:href="#C0_0_a6cc359265" x="199.679683" y="185.550362" style="fill: #ff0000; fill-opacity: 0.79382; stroke: #ff0000; stroke-opacity: 0.79382"/>
    </g>
    <g clip-path="url(#pc1a0d08ef2)">
     <use xlink:href="#C0_0_a6cc359265" x="211.896345" y="187.846619" style="fill: #ff0000; fill-opacity: 0.842742; stroke: #ff0000; stroke-opacity: 0.842742"/>
    </g>
    <g clip-path="url(#pc1a0d08ef2)">
     <use xlink:href="#C0_0_a6cc359265" x="213.653883" y="196.654917" style="fill: #ff0000; fill-opacity: 0.886611; stroke: #ff0000; stroke-opacity: 0.886611"/>
    </g>
    <g clip-path="url(#pc1a0d08ef2)">
     <use xlink:href="#C0_0_a6cc359265" x="224.563692" y="189.447619" style="fill: #ff0000; fill-opacity: 0.954218; stroke: #ff0000; stroke-opacity: 0.954218"/>
    </g>
    <g clip-path="url(#pc1a0d08ef2)">
     <use xlink:href="#C0_0_a6cc359265" x="216.460709" y="192.478838" style="fill: #ff0000; fill-opacity: 0.968769; stroke: #ff0000; stroke-opacity: 0.968769"/>
    </g>
    <g clip-path="url(#pc1a0d08ef2)">
     <use xlink:href="#C0_0_a6cc359265" x="223.913393" y="204.149054" style="fill: #ff0000; fill-opacity: 0.988518; stroke: #ff0000; stroke-opacity: 0.988518"/>
    </g>
    <g clip-path="url(#pc1a0d08ef2)">
     <use xlink:href="#C0_0_a6cc359265" x="202.851571" y="204.195483" style="fill: #ff0000; stroke: #ff0000"/>
    </g>
   </g>
  </g>
 </g>
 <defs>
  <clipPath id="pc1a0d08ef2">
   <rect x="112.68" y="34.56" width="217.44" height="217.44"/>
  </clipPath>
 </defs>
</svg>
