<?xml version="1.0" encoding="utf-8" standalone="no"?>
<!DOCTYPE svg PUBLIC "-//W3C//DTD SVG 1.1//EN"
  "http://www.w3.org/Graphics/SVG/1.1/DTD/svg11.dtd">
<svg xmlns:xlink="http://www.w3.org/1999/xlink" width="432pt" height="288pt" viewBox="0 0 432 288" xmlns="http://www.w3.org/2000/svg" version="1.1">
 <metadata>
  <rdf:RDF xmlns:dc="http://purl.org/dc/elements/1.1/" xmlns:cc="http://creativecommons.org/ns#" xmlns:rdf="http://www.w3.org/1999/02/22-rdf-syntax-ns#">
   <cc:Work>
    <dc:type rdf:resource="http://purl.org/dc/dcmitype/StillImage"/>
    <dc:date>2022-11-21T12:49:12.740576</dc:date>
    <dc:format>image/svg+xml</dc:format>
    <dc:creator>
     <cc:Agent>
      <dc:title>Matplotlib v3.5.2, https://matplotlib.org/</dc:title>
     </cc:Agent>
    </dc:creator>
   </cc:Work>
  </rdf:RDF>
 </metadata>
 <defs>
  <style type="text/css">*{stroke-linejoin: round; stroke-linecap: butt}</style>
 </defs>
 <g id="figure_1">
  <g id="patch_1">
   <path d="M 0 288 
L 432 288 
L 432 0 
L 0 0 
L 0 288 
z
" style="fill: none"/>
  </g>
  <g id="patch_2">
   <path d="M 112.68 252 
L 330.12 252 
L 330.12 34.56 
L 112.68 34.56 
L 112.68 252 
z
" style="fill: none"/>
  </g>
  <g id="pane3d_1">
   <g id="patch_3">
    <path d="M 126.593097 192.163605 
L 216.456602 154.596489 
L 216.23029 62.283418 
L 123.540546 92.93358 
" style="fill: none; opacity: 0"/>
   </g>
  </g>
  <g id="pane3d_2">
   <g id="patch_4">
    <path d="M 216.456602 154.596489 
L 320.76512 185.693817 
L 323.734621 87.644342 
L 216.23029 62.283418 
" style="fill: none; opacity: 0"/>
   </g>
  </g>
  <g id="pane3d_3">
   <g id="patch_5">
    <path d="M 126.593097 192.163605 
L 233.546625 228.991271 
L 320.76512 185.693817 
L 216.456602 154.596489 
" style="fill: none; opacity: 0"/>
   </g>
  </g>
  <g id="axis3d_1">
   <g id="line2d_1">
    <path d="M 126.593097 192.163605 
L 233.546625 228.991271 
" style="fill: none; stroke: #000000; stroke-width: 0.8; stroke-linecap: square"/>
   </g>
   <g id="text_1">
    <!-- $c_1$ -->
    <g transform="translate(162.185535 226.078789)rotate(-340.999706)scale(0.1 -0.1)">
     <defs>
      <path id="DejaVuSans-Oblique-63" d="M 3431 3366 
L 3316 2797 
Q 3109 2947 2876 3022 
Q 2644 3097 2394 3097 
Q 2119 3097 1870 3000 
Q 1622 2903 1453 2725 
Q 1184 2453 1037 2087 
Q 891 1722 891 1331 
Q 891 859 1127 628 
Q 1363 397 1844 397 
Q 2081 397 2348 469 
Q 2616 541 2906 684 
L 2797 116 
Q 2547 13 2283 -39 
Q 2019 -91 1741 -91 
Q 1044 -91 669 257 
Q 294 606 294 1253 
Q 294 1797 489 2255 
Q 684 2713 1069 3078 
Q 1331 3328 1684 3456 
Q 2038 3584 2456 3584 
Q 2700 3584 2940 3529 
Q 3181 3475 3431 3366 
z
" transform="scale(0.015625)"/>
      <path id="DejaVuSans-31" d="M 794 531 
L 1825 531 
L 1825 4091 
L 703 3866 
L 703 4441 
L 1819 4666 
L 2450 4666 
L 2450 531 
L 3481 531 
L 3481 0 
L 794 0 
L 794 531 
z
" transform="scale(0.015625)"/>
     </defs>
     <use xlink:href="#DejaVuSans-Oblique-63"/>
     <use xlink:href="#DejaVuSans-31" transform="translate(54.980469 -16.40625)scale(0.7)"/>
    </g>
   </g>
   <g id="xtick_1">
    <g id="line2d_2">
     <path d="M 129.3617 192.521824 
L 127.020814 193.503523 
" style="fill: none; stroke: #000000; stroke-width: 0.8; stroke-linecap: square"/>
    </g>
    <g id="text_2">
     <!-- 0 -->
     <g transform="translate(123.729553 202.872669)scale(0.1 -0.1)">
      <defs>
       <path id="DejaVuSans-30" d="M 2034 4250 
Q 1547 4250 1301 3770 
Q 1056 3291 1056 2328 
Q 1056 1369 1301 889 
Q 1547 409 2034 409 
Q 2525 409 2770 889 
Q 3016 1369 3016 2328 
Q 3016 3291 2770 3770 
Q 2525 4250 2034 4250 
z
M 2034 4750 
Q 2819 4750 3233 4129 
Q 3647 3509 3647 2328 
Q 3647 1150 3233 529 
Q 2819 -91 2034 -91 
Q 1250 -91 836 529 
Q 422 1150 422 2328 
Q 422 3509 836 4129 
Q 1250 4750 2034 4750 
z
" transform="scale(0.015625)"/>
      </defs>
      <use xlink:href="#DejaVuSans-30"/>
     </g>
    </g>
   </g>
   <g id="xtick_2">
    <g id="line2d_3">
     <path d="M 153.681855 200.885694 
L 151.350703 201.901941 
" style="fill: none; stroke: #000000; stroke-width: 0.8; stroke-linecap: square"/>
    </g>
   </g>
   <g id="xtick_3">
    <g id="line2d_4">
     <path d="M 178.864633 209.546226 
L 176.545389 210.598877 
" style="fill: none; stroke: #000000; stroke-width: 0.8; stroke-linecap: square"/>
    </g>
    <g id="text_3">
     <!-- $\pi/2$ -->
     <g transform="translate(168.711228 220.02395)scale(0.1 -0.1)">
      <defs>
       <path id="DejaVuSans-Oblique-3c0" d="M 584 3500 
L 3938 3500 
L 3825 2925 
L 3384 2925 
L 2966 775 
Q 2922 550 2981 450 
Q 3038 353 3209 353 
Q 3256 353 3325 363 
Q 3397 369 3419 372 
L 3338 -44 
Q 3222 -84 3103 -103 
Q 2981 -122 2866 -122 
Q 2491 -122 2388 81 
Q 2284 288 2391 838 
L 2797 2925 
L 1506 2925 
L 938 0 
L 350 0 
L 919 2925 
L 472 2925 
L 584 3500 
z
" transform="scale(0.015625)"/>
       <path id="DejaVuSans-2f" d="M 1625 4666 
L 2156 4666 
L 531 -594 
L 0 -594 
L 1625 4666 
z
" transform="scale(0.015625)"/>
       <path id="DejaVuSans-32" d="M 1228 531 
L 3431 531 
L 3431 0 
L 469 0 
L 469 531 
Q 828 903 1448 1529 
Q 2069 2156 2228 2338 
Q 2531 2678 2651 2914 
Q 2772 3150 2772 3378 
Q 2772 3750 2511 3984 
Q 2250 4219 1831 4219 
Q 1534 4219 1204 4116 
Q 875 4013 500 3803 
L 500 4441 
Q 881 4594 1212 4672 
Q 1544 4750 1819 4750 
Q 2544 4750 2975 4387 
Q 3406 4025 3406 3419 
Q 3406 3131 3298 2873 
Q 3191 2616 2906 2266 
Q 2828 2175 2409 1742 
Q 1991 1309 1228 531 
z
" transform="scale(0.015625)"/>
      </defs>
      <use xlink:href="#DejaVuSans-Oblique-3c0" transform="translate(0 0.78125)"/>
      <use xlink:href="#DejaVuSans-2f" transform="translate(60.205078 0.78125)"/>
      <use xlink:href="#DejaVuSans-32" transform="translate(90.271484 0.78125)"/>
     </g>
    </g>
   </g>
   <g id="xtick_4">
    <g id="line2d_5">
     <path d="M 204.956758 218.519489 
L 202.651814 219.610537 
" style="fill: none; stroke: #000000; stroke-width: 0.8; stroke-linecap: square"/>
    </g>
   </g>
   <g id="xtick_5">
    <g id="line2d_6">
     <path d="M 232.008391 227.822734 
L 229.72038 228.954317 
" style="fill: none; stroke: #000000; stroke-width: 0.8; stroke-linecap: square"/>
    </g>
    <g id="text_4">
     <!-- $\pi$ -->
     <g transform="translate(226.508744 238.438902)scale(0.1 -0.1)">
      <use xlink:href="#DejaVuSans-Oblique-3c0" transform="translate(0 0.3125)"/>
     </g>
    </g>
   </g>
  </g>
  <g id="axis3d_2">
   <g id="line2d_7">
    <path d="M 320.76512 185.693817 
L 233.546625 228.991271 
" style="fill: none; stroke: #000000; stroke-width: 0.8; stroke-linecap: square"/>
   </g>
   <g id="text_5">
    <!-- $c_2$ -->
    <g transform="translate(282.604154 219.516762)rotate(-26.400958)scale(0.1 -0.1)">
     <use xlink:href="#DejaVuSans-Oblique-63"/>
     <use xlink:href="#DejaVuSans-32" transform="translate(54.980469 -16.40625)scale(0.7)"/>
    </g>
   </g>
   <g id="xtick_6">
    <g id="line2d_8">
     <path d="M 234.526897 227.731913 
L 237.291026 228.680754 
" style="fill: none; stroke: #000000; stroke-width: 0.8; stroke-linecap: square"/>
    </g>
    <g id="text_6">
     <!-- 0 -->
     <g transform="translate(239.506083 235.822219)scale(0.1 -0.1)">
      <use xlink:href="#DejaVuSans-30"/>
     </g>
    </g>
   </g>
   <g id="xtick_7">
    <g id="line2d_9">
     <path d="M 252.429731 218.857807 
L 255.178565 219.774212 
" style="fill: none; stroke: #000000; stroke-width: 0.8; stroke-linecap: square"/>
    </g>
   </g>
   <g id="xtick_8">
    <g id="line2d_10">
     <path d="M 269.726251 210.284239 
L 272.459229 211.169844 
" style="fill: none; stroke: #000000; stroke-width: 0.8; stroke-linecap: square"/>
    </g>
   </g>
   <g id="xtick_9">
    <g id="line2d_11">
     <path d="M 286.446744 201.996197 
L 289.163389 202.852529 
" style="fill: none; stroke: #000000; stroke-width: 0.8; stroke-linecap: square"/>
    </g>
   </g>
   <g id="xtick_10">
    <g id="line2d_12">
     <path d="M 302.619516 193.979651 
L 305.31942 194.808137 
" style="fill: none; stroke: #000000; stroke-width: 0.8; stroke-linecap: square"/>
    </g>
   </g>
   <g id="xtick_11">
    <g id="line2d_13">
     <path d="M 318.271044 186.221475 
L 320.953866 187.023452 
" style="fill: none; stroke: #000000; stroke-width: 0.8; stroke-linecap: square"/>
    </g>
    <g id="text_7">
     <!-- $\pi/2$ -->
     <g transform="translate(323.015598 193.798428)scale(0.1 -0.1)">
      <use xlink:href="#DejaVuSans-Oblique-3c0" transform="translate(0 0.78125)"/>
      <use xlink:href="#DejaVuSans-2f" transform="translate(60.205078 0.78125)"/>
      <use xlink:href="#DejaVuSans-32" transform="translate(90.271484 0.78125)"/>
     </g>
    </g>
   </g>
  </g>
  <g id="axis3d_3">
   <g id="line2d_14">
    <path d="M 126.593097 192.163605 
L 123.540546 92.93358 
" style="fill: none; stroke: #000000; stroke-width: 0.8; stroke-linecap: square"/>
   </g>
   <g id="text_8">
    <!-- $c_3$ -->
    <g transform="translate(115.484798 148.831403)rotate(-90)scale(0.1 -0.1)">
     <defs>
      <path id="DejaVuSans-33" d="M 2597 2516 
Q 3050 2419 3304 2112 
Q 3559 1806 3559 1356 
Q 3559 666 3084 287 
Q 2609 -91 1734 -91 
Q 1441 -91 1130 -33 
Q 819 25 488 141 
L 488 750 
Q 750 597 1062 519 
Q 1375 441 1716 441 
Q 2309 441 2620 675 
Q 2931 909 2931 1356 
Q 2931 1769 2642 2001 
Q 2353 2234 1838 2234 
L 1294 2234 
L 1294 2753 
L 1863 2753 
Q 2328 2753 2575 2939 
Q 2822 3125 2822 3475 
Q 2822 3834 2567 4026 
Q 2313 4219 1838 4219 
Q 1578 4219 1281 4162 
Q 984 4106 628 3988 
L 628 4550 
Q 988 4650 1302 4700 
Q 1616 4750 1894 4750 
Q 2613 4750 3031 4423 
Q 3450 4097 3450 3541 
Q 3450 3153 3228 2886 
Q 3006 2619 2597 2516 
z
" transform="scale(0.015625)"/>
     </defs>
     <use xlink:href="#DejaVuSans-Oblique-63"/>
     <use xlink:href="#DejaVuSans-33" transform="translate(54.980469 -16.40625)scale(0.7)"/>
    </g>
   </g>
   <g id="xtick_12">
    <g id="line2d_15">
     <path d="M 127.329374 190.510774 
L 124.945551 189.693205 
" style="fill: none; stroke: #000000; stroke-width: 0.8; stroke-linecap: square"/>
    </g>
    <g id="text_9">
     <!-- 0 -->
     <g transform="translate(113.211802 193.228274)scale(0.1 -0.1)">
      <use xlink:href="#DejaVuSans-30"/>
     </g>
    </g>
   </g>
   <g id="xtick_13">
    <g id="line2d_16">
     <path d="M 126.761344 171.895841 
L 124.364563 171.105521 
" style="fill: none; stroke: #000000; stroke-width: 0.8; stroke-linecap: square"/>
    </g>
   </g>
   <g id="xtick_14">
    <g id="line2d_17">
     <path d="M 126.186622 153.061628 
L 123.776743 152.299256 
" style="fill: none; stroke: #000000; stroke-width: 0.8; stroke-linecap: square"/>
    </g>
   </g>
   <g id="xtick_15">
    <g id="line2d_18">
     <path d="M 125.605089 134.004235 
L 123.18197 133.270531 
" style="fill: none; stroke: #000000; stroke-width: 0.8; stroke-linecap: square"/>
    </g>
   </g>
   <g id="xtick_16">
    <g id="line2d_19">
     <path d="M 125.016625 114.719674 
L 122.58012 114.015376 
" style="fill: none; stroke: #000000; stroke-width: 0.8; stroke-linecap: square"/>
    </g>
   </g>
   <g id="xtick_17">
    <g id="line2d_20">
     <path d="M 124.421104 95.203856 
L 121.971065 94.529724 
" style="fill: none; stroke: #000000; stroke-width: 0.8; stroke-linecap: square"/>
    </g>
    <g id="text_10">
     <!-- $\pi/2$ -->
     <g transform="translate(101.033824 97.928701)scale(0.1 -0.1)">
      <use xlink:href="#DejaVuSans-Oblique-3c0" transform="translate(0 0.78125)"/>
      <use xlink:href="#DejaVuSans-2f" transform="translate(60.205078 0.78125)"/>
      <use xlink:href="#DejaVuSans-32" transform="translate(90.271484 0.78125)"/>
     </g>
    </g>
   </g>
  </g>
  <g id="axes_1">
   <g id="line2d_21">
    <path d="M 130.471726 190.107257 
L 265.228534 168.507698 
" clip-path="url(#pd677a19af3)" style="fill: none; stroke-dasharray: 1.85,0.8; stroke-dashoffset: 0; stroke: #000000; stroke-width: 0.5"/>
   </g>
   <g id="line2d_22">
    <path d="M 250.130328 195.201393 
L 179.992779 207.03875 
" clip-path="url(#pd677a19af3)" style="fill: none; stroke-dasharray: 1.85,0.8; stroke-dashoffset: 0; stroke: #000000; stroke-width: 0.5"/>
   </g>
   <g id="line2d_23">
    <path d="M 199.409119 179.057594 
L 179.992779 207.03875 
" clip-path="url(#pd677a19af3)" style="fill: none; stroke-dasharray: 1.85,0.8; stroke-dashoffset: 0; stroke: #000000; stroke-width: 0.5"/>
   </g>
   <g id="line2d_24">
    <path d="M 199.049905 133.084109 
L 199.409119 179.057594 
" clip-path="url(#pd677a19af3)" style="fill: none; stroke-dasharray: 1.85,0.8; stroke-dashoffset: 0; stroke: #000000; stroke-width: 0.5"/>
   </g>
   <g id="line2d_25">
    <path d="M 199.049905 133.084109 
L 265.228534 168.507698 
" clip-path="url(#pd677a19af3)" style="fill: none; stroke-dasharray: 1.85,0.8; stroke-dashoffset: 0; stroke: #000000; stroke-width: 0.5"/>
   </g>
   <g id="line2d_26">
    <path d="M 130.471726 190.107257 
L 233.154371 225.214961 
" clip-path="url(#pd677a19af3)" style="fill: none; stroke: #000000; stroke-width: 0.5; stroke-linecap: square"/>
   </g>
   <g id="line2d_27">
    <path d="M 233.154371 225.214961 
L 265.228534 168.507698 
" clip-path="url(#pd677a19af3)" style="fill: none; stroke: #000000; stroke-width: 0.5; stroke-linecap: square"/>
   </g>
   <g id="line2d_28">
    <path d="M 265.228534 168.507698 
L 266.396351 77.085153 
" clip-path="url(#pd677a19af3)" style="fill: none; stroke: #000000; stroke-width: 0.5; stroke-linecap: square"/>
   </g>
   <g id="line2d_29">
    <path d="M 266.396351 77.085153 
L 233.154371 225.214961 
" clip-path="url(#pd677a19af3)" style="fill: none; stroke: #000000; stroke-width: 0.5; stroke-linecap: square"/>
   </g>
   <g id="line2d_30">
    <path d="M 266.396351 77.085153 
L 130.471726 190.107257 
" clip-path="url(#pd677a19af3)" style="fill: none; stroke: #000000; stroke-width: 0.5; stroke-linecap: square"/>
   </g>
   <g id="line2d_31">
    <path d="M 179.992779 207.03875 
L 250.515026 147.854031 
" clip-path="url(#pd677a19af3)" style="fill: none; stroke: #000000; stroke-width: 0.5; stroke-linecap: square"/>
   </g>
   <g id="line2d_32">
    <path d="M 179.992779 207.03875 
L 199.049905 133.084109 
" clip-path="url(#pd677a19af3)" style="fill: none; stroke: #000000; stroke-width: 0.5; stroke-linecap: square"/>
   </g>
   <g id="line2d_33">
    <path d="M 250.515026 147.854031 
L 199.049905 133.084109 
" clip-path="url(#pd677a19af3)" style="fill: none; stroke: #000000; stroke-width: 0.5; stroke-linecap: square"/>
   </g>
   <g id="line2d_34">
    <path d="M 250.515026 147.854031 
L 265.228534 168.507698 
" clip-path="url(#pd677a19af3)" style="fill: none; stroke: #000000; stroke-width: 0.5; stroke-linecap: square"/>
   </g>
   <g id="line2d_35">
    <path d="M 250.515026 147.854031 
L 250.130328 195.201393 
" clip-path="url(#pd677a19af3)" style="fill: none; stroke: #000000; stroke-width: 0.5; stroke-linecap: square"/>
   </g>
   <g id="Path3DCollection_1">
    <defs>
     <path id="C0_0_23e5313f6c" d="M 0 2.236068 
C 0.593012 2.236068 1.161816 2.000462 1.581139 1.581139 
C 2.000462 1.161816 2.236068 0.593012 2.236068 -0 
C 2.236068 -0.593012 2.000462 -1.161816 1.581139 -1.581139 
C 1.161816 -2.000462 0.593012 -2.236068 0 -2.236068 
C -0.593012 -2.236068 -1.161816 -2.000462 -1.581139 -1.581139 
C -2.000462 -1.161816 -2.236068 -0.593012 -2.236068 0 
C -2.236068 0.593012 -2.000462 1.161816 -1.581139 1.581139 
C -1.161816 2.000462 -0.593012 2.236068 0 2.236068 
z
"/>
    </defs>
    <g clip-path="url(#pd677a19af3)">
     <use xlink:href="#C0_0_23e5313f6c" x="196.061839" y="182.301115" style="fill-opacity: 0.3; stroke: #000000; stroke-opacity: 0.3"/>
    </g>
    <g clip-path="url(#pd677a19af3)">
     <use xlink:href="#C0_0_23e5313f6c" x="179.058526" y="184.083037" style="fill-opacity: 0.340355; stroke: #000000; stroke-opacity: 0.340355"/>
    </g>
    <g clip-path="url(#pd677a19af3)">
     <use xlink:href="#C0_0_23e5313f6c" x="173.782046" y="186.33712" style="fill-opacity: 0.381961; stroke: #000000; stroke-opacity: 0.381961"/>
    </g>
    <g clip-path="url(#pd677a19af3)">
     <use xlink:href="#C0_0_23e5313f6c" x="224.01851" y="175.489626" style="fill-opacity: 0.428617; stroke: #000000; stroke-opacity: 0.428617"/>
    </g>
    <g clip-path="url(#pd677a19af3)">
     <use xlink:href="#C0_0_23e5313f6c" x="188.214946" y="172.660783" style="fill-opacity: 0.449214; stroke: #000000; stroke-opacity: 0.449214"/>
    </g>
    <g clip-path="url(#pd677a19af3)">
     <use xlink:href="#C0_0_23e5313f6c" x="186.751198" y="183.075676" style="fill-opacity: 0.461266; stroke: #000000; stroke-opacity: 0.461266"/>
    </g>
    <g clip-path="url(#pd677a19af3)">
     <use xlink:href="#C0_0_23e5313f6c" x="223.840228" y="177.343232" style="fill-opacity: 0.461806; stroke: #000000; stroke-opacity: 0.461806"/>
    </g>
    <g clip-path="url(#pd677a19af3)">
     <use xlink:href="#C0_0_23e5313f6c" x="157.107747" y="183.540911" style="fill-opacity: 0.466249; stroke: #000000; stroke-opacity: 0.466249"/>
    </g>
    <g clip-path="url(#pd677a19af3)">
     <use xlink:href="#C0_0_23e5313f6c" x="171.861348" y="189.587575" style="fill-opacity: 0.472391; stroke: #000000; stroke-opacity: 0.472391"/>
    </g>
    <g clip-path="url(#pd677a19af3)">
     <use xlink:href="#C0_0_23e5313f6c" x="211.121653" y="184.883566" style="fill-opacity: 0.475717; stroke: #000000; stroke-opacity: 0.475717"/>
    </g>
    <g clip-path="url(#pd677a19af3)">
     <use xlink:href="#C0_0_23e5313f6c" x="187.370396" y="187.749764" style="fill-opacity: 0.492716; stroke: #000000; stroke-opacity: 0.492716"/>
    </g>
    <g clip-path="url(#pd677a19af3)">
     <use xlink:href="#C0_0_23e5313f6c" x="183.94931" y="176.939867" style="fill-opacity: 0.493607; stroke: #000000; stroke-opacity: 0.493607"/>
    </g>
    <g clip-path="url(#pd677a19af3)">
     <use xlink:href="#C0_0_23e5313f6c" x="158.286256" y="191.13512" style="fill-opacity: 0.495158; stroke: #000000; stroke-opacity: 0.495158"/>
    </g>
    <g clip-path="url(#pd677a19af3)">
     <use xlink:href="#C0_0_23e5313f6c" x="217.120821" y="170.184125" style="fill-opacity: 0.508913; stroke: #000000; stroke-opacity: 0.508913"/>
    </g>
    <g clip-path="url(#pd677a19af3)">
     <use xlink:href="#C0_0_23e5313f6c" x="166.114864" y="189.522717" style="fill-opacity: 0.531269; stroke: #000000; stroke-opacity: 0.531269"/>
    </g>
    <g clip-path="url(#pd677a19af3)">
     <use xlink:href="#C0_0_23e5313f6c" x="203.849805" y="190.376112" style="fill-opacity: 0.539099; stroke: #000000; stroke-opacity: 0.539099"/>
    </g>
    <g clip-path="url(#pd677a19af3)">
     <use xlink:href="#C0_0_23e5313f6c" x="191.383395" y="189.742656" style="fill-opacity: 0.543601; stroke: #000000; stroke-opacity: 0.543601"/>
    </g>
    <g clip-path="url(#pd677a19af3)">
     <use xlink:href="#C0_0_23e5313f6c" x="213.439974" y="187.148233" style="fill-opacity: 0.554909; stroke: #000000; stroke-opacity: 0.554909"/>
    </g>
    <g clip-path="url(#pd677a19af3)">
     <use xlink:href="#C0_0_23e5313f6c" x="177.459526" y="193.758892" style="fill-opacity: 0.555311; stroke: #000000; stroke-opacity: 0.555311"/>
    </g>
    <g clip-path="url(#pd677a19af3)">
     <use xlink:href="#C0_0_23e5313f6c" x="211.1208" y="189.870812" style="fill-opacity: 0.557427; stroke: #000000; stroke-opacity: 0.557427"/>
    </g>
    <g clip-path="url(#pd677a19af3)">
     <use xlink:href="#C0_0_23e5313f6c" x="194.577072" y="193.844936" style="fill-opacity: 0.559599; stroke: #000000; stroke-opacity: 0.559599"/>
    </g>
    <g clip-path="url(#pd677a19af3)">
     <use xlink:href="#C0_0_23e5313f6c" x="213.184762" y="178.704966" style="fill-opacity: 0.561662; stroke: #000000; stroke-opacity: 0.561662"/>
    </g>
    <g clip-path="url(#pd677a19af3)">
     <use xlink:href="#C0_0_23e5313f6c" x="207.224994" y="194.297985" style="fill-opacity: 0.571683; stroke: #000000; stroke-opacity: 0.571683"/>
    </g>
    <g clip-path="url(#pd677a19af3)">
     <use xlink:href="#C0_0_23e5313f6c" x="179.361618" y="182.976479" style="fill-opacity: 0.577647; stroke: #000000; stroke-opacity: 0.577647"/>
    </g>
    <g clip-path="url(#pd677a19af3)">
     <use xlink:href="#C0_0_23e5313f6c" x="164.709924" y="194.805853" style="fill-opacity: 0.583907; stroke: #000000; stroke-opacity: 0.583907"/>
    </g>
    <g clip-path="url(#pd677a19af3)">
     <use xlink:href="#C0_0_23e5313f6c" x="208.641533" y="183.966673" style="fill-opacity: 0.600195; stroke: #000000; stroke-opacity: 0.600195"/>
    </g>
    <g clip-path="url(#pd677a19af3)">
     <use xlink:href="#C0_0_23e5313f6c" x="208.574886" y="195.428113" style="fill-opacity: 0.604395; stroke: #000000; stroke-opacity: 0.604395"/>
    </g>
    <g clip-path="url(#pd677a19af3)">
     <use xlink:href="#C0_0_23e5313f6c" x="231.82687" y="189.796107" style="fill-opacity: 0.614237; stroke: #000000; stroke-opacity: 0.614237"/>
    </g>
    <g clip-path="url(#pd677a19af3)">
     <use xlink:href="#C0_0_23e5313f6c" x="171.652601" y="194.330516" style="fill-opacity: 0.617959; stroke: #000000; stroke-opacity: 0.617959"/>
    </g>
    <g clip-path="url(#pd677a19af3)">
     <use xlink:href="#C0_0_23e5313f6c" x="205.272381" y="189.450067" style="fill-opacity: 0.625997; stroke: #000000; stroke-opacity: 0.625997"/>
    </g>
    <g clip-path="url(#pd677a19af3)">
     <use xlink:href="#C0_0_23e5313f6c" x="202.924031" y="189.271105" style="fill-opacity: 0.656314; stroke: #000000; stroke-opacity: 0.656314"/>
    </g>
    <g clip-path="url(#pd677a19af3)">
     <use xlink:href="#C0_0_23e5313f6c" x="188.425113" y="179.764223" style="fill-opacity: 0.662907; stroke: #000000; stroke-opacity: 0.662907"/>
    </g>
    <g clip-path="url(#pd677a19af3)">
     <use xlink:href="#C0_0_23e5313f6c" x="203.427653" y="185.84044" style="fill-opacity: 0.671665; stroke: #000000; stroke-opacity: 0.671665"/>
    </g>
    <g clip-path="url(#pd677a19af3)">
     <use xlink:href="#C0_0_23e5313f6c" x="237.52188" y="199.321105" style="fill-opacity: 0.727685; stroke: #000000; stroke-opacity: 0.727685"/>
    </g>
    <g clip-path="url(#pd677a19af3)">
     <use xlink:href="#C0_0_23e5313f6c" x="208.368831" y="184.266087" style="fill-opacity: 0.734047; stroke: #000000; stroke-opacity: 0.734047"/>
    </g>
    <g clip-path="url(#pd677a19af3)">
     <use xlink:href="#C0_0_23e5313f6c" x="204.247461" y="195.111875" style="fill-opacity: 0.734936; stroke: #000000; stroke-opacity: 0.734936"/>
    </g>
    <g clip-path="url(#pd677a19af3)">
     <use xlink:href="#C0_0_23e5313f6c" x="202.285836" y="193.648138" style="fill-opacity: 0.744525; stroke: #000000; stroke-opacity: 0.744525"/>
    </g>
    <g clip-path="url(#pd677a19af3)">
     <use xlink:href="#C0_0_23e5313f6c" x="204.096615" y="190.586301" style="fill-opacity: 0.746229; stroke: #000000; stroke-opacity: 0.746229"/>
    </g>
    <g clip-path="url(#pd677a19af3)">
     <use xlink:href="#C0_0_23e5313f6c" x="202.721756" y="188.648162" style="fill-opacity: 0.769488; stroke: #000000; stroke-opacity: 0.769488"/>
    </g>
    <g clip-path="url(#pd677a19af3)">
     <use xlink:href="#C0_0_23e5313f6c" x="198.257939" y="196.319051" style="fill-opacity: 0.769595; stroke: #000000; stroke-opacity: 0.769595"/>
    </g>
    <g clip-path="url(#pd677a19af3)">
     <use xlink:href="#C0_0_23e5313f6c" x="224.884923" y="195.963509" style="fill-opacity: 0.770433; stroke: #000000; stroke-opacity: 0.770433"/>
    </g>
    <g clip-path="url(#pd677a19af3)">
     <use xlink:href="#C0_0_23e5313f6c" x="212.345345" y="191.851387" style="fill-opacity: 0.778867; stroke: #000000; stroke-opacity: 0.778867"/>
    </g>
    <g clip-path="url(#pd677a19af3)">
     <use xlink:href="#C0_0_23e5313f6c" x="206.588611" y="200.013676" style="fill-opacity: 0.790393; stroke: #000000; stroke-opacity: 0.790393"/>
    </g>
    <g clip-path="url(#pd677a19af3)">
     <use xlink:href="#C0_0_23e5313f6c" x="188.19552" y="200.896034" style="fill-opacity: 0.846747; stroke: #000000; stroke-opacity: 0.846747"/>
    </g>
    <g clip-path="url(#pd677a19af3)">
     <use xlink:href="#C0_0_23e5313f6c" x="214.621915" y="202.525481" style="fill-opacity: 0.858572; stroke: #000000; stroke-opacity: 0.858572"/>
    </g>
    <g clip-path="url(#pd677a19af3)">
     <use xlink:href="#C0_0_23e5313f6c" x="225.185143" y="204.401391" style="fill-opacity: 0.883903; stroke: #000000; stroke-opacity: 0.883903"/>
    </g>
    <g clip-path="url(#pd677a19af3)">
     <use xlink:href="#C0_0_23e5313f6c" x="219.340033" y="203.387664" style="fill-opacity: 0.943111; stroke: #000000; stroke-opacity: 0.943111"/>
    </g>
    <g clip-path="url(#pd677a19af3)">
     <use xlink:href="#C0_0_23e5313f6c" x="219.352244" y="208.291177" style="fill-opacity: 0.946263; stroke: #000000; stroke-opacity: 0.946263"/>
    </g>
    <g clip-path="url(#pd677a19af3)">
     <use xlink:href="#C0_0_23e5313f6c" x="215.880425" y="201.618483" style="fill-opacity: 0.998018; stroke: #000000; stroke-opacity: 0.998018"/>
    </g>
    <g clip-path="url(#pd677a19af3)">
     <use xlink:href="#C0_0_23e5313f6c" x="210.101339" y="206.287894" style="stroke: #000000"/>
    </g>
   </g>
  </g>
 </g>
 <defs>
  <clipPath id="pd677a19af3">
   <rect x="112.68" y="34.56" width="217.44" height="217.44"/>
  </clipPath>
 </defs>
</svg>
