<?xml version="1.0" encoding="utf-8" standalone="no"?>
<!DOCTYPE svg PUBLIC "-//W3C//DTD SVG 1.1//EN"
  "http://www.w3.org/Graphics/SVG/1.1/DTD/svg11.dtd">
<svg xmlns:xlink="http://www.w3.org/1999/xlink" width="460.8pt" height="345.6pt" viewBox="0 0 460.8 345.6" xmlns="http://www.w3.org/2000/svg" version="1.1">
 <metadata>
  <rdf:RDF xmlns:dc="http://purl.org/dc/elements/1.1/" xmlns:cc="http://creativecommons.org/ns#" xmlns:rdf="http://www.w3.org/1999/02/22-rdf-syntax-ns#">
   <cc:Work>
    <dc:type rdf:resource="http://purl.org/dc/dcmitype/StillImage"/>
    <dc:date>2023-01-31T14:01:41.041003</dc:date>
    <dc:format>image/svg+xml</dc:format>
    <dc:creator>
     <cc:Agent>
      <dc:title>Matplotlib v3.5.2, https://matplotlib.org/</dc:title>
     </cc:Agent>
    </dc:creator>
   </cc:Work>
  </rdf:RDF>
 </metadata>
 <defs>
  <style type="text/css">*{stroke-linejoin: round; stroke-linecap: butt}</style>
 </defs>
 <g id="figure_1">
  <g id="patch_1">
   <path d="M 0 345.6
L 460.8 345.6
L 460.8 0
L 0 0
z
" style="fill: #ffffff"/>
  </g>
  <g id="patch_2">
   <path d="M 103.104 307.584
L 369.216 307.584
L 369.216 41.472
L 103.104 41.472
L 103.104 307.584
z
" style="fill: none"/>
  </g>
  <g id="pane3d_1">
   <g id="patch_3">
    <path d="M 120.13142 234.353763
L 230.110066 188.377584
L 229.833097 75.401058
L 116.395582 112.911984
" style="fill: none; opacity: 0"/>
   </g>
  </g>
  <g id="pane3d_2">
   <g id="patch_4">
    <path d="M 230.110066 188.377584
L 357.767114 226.435771
L 361.401311 106.438797
L 229.833097 75.401058
" style="fill: none; opacity: 0"/>
   </g>
  </g>
  <g id="pane3d_3">
   <g id="patch_5">
    <path d="M 120.13142 234.353763
L 251.025539 279.424972
L 357.767114 226.435771
L 230.110066 188.377584
" style="fill: none; opacity: 0"/>
   </g>
  </g>
  <g id="axis3d_1">
   <g id="line2d_1">
    <path d="M 120.13142 234.353763
L 251.025539 279.424972
" style="fill: none; stroke: #000000; stroke-width: 0.8; stroke-linecap: square"/>
   </g>
   <g id="text_1">
    <!-- $c_1$ -->
    <g transform="translate(167.262772 272.221476)rotate(-340.999706)scale(0.1 -0.1)">
     <defs>
      <path id="DejaVuSans-Oblique-63" d="M 3431 3366
L 3316 2797
Q 3109 2947 2876 3022
Q 2644 3097 2394 3097
Q 2119 3097 1870 3000
Q 1622 2903 1453 2725
Q 1184 2453 1037 2087
Q 891 1722 891 1331
Q 891 859 1127 628
Q 1363 397 1844 397
Q 2081 397 2348 469
Q 2616 541 2906 684
L 2797 116
Q 2547 13 2283 -39
Q 2019 -91 1741 -91
Q 1044 -91 669 257
Q 294 606 294 1253
Q 294 1797 489 2255
Q 684 2713 1069 3078
Q 1331 3328 1684 3456
Q 2038 3584 2456 3584
Q 2700 3584 2940 3529
Q 3181 3475 3431 3366
z
" transform="scale(0.015625)"/>
      <path id="DejaVuSans-31" d="M 794 531
L 1825 531
L 1825 4091
L 703 3866
L 703 4441
L 1819 4666
L 2450 4666
L 2450 531
L 3481 531
L 3481 0
L 794 0
L 794 531
z
" transform="scale(0.015625)"/>
     </defs>
     <use xlink:href="#DejaVuSans-Oblique-63"/>
     <use xlink:href="#DejaVuSans-31" transform="translate(54.980469 -16.40625)scale(0.7)"/>
    </g>
   </g>
   <g id="xtick_1">
    <g id="line2d_2">
     <path d="M 123.51975 234.792166
L 120.654877 235.993609
" style="fill: none; stroke: #000000; stroke-width: 0.8; stroke-linecap: square"/>
    </g>
    <g id="text_2">
     <!-- 0 -->
     <g transform="translate(117.713474 245.21573)scale(0.1 -0.1)">
      <defs>
       <path id="DejaVuSans-30" d="M 2034 4250
Q 1547 4250 1301 3770
Q 1056 3291 1056 2328
Q 1056 1369 1301 889
Q 1547 409 2034 409
Q 2525 409 2770 889
Q 3016 1369 3016 2328
Q 3016 3291 2770 3770
Q 2525 4250 2034 4250
z
M 2034 4750
Q 2819 4750 3233 4129
Q 3647 3509 3647 2328
Q 3647 1150 3233 529
Q 2819 -91 2034 -91
Q 1250 -91 836 529
Q 422 1150 422 2328
Q 422 3509 836 4129
Q 1250 4750 2034 4750
z
" transform="scale(0.015625)"/>
      </defs>
      <use xlink:href="#DejaVuSans-30"/>
     </g>
    </g>
   </g>
   <g id="xtick_2">
    <g id="line2d_3">
     <path d="M 153.283753 245.028213
L 150.430794 246.271938
" style="fill: none; stroke: #000000; stroke-width: 0.8; stroke-linecap: square"/>
    </g>
   </g>
   <g id="xtick_3">
    <g id="line2d_4">
     <path d="M 184.103471 255.627328
L 181.265085 256.915606
" style="fill: none; stroke: #000000; stroke-width: 0.8; stroke-linecap: square"/>
    </g>
    <g id="text_3">
     <!-- $\pi/2$ -->
     <g transform="translate(173.777571 266.18302)scale(0.1 -0.1)">
      <defs>
       <path id="DejaVuSans-Oblique-3c0" d="M 584 3500
L 3938 3500
L 3825 2925
L 3384 2925
L 2966 775
Q 2922 550 2981 450
Q 3038 353 3209 353
Q 3256 353 3325 363
Q 3397 369 3419 372
L 3338 -44
Q 3222 -84 3103 -103
Q 2981 -122 2866 -122
Q 2491 -122 2388 81
Q 2284 288 2391 838
L 2797 2925
L 1506 2925
L 938 0
L 350 0
L 919 2925
L 472 2925
L 584 3500
z
" transform="scale(0.015625)"/>
       <path id="DejaVuSans-2f" d="M 1625 4666
L 2156 4666
L 531 -594
L 0 -594
L 1625 4666
z
" transform="scale(0.015625)"/>
       <path id="DejaVuSans-32" d="M 1228 531
L 3431 531
L 3431 0
L 469 0
L 469 531
Q 828 903 1448 1529
Q 2069 2156 2228 2338
Q 2531 2678 2651 2914
Q 2772 3150 2772 3378
Q 2772 3750 2511 3984
Q 2250 4219 1831 4219
Q 1534 4219 1204 4116
Q 875 4013 500 3803
L 500 4441
Q 881 4594 1212 4672
Q 1544 4750 1819 4750
Q 2544 4750 2975 4387
Q 3406 4025 3406 3419
Q 3406 3131 3298 2873
Q 3191 2616 2906 2266
Q 2828 2175 2409 1742
Q 1991 1309 1228 531
z
" transform="scale(0.015625)"/>
      </defs>
      <use xlink:href="#DejaVuSans-Oblique-3c0" transform="translate(0 0.78125)"/>
      <use xlink:href="#DejaVuSans-2f" transform="translate(60.205078 0.78125)"/>
      <use xlink:href="#DejaVuSans-32" transform="translate(90.271484 0.78125)"/>
     </g>
    </g>
   </g>
   <g id="xtick_4">
    <g id="line2d_5">
     <path d="M 216.036085 266.609176
L 213.2152 267.944445
" style="fill: none; stroke: #000000; stroke-width: 0.8; stroke-linecap: square"/>
    </g>
   </g>
   <g id="xtick_5">
    <g id="line2d_6">
     <path d="M 249.142985 277.994869
L 246.342823 279.379747
" style="fill: none; stroke: #000000; stroke-width: 0.8; stroke-linecap: square"/>
    </g>
    <g id="text_4">
     <!-- $\pi$ -->
     <g transform="translate(243.473191 288.694843)scale(0.1 -0.1)">
      <use xlink:href="#DejaVuSans-Oblique-3c0" transform="translate(0 0.3125)"/>
     </g>
    </g>
   </g>
  </g>
  <g id="axis3d_2">
   <g id="line2d_7">
    <path d="M 357.767114 226.435771
L 251.025539 279.424972
" style="fill: none; stroke: #000000; stroke-width: 0.8; stroke-linecap: square"/>
   </g>
   <g id="text_5">
    <!-- $c_2$ -->
    <g transform="translate(310.268389 264.888567)rotate(-26.400958)scale(0.1 -0.1)">
     <use xlink:href="#DejaVuSans-Oblique-63"/>
     <use xlink:href="#DejaVuSans-32" transform="translate(54.980469 -16.40625)scale(0.7)"/>
    </g>
   </g>
   <g id="xtick_6">
    <g id="line2d_8">
     <path d="M 252.225236 277.883719
L 255.60809 279.044949
" style="fill: none; stroke: #000000; stroke-width: 0.8; stroke-linecap: square"/>
    </g>
    <g id="text_6">
     <!-- 0 -->
     <g transform="translate(257.409253 286.043304)scale(0.1 -0.1)">
      <use xlink:href="#DejaVuSans-30"/>
     </g>
    </g>
   </g>
   <g id="xtick_7">
    <g id="line2d_9">
     <path d="M 274.135459 267.023223
L 277.499594 268.144758
" style="fill: none; stroke: #000000; stroke-width: 0.8; stroke-linecap: square"/>
    </g>
   </g>
   <g id="xtick_8">
    <g id="line2d_10">
     <path d="M 295.30365 256.530539
L 298.648381 257.614379
" style="fill: none; stroke: #000000; stroke-width: 0.8; stroke-linecap: square"/>
    </g>
   </g>
   <g id="xtick_9">
    <g id="line2d_11">
     <path d="M 315.766876 246.387293
L 319.091618 247.435307
" style="fill: none; stroke: #000000; stroke-width: 0.8; stroke-linecap: square"/>
    </g>
   </g>
   <g id="xtick_10">
    <g id="line2d_12">
     <path d="M 335.559778 236.576314
L 338.864032 237.59025
" style="fill: none; stroke: #000000; stroke-width: 0.8; stroke-linecap: square"/>
    </g>
   </g>
   <g id="xtick_11">
    <g id="line2d_13">
     <path d="M 354.714762 227.08154
L 357.998109 228.063033
" style="fill: none; stroke: #000000; stroke-width: 0.8; stroke-linecap: square"/>
    </g>
    <g id="text_7">
     <!-- $\pi/2$ -->
     <g transform="translate(359.658255 234.717071)scale(0.1 -0.1)">
      <use xlink:href="#DejaVuSans-Oblique-3c0" transform="translate(0 0.78125)"/>
      <use xlink:href="#DejaVuSans-2f" transform="translate(60.205078 0.78125)"/>
      <use xlink:href="#DejaVuSans-32" transform="translate(90.271484 0.78125)"/>
     </g>
    </g>
   </g>
  </g>
  <g id="axis3d_3">
   <g id="line2d_14">
    <path d="M 120.13142 234.353763
L 116.395582 112.911984
" style="fill: none; stroke: #000000; stroke-width: 0.8; stroke-linecap: square"/>
   </g>
   <g id="text_8">
    <!-- $c_3$ -->
    <g transform="translate(108.688672 180.086376)rotate(-90)scale(0.1 -0.1)">
     <defs>
      <path id="DejaVuSans-33" d="M 2597 2516
Q 3050 2419 3304 2112
Q 3559 1806 3559 1356
Q 3559 666 3084 287
Q 2609 -91 1734 -91
Q 1441 -91 1130 -33
Q 819 25 488 141
L 488 750
Q 750 597 1062 519
Q 1375 441 1716 441
Q 2309 441 2620 675
Q 2931 909 2931 1356
Q 2931 1769 2642 2001
Q 2353 2234 1838 2234
L 1294 2234
L 1294 2753
L 1863 2753
Q 2328 2753 2575 2939
Q 2822 3125 2822 3475
Q 2822 3834 2567 4026
Q 2313 4219 1838 4219
Q 1578 4219 1281 4162
Q 984 4106 628 3988
L 628 4550
Q 988 4650 1302 4700
Q 1616 4750 1894 4750
Q 2613 4750 3031 4423
Q 3450 4097 3450 3541
Q 3450 3153 3228 2886
Q 3006 2619 2597 2516
z
" transform="scale(0.015625)"/>
     </defs>
     <use xlink:href="#DejaVuSans-Oblique-63"/>
     <use xlink:href="#DejaVuSans-33" transform="translate(54.980469 -16.40625)scale(0.7)"/>
    </g>
   </g>
   <g id="xtick_12">
    <g id="line2d_15">
     <path d="M 121.032506 232.33096
L 118.115085 231.330385
" style="fill: none; stroke: #000000; stroke-width: 0.8; stroke-linecap: square"/>
    </g>
    <g id="text_9">
     <!-- 0 -->
     <g transform="translate(106.73748 234.987368)scale(0.1 -0.1)">
      <use xlink:href="#DejaVuSans-30"/>
     </g>
    </g>
   </g>
   <g id="xtick_13">
    <g id="line2d_16">
     <path d="M 120.337326 209.549242
L 117.404048 208.582015
" style="fill: none; stroke: #000000; stroke-width: 0.8; stroke-linecap: square"/>
    </g>
   </g>
   <g id="xtick_14">
    <g id="line2d_17">
     <path d="M 119.633958 186.499158
L 116.68465 185.566136
" style="fill: none; stroke: #000000; stroke-width: 0.8; stroke-linecap: square"/>
    </g>
   </g>
   <g id="xtick_15">
    <g id="line2d_18">
     <path d="M 118.922255 163.175938
L 115.956742 162.278001
" style="fill: none; stroke: #000000; stroke-width: 0.8; stroke-linecap: square"/>
    </g>
   </g>
   <g id="xtick_16">
    <g id="line2d_19">
     <path d="M 118.202068 139.5747
L 115.220173 138.712751
" style="fill: none; stroke: #000000; stroke-width: 0.8; stroke-linecap: square"/>
    </g>
   </g>
   <g id="xtick_17">
    <g id="line2d_20">
     <path d="M 117.473245 115.690441
L 114.474786 114.865411
" style="fill: none; stroke: #000000; stroke-width: 0.8; stroke-linecap: square"/>
    </g>
    <g id="text_10">
     <!-- $\pi/2$ -->
     <g transform="translate(93.903596 118.36491)scale(0.1 -0.1)">
      <use xlink:href="#DejaVuSans-Oblique-3c0" transform="translate(0 0.78125)"/>
      <use xlink:href="#DejaVuSans-2f" transform="translate(60.205078 0.78125)"/>
      <use xlink:href="#DejaVuSans-32" transform="translate(90.271484 0.78125)"/>
     </g>
    </g>
   </g>
  </g>
  <g id="axes_1">
   <g id="line2d_21">
    <path d="M 124.878245 231.83712
L 289.799159 205.402692
" clip-path="url(#pf2d40d1f2d)" style="fill: none; stroke-dasharray: 1.85,0.8; stroke-dashoffset: 0; stroke: #000000; stroke-width: 0.5"/>
   </g>
   <g id="line2d_22">
    <path d="M 271.321355 238.071532
L 185.484143 252.558577
" clip-path="url(#pf2d40d1f2d)" style="fill: none; stroke-dasharray: 1.85,0.8; stroke-dashoffset: 0; stroke: #000000; stroke-width: 0.5"/>
   </g>
   <g id="line2d_23">
    <path d="M 209.246657 218.314089
L 185.484143 252.558577
" clip-path="url(#pf2d40d1f2d)" style="fill: none; stroke-dasharray: 1.85,0.8; stroke-dashoffset: 0; stroke: #000000; stroke-width: 0.5"/>
   </g>
   <g id="line2d_24">
    <path d="M 208.807036 162.049849
L 209.246657 218.314089
" clip-path="url(#pf2d40d1f2d)" style="fill: none; stroke-dasharray: 1.85,0.8; stroke-dashoffset: 0; stroke: #000000; stroke-width: 0.5"/>
   </g>
   <g id="line2d_25">
    <path d="M 208.807036 162.049849
L 289.799159 205.402692
" clip-path="url(#pf2d40d1f2d)" style="fill: none; stroke-dasharray: 1.85,0.8; stroke-dashoffset: 0; stroke: #000000; stroke-width: 0.5"/>
   </g>
   <g id="line2d_26">
    <path d="M 124.878245 231.83712
L 250.545482 274.80337
" clip-path="url(#pf2d40d1f2d)" style="fill: none; stroke: #000000; stroke-width: 0.5; stroke-linecap: square"/>
   </g>
   <g id="line2d_27">
    <path d="M 250.545482 274.80337
L 289.799159 205.402692
" clip-path="url(#pf2d40d1f2d)" style="fill: none; stroke: #000000; stroke-width: 0.5; stroke-linecap: square"/>
   </g>
   <g id="line2d_28">
    <path d="M 289.799159 205.402692
L 291.228382 93.516029
" clip-path="url(#pf2d40d1f2d)" style="fill: none; stroke: #000000; stroke-width: 0.5; stroke-linecap: square"/>
   </g>
   <g id="line2d_29">
    <path d="M 291.228382 93.516029
L 250.545482 274.80337
" clip-path="url(#pf2d40d1f2d)" style="fill: none; stroke: #000000; stroke-width: 0.5; stroke-linecap: square"/>
   </g>
   <g id="line2d_30">
    <path d="M 291.228382 93.516029
L 124.878245 231.83712
" clip-path="url(#pf2d40d1f2d)" style="fill: none; stroke: #000000; stroke-width: 0.5; stroke-linecap: square"/>
   </g>
   <g id="line2d_31">
    <path d="M 185.484143 252.558577
L 271.792164 180.125887
" clip-path="url(#pf2d40d1f2d)" style="fill: none; stroke: #000000; stroke-width: 0.5; stroke-linecap: square"/>
   </g>
   <g id="line2d_32">
    <path d="M 185.484143 252.558577
L 208.807036 162.049849
" clip-path="url(#pf2d40d1f2d)" style="fill: none; stroke: #000000; stroke-width: 0.5; stroke-linecap: square"/>
   </g>
   <g id="line2d_33">
    <path d="M 271.792164 180.125887
L 208.807036 162.049849
" clip-path="url(#pf2d40d1f2d)" style="fill: none; stroke: #000000; stroke-width: 0.5; stroke-linecap: square"/>
   </g>
   <g id="line2d_34">
    <path d="M 271.792164 180.125887
L 289.799159 205.402692
" clip-path="url(#pf2d40d1f2d)" style="fill: none; stroke: #000000; stroke-width: 0.5; stroke-linecap: square"/>
   </g>
   <g id="line2d_35">
    <path d="M 271.792164 180.125887
L 271.321355 238.071532
" clip-path="url(#pf2d40d1f2d)" style="fill: none; stroke: #000000; stroke-width: 0.5; stroke-linecap: square"/>
   </g>
   <g id="Path3DCollection_1">
    <defs>
     <path id="m6c6188c308" d="M 0 0.433013
C 0.114836 0.433013 0.224985 0.387388 0.306186 0.306186
C 0.387388 0.224985 0.433013 0.114836 0.433013 0
C 0.433013 -0.114836 0.387388 -0.224985 0.306186 -0.306186
C 0.224985 -0.387388 0.114836 -0.433013 0 -0.433013
C -0.114836 -0.433013 -0.224985 -0.387388 -0.306186 -0.306186
C -0.387388 -0.224985 -0.433013 -0.114836 -0.433013 0
C -0.433013 0.114836 -0.387388 0.224985 -0.306186 0.306186
C -0.224985 0.387388 -0.114836 0.433013 0 0.433013
z
" style="stroke: #000000"/>
    </defs>
    <g clip-path="url(#pf2d40d1f2d)">
     <use xlink:href="#m6c6188c308" x="274.086926" y="198.922419" style="stroke: #000000"/>
    </g>
   </g>
   <g id="Path3DCollection_2">
    <g clip-path="url(#pf2d40d1f2d)">
     <use xlink:href="#m6c6188c308" x="275.518379" y="169.881608" style="stroke: #000000"/>
    </g>
   </g>
   <g id="Path3DCollection_3">
    <g clip-path="url(#pf2d40d1f2d)">
     <use xlink:href="#m6c6188c308" x="234.820184" y="211.55295" style="stroke: #000000"/>
    </g>
   </g>
   <g id="Path3DCollection_4">
    <g clip-path="url(#pf2d40d1f2d)">
     <use xlink:href="#m6c6188c308" x="278.60123" y="168.007201" style="stroke: #000000"/>
    </g>
   </g>
   <g id="Path3DCollection_5">
    <g clip-path="url(#pf2d40d1f2d)">
     <use xlink:href="#m6c6188c308" x="276.506507" y="187.546313" style="stroke: #000000"/>
    </g>
   </g>
   <g id="Path3DCollection_6">
    <g clip-path="url(#pf2d40d1f2d)">
     <use xlink:href="#m6c6188c308" x="276.591611" y="208.703358" style="stroke: #000000"/>
    </g>
   </g>
   <g id="Path3DCollection_7">
    <g clip-path="url(#pf2d40d1f2d)">
     <use xlink:href="#m6c6188c308" x="274.315662" y="213.067192" style="stroke: #000000"/>
    </g>
   </g>
   <g id="Path3DCollection_8">
    <g clip-path="url(#pf2d40d1f2d)">
     <use xlink:href="#m6c6188c308" x="270.875769" y="151.297382" style="stroke: #000000"/>
    </g>
   </g>
   <g id="Path3DCollection_9">
    <g clip-path="url(#pf2d40d1f2d)">
     <use xlink:href="#m6c6188c308" x="247.38169" y="203.942588" style="stroke: #000000"/>
    </g>
   </g>
   <g id="Path3DCollection_10">
    <g clip-path="url(#pf2d40d1f2d)">
     <use xlink:href="#m6c6188c308" x="258.069402" y="195.505239" style="stroke: #000000"/>
    </g>
   </g>
   <g id="Path3DCollection_11">
    <g clip-path="url(#pf2d40d1f2d)">
     <use xlink:href="#m6c6188c308" x="252.949819" y="205.836339" style="stroke: #000000"/>
    </g>
   </g>
   <g id="Path3DCollection_12">
    <g clip-path="url(#pf2d40d1f2d)">
     <use xlink:href="#m6c6188c308" x="247.738409" y="202.093366" style="stroke: #000000"/>
    </g>
   </g>
   <g id="Path3DCollection_13">
    <g clip-path="url(#pf2d40d1f2d)">
     <use xlink:href="#m6c6188c308" x="258.613853" y="208.25689" style="stroke: #000000"/>
    </g>
   </g>
   <g id="Path3DCollection_14">
    <g clip-path="url(#pf2d40d1f2d)">
     <use xlink:href="#m6c6188c308" x="212.553355" y="218.508497" style="stroke: #000000"/>
    </g>
   </g>
   <g id="Path3DCollection_15">
    <defs>
     <path id="m8af46f9e1d" d="M 0 4.153312
C 1.101471 4.153312 2.157977 3.715693 2.936835 2.936835
C 3.715693 2.157977 4.153312 1.101471 4.153312 0
C 4.153312 -1.101471 3.715693 -2.157977 2.936835 -2.936835
C 2.157977 -3.715693 1.101471 -4.153312 0 -4.153312
C -1.101471 -4.153312 -2.157977 -3.715693 -2.936835 -2.936835
C -3.715693 -2.157977 -4.153312 -1.101471 -4.153312 0
C -4.153312 1.101471 -3.715693 2.157977 -2.936835 2.936835
C -2.157977 3.715693 -1.101471 4.153312 0 4.153312
z
" style="stroke: #000000"/>
    </defs>
    <g clip-path="url(#pf2d40d1f2d)">
     <use xlink:href="#m8af46f9e1d" x="291.228382" y="93.516029" style="stroke: #000000"/>
    </g>
   </g>
   <g id="Path3DCollection_16">
    <g clip-path="url(#pf2d40d1f2d)">
     <use xlink:href="#m6c6188c308" x="224.531273" y="194.816718" style="stroke: #000000"/>
    </g>
   </g>
   <g id="Path3DCollection_17">
    <g clip-path="url(#pf2d40d1f2d)">
     <use xlink:href="#m6c6188c308" x="247.490729" y="166.577859" style="stroke: #000000"/>
    </g>
   </g>
   <g id="Path3DCollection_18">
    <g clip-path="url(#pf2d40d1f2d)">
     <use xlink:href="#m6c6188c308" x="253.661489" y="194.74972" style="stroke: #000000"/>
    </g>
   </g>
   <g id="Path3DCollection_19">
    <g clip-path="url(#pf2d40d1f2d)">
     <use xlink:href="#m6c6188c308" x="257.672976" y="187.6151" style="stroke: #000000"/>
    </g>
   </g>
   <g id="Path3DCollection_20">
    <g clip-path="url(#pf2d40d1f2d)">
     <use xlink:href="#m6c6188c308" x="245.810994" y="193.317256" style="stroke: #000000"/>
    </g>
   </g>
   <g id="Path3DCollection_21">
    <g clip-path="url(#pf2d40d1f2d)">
     <use xlink:href="#m6c6188c308" x="256.773221" y="168.750649" style="stroke: #000000"/>
    </g>
   </g>
   <g id="Path3DCollection_22">
    <g clip-path="url(#pf2d40d1f2d)">
     <use xlink:href="#m6c6188c308" x="261.99519" y="219.909934" style="stroke: #000000"/>
    </g>
   </g>
   <g id="Path3DCollection_23">
    <g clip-path="url(#pf2d40d1f2d)">
     <use xlink:href="#m6c6188c308" x="234.381155" y="223.072387" style="stroke: #000000"/>
    </g>
   </g>
   <g id="Path3DCollection_24">
    <g clip-path="url(#pf2d40d1f2d)">
     <use xlink:href="#m6c6188c308" x="218.846991" y="221.791813" style="stroke: #000000"/>
    </g>
   </g>
   <g id="Path3DCollection_25">
    <g clip-path="url(#pf2d40d1f2d)">
     <use xlink:href="#m6c6188c308" x="257.694765" y="203.144295" style="stroke: #000000"/>
    </g>
   </g>
   <g id="Path3DCollection_26">
    <g clip-path="url(#pf2d40d1f2d)">
     <use xlink:href="#m6c6188c308" x="266.762462" y="189.118102" style="stroke: #000000"/>
    </g>
   </g>
   <g id="Path3DCollection_27">
    <g clip-path="url(#pf2d40d1f2d)">
     <use xlink:href="#m6c6188c308" x="269.672862" y="198.459394" style="stroke: #000000"/>
    </g>
   </g>
   <g id="Path3DCollection_28">
    <g clip-path="url(#pf2d40d1f2d)">
     <use xlink:href="#m6c6188c308" x="252.083555" y="205.679463" style="stroke: #000000"/>
    </g>
   </g>
   <g id="Path3DCollection_29">
    <g clip-path="url(#pf2d40d1f2d)">
     <use xlink:href="#m6c6188c308" x="251.975868" y="204.381001" style="stroke: #000000"/>
    </g>
   </g>
   <g id="Path3DCollection_30">
    <g clip-path="url(#pf2d40d1f2d)">
     <use xlink:href="#m6c6188c308" x="217.215235" y="213.246517" style="stroke: #000000"/>
    </g>
   </g>
   <g id="Path3DCollection_31">
    <g clip-path="url(#pf2d40d1f2d)">
     <use xlink:href="#m6c6188c308" x="225.255518" y="220.883749" style="stroke: #000000"/>
    </g>
   </g>
   <g id="Path3DCollection_32">
    <g clip-path="url(#pf2d40d1f2d)">
     <use xlink:href="#m6c6188c308" x="256.428174" y="191.377077" style="stroke: #000000"/>
    </g>
   </g>
   <g id="Path3DCollection_33">
    <g clip-path="url(#pf2d40d1f2d)">
     <use xlink:href="#m6c6188c308" x="252.060375" y="207.298703" style="stroke: #000000"/>
    </g>
   </g>
   <g id="Path3DCollection_34">
    <g clip-path="url(#pf2d40d1f2d)">
     <use xlink:href="#m6c6188c308" x="246.076015" y="218.10155" style="stroke: #000000"/>
    </g>
   </g>
   <g id="Path3DCollection_35">
    <g clip-path="url(#pf2d40d1f2d)">
     <use xlink:href="#m6c6188c308" x="248.941373" y="207.218363" style="stroke: #000000"/>
    </g>
   </g>
   <g id="Path3DCollection_36">
    <g clip-path="url(#pf2d40d1f2d)">
     <use xlink:href="#m6c6188c308" x="246.291091" y="215.363127" style="stroke: #000000"/>
    </g>
   </g>
   <g id="Path3DCollection_37">
    <g clip-path="url(#pf2d40d1f2d)">
     <use xlink:href="#m6c6188c308" x="251.785132" y="215.928342" style="stroke: #000000"/>
    </g>
   </g>
   <g id="Path3DCollection_38">
    <g clip-path="url(#pf2d40d1f2d)">
     <use xlink:href="#m6c6188c308" x="247.680607" y="184.507612" style="stroke: #000000"/>
    </g>
   </g>
   <g id="Path3DCollection_39">
    <g clip-path="url(#pf2d40d1f2d)">
     <use xlink:href="#m6c6188c308" x="234.838056" y="217.81775" style="stroke: #000000"/>
    </g>
   </g>
   <g id="Path3DCollection_40">
    <g clip-path="url(#pf2d40d1f2d)">
     <use xlink:href="#m6c6188c308" x="200.513506" y="217.399405" style="stroke: #000000"/>
    </g>
   </g>
   <g id="Path3DCollection_41">
    <g clip-path="url(#pf2d40d1f2d)">
     <use xlink:href="#m6c6188c308" x="214.645171" y="226.133485" style="stroke: #000000"/>
    </g>
   </g>
   <g id="Path3DCollection_42">
    <g clip-path="url(#pf2d40d1f2d)">
     <use xlink:href="#m6c6188c308" x="227.204907" y="193.51536" style="stroke: #000000"/>
    </g>
   </g>
   <g id="Path3DCollection_43">
    <g clip-path="url(#pf2d40d1f2d)">
     <use xlink:href="#m6c6188c308" x="243.905871" y="223.831255" style="stroke: #000000"/>
    </g>
   </g>
   <g id="Path3DCollection_44">
    <g clip-path="url(#pf2d40d1f2d)">
     <use xlink:href="#m6c6188c308" x="231.552967" y="220.800867" style="stroke: #000000"/>
    </g>
   </g>
   <g id="Path3DCollection_45">
    <g clip-path="url(#pf2d40d1f2d)">
     <use xlink:href="#m6c6188c308" x="247.375877" y="194.35127" style="stroke: #000000"/>
    </g>
   </g>
   <g id="Path3DCollection_46">
    <g clip-path="url(#pf2d40d1f2d)">
     <use xlink:href="#m6c6188c308" x="263.625994" y="184.396206" style="stroke: #000000"/>
    </g>
   </g>
   <g id="Path3DCollection_47">
    <g clip-path="url(#pf2d40d1f2d)">
     <use xlink:href="#m6c6188c308" x="251.506457" y="193.520952" style="stroke: #000000"/>
    </g>
   </g>
   <g id="Path3DCollection_48">
    <g clip-path="url(#pf2d40d1f2d)">
     <use xlink:href="#m6c6188c308" x="243.528904" y="181.395115" style="stroke: #000000"/>
    </g>
   </g>
   <g id="Path3DCollection_49">
    <g clip-path="url(#pf2d40d1f2d)">
     <use xlink:href="#m6c6188c308" x="261.978364" y="195.878234" style="stroke: #000000"/>
    </g>
   </g>
   <g id="Path3DCollection_50">
    <g clip-path="url(#pf2d40d1f2d)">
     <use xlink:href="#m6c6188c308" x="213.288749" y="187.471434" style="stroke: #000000"/>
    </g>
   </g>
   <g id="Path3DCollection_51">
    <g clip-path="url(#pf2d40d1f2d)">
     <use xlink:href="#m6c6188c308" x="235.524988" y="221.5493" style="stroke: #000000"/>
    </g>
   </g>
   <g id="Path3DCollection_52">
    <g clip-path="url(#pf2d40d1f2d)">
     <use xlink:href="#m6c6188c308" x="218.943728" y="203.524829" style="stroke: #000000"/>
    </g>
   </g>
   <g id="Path3DCollection_53">
    <g clip-path="url(#pf2d40d1f2d)">
     <use xlink:href="#m6c6188c308" x="214.851343" y="209.271418" style="stroke: #000000"/>
    </g>
   </g>
   <g id="Path3DCollection_54">
    <g clip-path="url(#pf2d40d1f2d)">
     <use xlink:href="#m6c6188c308" x="239.626502" y="189.4407" style="stroke: #000000"/>
    </g>
   </g>
   <g id="Path3DCollection_55">
    <g clip-path="url(#pf2d40d1f2d)">
     <use xlink:href="#m6c6188c308" x="257.501103" y="207.220517" style="stroke: #000000"/>
    </g>
   </g>
   <g id="Path3DCollection_56">
    <g clip-path="url(#pf2d40d1f2d)">
     <use xlink:href="#m6c6188c308" x="210.812333" y="212.264052" style="stroke: #000000"/>
    </g>
   </g>
   <g id="Path3DCollection_57">
    <g clip-path="url(#pf2d40d1f2d)">
     <use xlink:href="#m6c6188c308" x="242.825504" y="206.699551" style="stroke: #000000"/>
    </g>
   </g>
   <g id="Path3DCollection_58">
    <g clip-path="url(#pf2d40d1f2d)">
     <use xlink:href="#m6c6188c308" x="257.554539" y="172.508632" style="stroke: #000000"/>
    </g>
   </g>
   <g id="Path3DCollection_59">
    <g clip-path="url(#pf2d40d1f2d)">
     <use xlink:href="#m6c6188c308" x="236.940143" y="225.217886" style="stroke: #000000"/>
    </g>
   </g>
   <g id="Path3DCollection_60">
    <g clip-path="url(#pf2d40d1f2d)">
     <use xlink:href="#m6c6188c308" x="256.870005" y="202.710025" style="stroke: #000000"/>
    </g>
   </g>
   <g id="Path3DCollection_61">
    <g clip-path="url(#pf2d40d1f2d)">
     <use xlink:href="#m6c6188c308" x="256.294951" y="219.282276" style="stroke: #000000"/>
    </g>
   </g>
   <g id="Path3DCollection_62">
    <g clip-path="url(#pf2d40d1f2d)">
     <use xlink:href="#m6c6188c308" x="239.630685" y="213.920243" style="stroke: #000000"/>
    </g>
   </g>
   <g id="Path3DCollection_63">
    <g clip-path="url(#pf2d40d1f2d)">
     <use xlink:href="#m6c6188c308" x="228.811738" y="211.156241" style="stroke: #000000"/>
    </g>
   </g>
   <g id="Path3DCollection_64">
    <g clip-path="url(#pf2d40d1f2d)">
     <use xlink:href="#m6c6188c308" x="227.696071" y="214.962359" style="stroke: #000000"/>
    </g>
   </g>
   <g id="Path3DCollection_65">
    <g clip-path="url(#pf2d40d1f2d)">
     <use xlink:href="#m6c6188c308" x="234.682574" y="209.624875" style="stroke: #000000"/>
    </g>
   </g>
   <g id="Path3DCollection_66">
    <g clip-path="url(#pf2d40d1f2d)">
     <use xlink:href="#m6c6188c308" x="190.287943" y="227.366404" style="stroke: #000000"/>
    </g>
   </g>
   <g id="Path3DCollection_67">
    <defs>
     <path id="mebd0f50491" d="M 0 0.612372
C 0.162403 0.612372 0.318176 0.547849 0.433013 0.433013
C 0.547849 0.318176 0.612372 0.162403 0.612372 0
C 0.612372 -0.162403 0.547849 -0.318176 0.433013 -0.433013
C 0.318176 -0.547849 0.162403 -0.612372 0 -0.612372
C -0.162403 -0.612372 -0.318176 -0.547849 -0.433013 -0.433013
C -0.547849 -0.318176 -0.612372 -0.162403 -0.612372 0
C -0.612372 0.162403 -0.547849 0.318176 -0.433013 0.433013
C -0.318176 0.547849 -0.162403 0.612372 0 0.612372
z
" style="stroke: #000000"/>
    </defs>
    <g clip-path="url(#pf2d40d1f2d)">
     <use xlink:href="#mebd0f50491" x="248.821906" y="224.736407" style="stroke: #000000"/>
    </g>
   </g>
   <g id="Path3DCollection_68">
    <g clip-path="url(#pf2d40d1f2d)">
     <use xlink:href="#m6c6188c308" x="255.638991" y="192.546298" style="stroke: #000000"/>
    </g>
   </g>
   <g id="Path3DCollection_69">
    <g clip-path="url(#pf2d40d1f2d)">
     <use xlink:href="#m6c6188c308" x="213.580938" y="198.752445" style="stroke: #000000"/>
    </g>
   </g>
   <g id="Path3DCollection_70">
    <g clip-path="url(#pf2d40d1f2d)">
     <use xlink:href="#m6c6188c308" x="223.170657" y="180.408817" style="stroke: #000000"/>
    </g>
   </g>
   <g id="Path3DCollection_71">
    <g clip-path="url(#pf2d40d1f2d)">
     <use xlink:href="#m6c6188c308" x="220.534365" y="210.408489" style="stroke: #000000"/>
    </g>
   </g>
   <g id="Path3DCollection_72">
    <g clip-path="url(#pf2d40d1f2d)">
     <use xlink:href="#m6c6188c308" x="236.929539" y="215.259721" style="stroke: #000000"/>
    </g>
   </g>
   <g id="Path3DCollection_73">
    <g clip-path="url(#pf2d40d1f2d)">
     <use xlink:href="#m6c6188c308" x="231.325572" y="202.682569" style="stroke: #000000"/>
    </g>
   </g>
   <g id="Path3DCollection_74">
    <g clip-path="url(#pf2d40d1f2d)">
     <use xlink:href="#m6c6188c308" x="231.05264" y="232.259311" style="stroke: #000000"/>
    </g>
   </g>
   <g id="Path3DCollection_75">
    <g clip-path="url(#pf2d40d1f2d)">
     <use xlink:href="#m6c6188c308" x="239.941819" y="221.845923" style="stroke: #000000"/>
    </g>
   </g>
   <g id="Path3DCollection_76">
    <g clip-path="url(#pf2d40d1f2d)">
     <use xlink:href="#m6c6188c308" x="225.233039" y="204.810045" style="stroke: #000000"/>
    </g>
   </g>
   <g id="Path3DCollection_77">
    <g clip-path="url(#pf2d40d1f2d)">
     <use xlink:href="#m6c6188c308" x="213.518868" y="213.93229" style="stroke: #000000"/>
    </g>
   </g>
   <g id="Path3DCollection_78">
    <g clip-path="url(#pf2d40d1f2d)">
     <use xlink:href="#m6c6188c308" x="264.238063" y="230.622983" style="stroke: #000000"/>
    </g>
   </g>
   <g id="Path3DCollection_79">
    <g clip-path="url(#pf2d40d1f2d)">
     <use xlink:href="#m6c6188c308" x="263.217344" y="216.104157" style="stroke: #000000"/>
    </g>
   </g>
   <g id="Path3DCollection_80">
    <g clip-path="url(#pf2d40d1f2d)">
     <use xlink:href="#m6c6188c308" x="217.392475" y="221.327295" style="stroke: #000000"/>
    </g>
   </g>
   <g id="Path3DCollection_81">
    <g clip-path="url(#pf2d40d1f2d)">
     <use xlink:href="#m6c6188c308" x="267.004149" y="227.290658" style="stroke: #000000"/>
    </g>
   </g>
   <g id="Path3DCollection_82">
    <g clip-path="url(#pf2d40d1f2d)">
     <use xlink:href="#m6c6188c308" x="229.512164" y="188.719709" style="stroke: #000000"/>
    </g>
   </g>
   <g id="Path3DCollection_83">
    <g clip-path="url(#pf2d40d1f2d)">
     <use xlink:href="#m6c6188c308" x="211.50405" y="224.172303" style="stroke: #000000"/>
    </g>
   </g>
   <g id="Path3DCollection_84">
    <g clip-path="url(#pf2d40d1f2d)">
     <use xlink:href="#m6c6188c308" x="241.050841" y="223.851224" style="stroke: #000000"/>
    </g>
   </g>
   <g id="Path3DCollection_85">
    <g clip-path="url(#pf2d40d1f2d)">
     <use xlink:href="#m6c6188c308" x="219.295939" y="224.678165" style="stroke: #000000"/>
    </g>
   </g>
   <g id="Path3DCollection_86">
    <g clip-path="url(#pf2d40d1f2d)">
     <use xlink:href="#m6c6188c308" x="266.529602" y="204.429374" style="stroke: #000000"/>
    </g>
   </g>
   <g id="Path3DCollection_87">
    <g clip-path="url(#pf2d40d1f2d)">
     <use xlink:href="#m6c6188c308" x="244.885497" y="216.576204" style="stroke: #000000"/>
    </g>
   </g>
   <g id="Path3DCollection_88">
    <g clip-path="url(#pf2d40d1f2d)">
     <use xlink:href="#m6c6188c308" x="226.720448" y="214.414515" style="stroke: #000000"/>
    </g>
   </g>
   <g id="Path3DCollection_89">
    <g clip-path="url(#pf2d40d1f2d)">
     <use xlink:href="#m6c6188c308" x="236.935932" y="226.61039" style="stroke: #000000"/>
    </g>
   </g>
   <g id="Path3DCollection_90">
    <g clip-path="url(#pf2d40d1f2d)">
     <use xlink:href="#m6c6188c308" x="184.573612" y="222.297962" style="stroke: #000000"/>
    </g>
   </g>
   <g id="Path3DCollection_91">
    <g clip-path="url(#pf2d40d1f2d)">
     <use xlink:href="#m6c6188c308" x="216.682615" y="234.210885" style="stroke: #000000"/>
    </g>
   </g>
   <g id="Path3DCollection_92">
    <g clip-path="url(#pf2d40d1f2d)">
     <use xlink:href="#m6c6188c308" x="245.652044" y="201.776653" style="stroke: #000000"/>
    </g>
   </g>
   <g id="Path3DCollection_93">
    <g clip-path="url(#pf2d40d1f2d)">
     <use xlink:href="#m6c6188c308" x="214.189214" y="212.032744" style="stroke: #000000"/>
    </g>
   </g>
   <g id="Path3DCollection_94">
    <g clip-path="url(#pf2d40d1f2d)">
     <use xlink:href="#m6c6188c308" x="237.548128" y="236.595218" style="stroke: #000000"/>
    </g>
   </g>
   <g id="Path3DCollection_95">
    <g clip-path="url(#pf2d40d1f2d)">
     <use xlink:href="#m6c6188c308" x="197.207853" y="236.599719" style="stroke: #000000"/>
    </g>
   </g>
   <g id="Path3DCollection_96">
    <g clip-path="url(#pf2d40d1f2d)">
     <use xlink:href="#m6c6188c308" x="264.32008" y="231.460005" style="stroke: #000000"/>
    </g>
   </g>
   <g id="Path3DCollection_97">
    <g clip-path="url(#pf2d40d1f2d)">
     <use xlink:href="#m6c6188c308" x="247.463537" y="191.49526" style="stroke: #000000"/>
    </g>
   </g>
   <g id="Path3DCollection_98">
    <g clip-path="url(#pf2d40d1f2d)">
     <use xlink:href="#m6c6188c308" x="236.755227" y="235.502659" style="stroke: #000000"/>
    </g>
   </g>
   <g id="Path3DCollection_99">
    <g clip-path="url(#pf2d40d1f2d)">
     <use xlink:href="#m6c6188c308" x="206.250291" y="234.895525" style="stroke: #000000"/>
    </g>
   </g>
   <g id="Path3DCollection_100">
    <g clip-path="url(#pf2d40d1f2d)">
     <use xlink:href="#m6c6188c308" x="208.001273" y="216.588529" style="stroke: #000000"/>
    </g>
   </g>
   <g id="Path3DCollection_101">
    <g clip-path="url(#pf2d40d1f2d)">
     <use xlink:href="#m6c6188c308" x="233.962268" y="232.49647" style="stroke: #000000"/>
    </g>
   </g>
   <g id="Path3DCollection_102">
    <g clip-path="url(#pf2d40d1f2d)">
     <use xlink:href="#mebd0f50491" x="255.784604" y="186.770814" style="stroke: #000000"/>
    </g>
   </g>
   <g id="Path3DCollection_103">
    <g clip-path="url(#pf2d40d1f2d)">
     <use xlink:href="#m6c6188c308" x="213.499784" y="233.646887" style="stroke: #000000"/>
    </g>
   </g>
   <g id="Path3DCollection_104">
    <g clip-path="url(#pf2d40d1f2d)">
     <use xlink:href="#m6c6188c308" x="222.130333" y="231.477832" style="stroke: #000000"/>
    </g>
   </g>
   <g id="Path3DCollection_105">
    <g clip-path="url(#pf2d40d1f2d)">
     <use xlink:href="#m6c6188c308" x="231.375659" y="233.544543" style="stroke: #000000"/>
    </g>
   </g>
   <g id="Path3DCollection_106">
    <g clip-path="url(#pf2d40d1f2d)">
     <use xlink:href="#m6c6188c308" x="254.891479" y="188.41668" style="stroke: #000000"/>
    </g>
   </g>
   <g id="Path3DCollection_107">
    <g clip-path="url(#pf2d40d1f2d)">
     <use xlink:href="#m6c6188c308" x="247.099348" y="203.560785" style="stroke: #000000"/>
    </g>
   </g>
   <g id="Path3DCollection_108">
    <g clip-path="url(#pf2d40d1f2d)">
     <use xlink:href="#m6c6188c308" x="214.749348" y="226.921906" style="stroke: #000000"/>
    </g>
   </g>
   <g id="Path3DCollection_109">
    <g clip-path="url(#pf2d40d1f2d)">
     <use xlink:href="#mebd0f50491" x="233.980687" y="239.659137" style="stroke: #000000"/>
    </g>
   </g>
   <g id="Path3DCollection_110">
    <g clip-path="url(#pf2d40d1f2d)">
     <use xlink:href="#m6c6188c308" x="237.169206" y="229.641951" style="stroke: #000000"/>
    </g>
   </g>
   <g id="Path3DCollection_111">
    <g clip-path="url(#pf2d40d1f2d)">
     <use xlink:href="#m6c6188c308" x="211.944663" y="222.11283" style="stroke: #000000"/>
    </g>
   </g>
   <g id="Path3DCollection_112">
    <g clip-path="url(#pf2d40d1f2d)">
     <use xlink:href="#m6c6188c308" x="212.756525" y="232.261301" style="stroke: #000000"/>
    </g>
   </g>
   <g id="Path3DCollection_113">
    <g clip-path="url(#pf2d40d1f2d)">
     <use xlink:href="#m6c6188c308" x="216.229444" y="237.952714" style="stroke: #000000"/>
    </g>
   </g>
   <g id="Path3DCollection_114">
    <g clip-path="url(#pf2d40d1f2d)">
     <use xlink:href="#m6c6188c308" x="202.610522" y="230.946592" style="stroke: #000000"/>
    </g>
   </g>
   <g id="Path3DCollection_115">
    <g clip-path="url(#pf2d40d1f2d)">
     <use xlink:href="#m6c6188c308" x="231.035632" y="236.198108" style="stroke: #000000"/>
    </g>
   </g>
   <g id="Path3DCollection_116">
    <g clip-path="url(#pf2d40d1f2d)">
     <use xlink:href="#m6c6188c308" x="239.912347" y="226.143852" style="stroke: #000000"/>
    </g>
   </g>
   <g id="Path3DCollection_117">
    <g clip-path="url(#pf2d40d1f2d)">
     <use xlink:href="#m6c6188c308" x="240.619359" y="244.023659" style="stroke: #000000"/>
    </g>
   </g>
  </g>
 </g>
 <defs>
  <clipPath id="pf2d40d1f2d">
   <rect x="103.104" y="41.472" width="266.112" height="266.112"/>
  </clipPath>
 </defs>
</svg>
