<?xml version="1.0" encoding="utf-8" standalone="no"?>
<!DOCTYPE svg PUBLIC "-//W3C//DTD SVG 1.1//EN"
  "http://www.w3.org/Graphics/SVG/1.1/DTD/svg11.dtd">
<svg xmlns:xlink="http://www.w3.org/1999/xlink" width="460.8pt" height="345.6pt" viewBox="0 0 460.8 345.6" xmlns="http://www.w3.org/2000/svg" version="1.1">
 <metadata>
  <rdf:RDF xmlns:dc="http://purl.org/dc/elements/1.1/" xmlns:cc="http://creativecommons.org/ns#" xmlns:rdf="http://www.w3.org/1999/02/22-rdf-syntax-ns#">
   <cc:Work>
    <dc:type rdf:resource="http://purl.org/dc/dcmitype/StillImage"/>
    <dc:date>2023-01-31T10:41:46.904317</dc:date>
    <dc:format>image/svg+xml</dc:format>
    <dc:creator>
     <cc:Agent>
      <dc:title>Matplotlib v3.5.2, https://matplotlib.org/</dc:title>
     </cc:Agent>
    </dc:creator>
   </cc:Work>
  </rdf:RDF>
 </metadata>
 <defs>
  <style type="text/css">*{stroke-linejoin: round; stroke-linecap: butt}</style>
 </defs>
 <g id="figure_1">
  <g id="patch_1">
   <path d="M 0 345.6 
L 460.8 345.6 
L 460.8 0 
L 0 0 
z
" style="fill: #ffffff"/>
  </g>
  <g id="patch_2">
   <path d="M 103.104 307.584 
L 369.216 307.584 
L 369.216 41.472 
L 103.104 41.472 
L 103.104 307.584 
z
" style="fill: none"/>
  </g>
  <g id="pane3d_1">
   <g id="patch_3">
    <path d="M 120.13142 234.353763 
L 230.110066 188.377584 
L 229.833097 75.401058 
L 116.395582 112.911984 
" style="fill: none; opacity: 0"/>
   </g>
  </g>
  <g id="pane3d_2">
   <g id="patch_4">
    <path d="M 230.110066 188.377584 
L 357.767114 226.435771 
L 361.401311 106.438797 
L 229.833097 75.401058 
" style="fill: none; opacity: 0"/>
   </g>
  </g>
  <g id="pane3d_3">
   <g id="patch_5">
    <path d="M 120.13142 234.353763 
L 251.025539 279.424972 
L 357.767114 226.435771 
L 230.110066 188.377584 
" style="fill: none; opacity: 0"/>
   </g>
  </g>
  <g id="axis3d_1">
   <g id="line2d_1">
    <path d="M 120.13142 234.353763 
L 251.025539 279.424972 
" style="fill: none; stroke: #000000; stroke-width: 0.8; stroke-linecap: square"/>
   </g>
   <g id="text_1">
    <!-- $c_1$ -->
    <g transform="translate(167.262772 272.221476)rotate(-340.999706)scale(0.1 -0.1)">
     <defs>
      <path id="DejaVuSans-Oblique-63" d="M 3431 3366 
L 3316 2797 
Q 3109 2947 2876 3022 
Q 2644 3097 2394 3097 
Q 2119 3097 1870 3000 
Q 1622 2903 1453 2725 
Q 1184 2453 1037 2087 
Q 891 1722 891 1331 
Q 891 859 1127 628 
Q 1363 397 1844 397 
Q 2081 397 2348 469 
Q 2616 541 2906 684 
L 2797 116 
Q 2547 13 2283 -39 
Q 2019 -91 1741 -91 
Q 1044 -91 669 257 
Q 294 606 294 1253 
Q 294 1797 489 2255 
Q 684 2713 1069 3078 
Q 1331 3328 1684 3456 
Q 2038 3584 2456 3584 
Q 2700 3584 2940 3529 
Q 3181 3475 3431 3366 
z
" transform="scale(0.015625)"/>
      <path id="DejaVuSans-31" d="M 794 531 
L 1825 531 
L 1825 4091 
L 703 3866 
L 703 4441 
L 1819 4666 
L 2450 4666 
L 2450 531 
L 3481 531 
L 3481 0 
L 794 0 
L 794 531 
z
" transform="scale(0.015625)"/>
     </defs>
     <use xlink:href="#DejaVuSans-Oblique-63"/>
     <use xlink:href="#DejaVuSans-31" transform="translate(54.980469 -16.40625)scale(0.7)"/>
    </g>
   </g>
   <g id="xtick_1">
    <g id="line2d_2">
     <path d="M 123.51975 234.792166 
L 120.654877 235.993609 
" style="fill: none; stroke: #000000; stroke-width: 0.8; stroke-linecap: square"/>
    </g>
    <g id="text_2">
     <!-- 0 -->
     <g transform="translate(117.713474 245.21573)scale(0.1 -0.1)">
      <defs>
       <path id="DejaVuSans-30" d="M 2034 4250 
Q 1547 4250 1301 3770 
Q 1056 3291 1056 2328 
Q 1056 1369 1301 889 
Q 1547 409 2034 409 
Q 2525 409 2770 889 
Q 3016 1369 3016 2328 
Q 3016 3291 2770 3770 
Q 2525 4250 2034 4250 
z
M 2034 4750 
Q 2819 4750 3233 4129 
Q 3647 3509 3647 2328 
Q 3647 1150 3233 529 
Q 2819 -91 2034 -91 
Q 1250 -91 836 529 
Q 422 1150 422 2328 
Q 422 3509 836 4129 
Q 1250 4750 2034 4750 
z
" transform="scale(0.015625)"/>
      </defs>
      <use xlink:href="#DejaVuSans-30"/>
     </g>
    </g>
   </g>
   <g id="xtick_2">
    <g id="line2d_3">
     <path d="M 153.283753 245.028213 
L 150.430794 246.271938 
" style="fill: none; stroke: #000000; stroke-width: 0.8; stroke-linecap: square"/>
    </g>
   </g>
   <g id="xtick_3">
    <g id="line2d_4">
     <path d="M 184.103471 255.627328 
L 181.265085 256.915606 
" style="fill: none; stroke: #000000; stroke-width: 0.8; stroke-linecap: square"/>
    </g>
    <g id="text_3">
     <!-- $\pi/2$ -->
     <g transform="translate(173.777571 266.18302)scale(0.1 -0.1)">
      <defs>
       <path id="DejaVuSans-Oblique-3c0" d="M 584 3500 
L 3938 3500 
L 3825 2925 
L 3384 2925 
L 2966 775 
Q 2922 550 2981 450 
Q 3038 353 3209 353 
Q 3256 353 3325 363 
Q 3397 369 3419 372 
L 3338 -44 
Q 3222 -84 3103 -103 
Q 2981 -122 2866 -122 
Q 2491 -122 2388 81 
Q 2284 288 2391 838 
L 2797 2925 
L 1506 2925 
L 938 0 
L 350 0 
L 919 2925 
L 472 2925 
L 584 3500 
z
" transform="scale(0.015625)"/>
       <path id="DejaVuSans-2f" d="M 1625 4666 
L 2156 4666 
L 531 -594 
L 0 -594 
L 1625 4666 
z
" transform="scale(0.015625)"/>
       <path id="DejaVuSans-32" d="M 1228 531 
L 3431 531 
L 3431 0 
L 469 0 
L 469 531 
Q 828 903 1448 1529 
Q 2069 2156 2228 2338 
Q 2531 2678 2651 2914 
Q 2772 3150 2772 3378 
Q 2772 3750 2511 3984 
Q 2250 4219 1831 4219 
Q 1534 4219 1204 4116 
Q 875 4013 500 3803 
L 500 4441 
Q 881 4594 1212 4672 
Q 1544 4750 1819 4750 
Q 2544 4750 2975 4387 
Q 3406 4025 3406 3419 
Q 3406 3131 3298 2873 
Q 3191 2616 2906 2266 
Q 2828 2175 2409 1742 
Q 1991 1309 1228 531 
z
" transform="scale(0.015625)"/>
      </defs>
      <use xlink:href="#DejaVuSans-Oblique-3c0" transform="translate(0 0.78125)"/>
      <use xlink:href="#DejaVuSans-2f" transform="translate(60.205078 0.78125)"/>
      <use xlink:href="#DejaVuSans-32" transform="translate(90.271484 0.78125)"/>
     </g>
    </g>
   </g>
   <g id="xtick_4">
    <g id="line2d_5">
     <path d="M 216.036085 266.609176 
L 213.2152 267.944445 
" style="fill: none; stroke: #000000; stroke-width: 0.8; stroke-linecap: square"/>
    </g>
   </g>
   <g id="xtick_5">
    <g id="line2d_6">
     <path d="M 249.142985 277.994869 
L 246.342823 279.379747 
" style="fill: none; stroke: #000000; stroke-width: 0.8; stroke-linecap: square"/>
    </g>
    <g id="text_4">
     <!-- $\pi$ -->
     <g transform="translate(243.473191 288.694843)scale(0.1 -0.1)">
      <use xlink:href="#DejaVuSans-Oblique-3c0" transform="translate(0 0.3125)"/>
     </g>
    </g>
   </g>
  </g>
  <g id="axis3d_2">
   <g id="line2d_7">
    <path d="M 357.767114 226.435771 
L 251.025539 279.424972 
" style="fill: none; stroke: #000000; stroke-width: 0.8; stroke-linecap: square"/>
   </g>
   <g id="text_5">
    <!-- $c_2$ -->
    <g transform="translate(310.268389 264.888567)rotate(-26.400958)scale(0.1 -0.1)">
     <use xlink:href="#DejaVuSans-Oblique-63"/>
     <use xlink:href="#DejaVuSans-32" transform="translate(54.980469 -16.40625)scale(0.7)"/>
    </g>
   </g>
   <g id="xtick_6">
    <g id="line2d_8">
     <path d="M 252.225236 277.883719 
L 255.60809 279.044949 
" style="fill: none; stroke: #000000; stroke-width: 0.8; stroke-linecap: square"/>
    </g>
    <g id="text_6">
     <!-- 0 -->
     <g transform="translate(257.409253 286.043304)scale(0.1 -0.1)">
      <use xlink:href="#DejaVuSans-30"/>
     </g>
    </g>
   </g>
   <g id="xtick_7">
    <g id="line2d_9">
     <path d="M 274.135459 267.023223 
L 277.499594 268.144758 
" style="fill: none; stroke: #000000; stroke-width: 0.8; stroke-linecap: square"/>
    </g>
   </g>
   <g id="xtick_8">
    <g id="line2d_10">
     <path d="M 295.30365 256.530539 
L 298.648381 257.614379 
" style="fill: none; stroke: #000000; stroke-width: 0.8; stroke-linecap: square"/>
    </g>
   </g>
   <g id="xtick_9">
    <g id="line2d_11">
     <path d="M 315.766876 246.387293 
L 319.091618 247.435307 
" style="fill: none; stroke: #000000; stroke-width: 0.8; stroke-linecap: square"/>
    </g>
   </g>
   <g id="xtick_10">
    <g id="line2d_12">
     <path d="M 335.559778 236.576314 
L 338.864032 237.59025 
" style="fill: none; stroke: #000000; stroke-width: 0.8; stroke-linecap: square"/>
    </g>
   </g>
   <g id="xtick_11">
    <g id="line2d_13">
     <path d="M 354.714762 227.08154 
L 357.998109 228.063033 
" style="fill: none; stroke: #000000; stroke-width: 0.8; stroke-linecap: square"/>
    </g>
    <g id="text_7">
     <!-- $\pi/2$ -->
     <g transform="translate(359.658255 234.717071)scale(0.1 -0.1)">
      <use xlink:href="#DejaVuSans-Oblique-3c0" transform="translate(0 0.78125)"/>
      <use xlink:href="#DejaVuSans-2f" transform="translate(60.205078 0.78125)"/>
      <use xlink:href="#DejaVuSans-32" transform="translate(90.271484 0.78125)"/>
     </g>
    </g>
   </g>
  </g>
  <g id="axis3d_3">
   <g id="line2d_14">
    <path d="M 120.13142 234.353763 
L 116.395582 112.911984 
" style="fill: none; stroke: #000000; stroke-width: 0.8; stroke-linecap: square"/>
   </g>
   <g id="text_8">
    <!-- $c_3$ -->
    <g transform="translate(108.688672 180.086376)rotate(-90)scale(0.1 -0.1)">
     <defs>
      <path id="DejaVuSans-33" d="M 2597 2516 
Q 3050 2419 3304 2112 
Q 3559 1806 3559 1356 
Q 3559 666 3084 287 
Q 2609 -91 1734 -91 
Q 1441 -91 1130 -33 
Q 819 25 488 141 
L 488 750 
Q 750 597 1062 519 
Q 1375 441 1716 441 
Q 2309 441 2620 675 
Q 2931 909 2931 1356 
Q 2931 1769 2642 2001 
Q 2353 2234 1838 2234 
L 1294 2234 
L 1294 2753 
L 1863 2753 
Q 2328 2753 2575 2939 
Q 2822 3125 2822 3475 
Q 2822 3834 2567 4026 
Q 2313 4219 1838 4219 
Q 1578 4219 1281 4162 
Q 984 4106 628 3988 
L 628 4550 
Q 988 4650 1302 4700 
Q 1616 4750 1894 4750 
Q 2613 4750 3031 4423 
Q 3450 4097 3450 3541 
Q 3450 3153 3228 2886 
Q 3006 2619 2597 2516 
z
" transform="scale(0.015625)"/>
     </defs>
     <use xlink:href="#DejaVuSans-Oblique-63"/>
     <use xlink:href="#DejaVuSans-33" transform="translate(54.980469 -16.40625)scale(0.7)"/>
    </g>
   </g>
   <g id="xtick_12">
    <g id="line2d_15">
     <path d="M 121.032506 232.33096 
L 118.115085 231.330385 
" style="fill: none; stroke: #000000; stroke-width: 0.8; stroke-linecap: square"/>
    </g>
    <g id="text_9">
     <!-- 0 -->
     <g transform="translate(106.73748 234.987368)scale(0.1 -0.1)">
      <use xlink:href="#DejaVuSans-30"/>
     </g>
    </g>
   </g>
   <g id="xtick_13">
    <g id="line2d_16">
     <path d="M 120.337326 209.549242 
L 117.404048 208.582015 
" style="fill: none; stroke: #000000; stroke-width: 0.8; stroke-linecap: square"/>
    </g>
   </g>
   <g id="xtick_14">
    <g id="line2d_17">
     <path d="M 119.633958 186.499158 
L 116.68465 185.566136 
" style="fill: none; stroke: #000000; stroke-width: 0.8; stroke-linecap: square"/>
    </g>
   </g>
   <g id="xtick_15">
    <g id="line2d_18">
     <path d="M 118.922255 163.175938 
L 115.956742 162.278001 
" style="fill: none; stroke: #000000; stroke-width: 0.8; stroke-linecap: square"/>
    </g>
   </g>
   <g id="xtick_16">
    <g id="line2d_19">
     <path d="M 118.202068 139.5747 
L 115.220173 138.712751 
" style="fill: none; stroke: #000000; stroke-width: 0.8; stroke-linecap: square"/>
    </g>
   </g>
   <g id="xtick_17">
    <g id="line2d_20">
     <path d="M 117.473245 115.690441 
L 114.474786 114.865411 
" style="fill: none; stroke: #000000; stroke-width: 0.8; stroke-linecap: square"/>
    </g>
    <g id="text_10">
     <!-- $\pi/2$ -->
     <g transform="translate(93.903596 118.36491)scale(0.1 -0.1)">
      <use xlink:href="#DejaVuSans-Oblique-3c0" transform="translate(0 0.78125)"/>
      <use xlink:href="#DejaVuSans-2f" transform="translate(60.205078 0.78125)"/>
      <use xlink:href="#DejaVuSans-32" transform="translate(90.271484 0.78125)"/>
     </g>
    </g>
   </g>
  </g>
  <g id="axes_1">
   <g id="line2d_21">
    <path d="M 124.878245 231.83712 
L 289.799159 205.402692 
" clip-path="url(#pf42a648ce8)" style="fill: none; stroke-dasharray: 1.85,0.8; stroke-dashoffset: 0; stroke: #000000; stroke-width: 0.5"/>
   </g>
   <g id="line2d_22">
    <path d="M 271.321355 238.071532 
L 185.484143 252.558577 
" clip-path="url(#pf42a648ce8)" style="fill: none; stroke-dasharray: 1.85,0.8; stroke-dashoffset: 0; stroke: #000000; stroke-width: 0.5"/>
   </g>
   <g id="line2d_23">
    <path d="M 209.246657 218.314089 
L 185.484143 252.558577 
" clip-path="url(#pf42a648ce8)" style="fill: none; stroke-dasharray: 1.85,0.8; stroke-dashoffset: 0; stroke: #000000; stroke-width: 0.5"/>
   </g>
   <g id="line2d_24">
    <path d="M 208.807036 162.049849 
L 209.246657 218.314089 
" clip-path="url(#pf42a648ce8)" style="fill: none; stroke-dasharray: 1.85,0.8; stroke-dashoffset: 0; stroke: #000000; stroke-width: 0.5"/>
   </g>
   <g id="line2d_25">
    <path d="M 208.807036 162.049849 
L 289.799159 205.402692 
" clip-path="url(#pf42a648ce8)" style="fill: none; stroke-dasharray: 1.85,0.8; stroke-dashoffset: 0; stroke: #000000; stroke-width: 0.5"/>
   </g>
   <g id="line2d_26">
    <path d="M 124.878245 231.83712 
L 250.545482 274.80337 
" clip-path="url(#pf42a648ce8)" style="fill: none; stroke: #000000; stroke-width: 0.5; stroke-linecap: square"/>
   </g>
   <g id="line2d_27">
    <path d="M 250.545482 274.80337 
L 289.799159 205.402692 
" clip-path="url(#pf42a648ce8)" style="fill: none; stroke: #000000; stroke-width: 0.5; stroke-linecap: square"/>
   </g>
   <g id="line2d_28">
    <path d="M 289.799159 205.402692 
L 291.228382 93.516029 
" clip-path="url(#pf42a648ce8)" style="fill: none; stroke: #000000; stroke-width: 0.5; stroke-linecap: square"/>
   </g>
   <g id="line2d_29">
    <path d="M 291.228382 93.516029 
L 250.545482 274.80337 
" clip-path="url(#pf42a648ce8)" style="fill: none; stroke: #000000; stroke-width: 0.5; stroke-linecap: square"/>
   </g>
   <g id="line2d_30">
    <path d="M 291.228382 93.516029 
L 124.878245 231.83712 
" clip-path="url(#pf42a648ce8)" style="fill: none; stroke: #000000; stroke-width: 0.5; stroke-linecap: square"/>
   </g>
   <g id="line2d_31">
    <path d="M 185.484143 252.558577 
L 271.792164 180.125887 
" clip-path="url(#pf42a648ce8)" style="fill: none; stroke: #000000; stroke-width: 0.5; stroke-linecap: square"/>
   </g>
   <g id="line2d_32">
    <path d="M 185.484143 252.558577 
L 208.807036 162.049849 
" clip-path="url(#pf42a648ce8)" style="fill: none; stroke: #000000; stroke-width: 0.5; stroke-linecap: square"/>
   </g>
   <g id="line2d_33">
    <path d="M 271.792164 180.125887 
L 208.807036 162.049849 
" clip-path="url(#pf42a648ce8)" style="fill: none; stroke: #000000; stroke-width: 0.5; stroke-linecap: square"/>
   </g>
   <g id="line2d_34">
    <path d="M 271.792164 180.125887 
L 289.799159 205.402692 
" clip-path="url(#pf42a648ce8)" style="fill: none; stroke: #000000; stroke-width: 0.5; stroke-linecap: square"/>
   </g>
   <g id="line2d_35">
    <path d="M 271.792164 180.125887 
L 271.321355 238.071532 
" clip-path="url(#pf42a648ce8)" style="fill: none; stroke: #000000; stroke-width: 0.5; stroke-linecap: square"/>
   </g>
   <g id="Path3DCollection_1">
    <defs>
     <path id="m0d958b9aa2" d="M 0 4.974937 
C 1.319369 4.974937 2.584877 4.450746 3.517812 3.517812 
C 4.450746 2.584877 4.974937 1.319369 4.974937 0 
C 4.974937 -1.319369 4.450746 -2.584877 3.517812 -3.517812 
C 2.584877 -4.450746 1.319369 -4.974937 0 -4.974937 
C -1.319369 -4.974937 -2.584877 -4.450746 -3.517812 -3.517812 
C -4.450746 -2.584877 -4.974937 -1.319369 -4.974937 0 
C -4.974937 1.319369 -4.450746 2.584877 -3.517812 3.517812 
C -2.584877 4.450746 -1.319369 4.974937 0 4.974937 
z
" style="stroke: #000000"/>
    </defs>
    <g clip-path="url(#pf42a648ce8)">
     <use xlink:href="#m0d958b9aa2" x="289.799159" y="205.402692" style="stroke: #000000"/>
    </g>
   </g>
   <g id="Path3DCollection_2">
    <defs>
     <path id="m907a39afe8" d="M 0 0.866025 
C 0.229673 0.866025 0.449969 0.774776 0.612372 0.612372 
C 0.774776 0.449969 0.866025 0.229673 0.866025 0 
C 0.866025 -0.229673 0.774776 -0.449969 0.612372 -0.612372 
C 0.449969 -0.774776 0.229673 -0.866025 0 -0.866025 
C -0.229673 -0.866025 -0.449969 -0.774776 -0.612372 -0.612372 
C -0.774776 -0.449969 -0.866025 -0.229673 -0.866025 0 
C -0.866025 0.229673 -0.774776 0.449969 -0.612372 0.612372 
C -0.449969 0.774776 -0.229673 0.866025 0 0.866025 
z
" style="stroke: #000000"/>
    </defs>
    <g clip-path="url(#pf42a648ce8)">
     <use xlink:href="#m907a39afe8" x="290.503709" y="150.24698" style="stroke: #000000"/>
    </g>
   </g>
   <g id="Path3DCollection_3">
    <defs>
     <path id="ma91f6c425d" d="M 0 0.75 
C 0.198902 0.75 0.389685 0.670975 0.53033 0.53033 
C 0.670975 0.389685 0.75 0.198902 0.75 0 
C 0.75 -0.198902 0.670975 -0.389685 0.53033 -0.53033 
C 0.389685 -0.670975 0.198902 -0.75 0 -0.75 
C -0.198902 -0.75 -0.389685 -0.670975 -0.53033 -0.53033 
C -0.670975 -0.389685 -0.75 -0.198902 -0.75 0 
C -0.75 0.198902 -0.670975 0.389685 -0.53033 0.53033 
C -0.389685 0.670975 -0.198902 0.75 0 0.75 
z
" style="stroke: #000000"/>
    </defs>
    <g clip-path="url(#pf42a648ce8)">
     <use xlink:href="#ma91f6c425d" x="290.863477" y="122.082597" style="stroke: #000000"/>
    </g>
   </g>
   <g id="Path3DCollection_4">
    <defs>
     <path id="mf4b9f8eb6d" d="M 0 1.145644 
C 0.303828 1.145644 0.595254 1.024932 0.810093 0.810093 
C 1.024932 0.595254 1.145644 0.303828 1.145644 0 
C 1.145644 -0.303828 1.024932 -0.595254 0.810093 -0.810093 
C 0.595254 -1.024932 0.303828 -1.145644 0 -1.145644 
C -0.303828 -1.145644 -0.595254 -1.024932 -0.810093 -0.810093 
C -1.024932 -0.595254 -1.145644 -0.303828 -1.145644 0 
C -1.145644 0.303828 -1.024932 0.595254 -0.810093 0.810093 
C -0.595254 1.024932 -0.303828 1.145644 0 1.145644 
z
" style="stroke: #000000"/>
    </defs>
    <g clip-path="url(#pf42a648ce8)">
     <use xlink:href="#mf4b9f8eb6d" x="291.04528" y="107.850123" style="stroke: #000000"/>
    </g>
   </g>
   <g id="Path3DCollection_5">
    <g clip-path="url(#pf42a648ce8)">
     <use xlink:href="#mf4b9f8eb6d" x="291.136668" y="100.695846" style="stroke: #000000"/>
    </g>
   </g>
   <g id="Path3DCollection_6">
    <g clip-path="url(#pf42a648ce8)">
     <use xlink:href="#ma91f6c425d" x="291.182484" y="97.109138" style="stroke: #000000"/>
    </g>
   </g>
   <g id="Path3DCollection_7">
    <defs>
     <path id="mf0d919745a" d="M 0 0.968246 
C 0.256782 0.968246 0.503081 0.866225 0.684653 0.684653 
C 0.866225 0.503081 0.968246 0.256782 0.968246 0 
C 0.968246 -0.256782 0.866225 -0.503081 0.684653 -0.684653 
C 0.503081 -0.866225 0.256782 -0.968246 0 -0.968246 
C -0.256782 -0.968246 -0.503081 -0.866225 -0.684653 -0.684653 
C -0.866225 -0.503081 -0.968246 -0.256782 -0.968246 0 
C -0.968246 0.256782 -0.866225 0.503081 -0.684653 0.684653 
C -0.503081 0.866225 -0.256782 0.968246 0 0.968246 
z
" style="stroke: #000000"/>
    </defs>
    <g clip-path="url(#pf42a648ce8)">
     <use xlink:href="#mf0d919745a" x="291.205422" y="95.313385" style="stroke: #000000"/>
    </g>
   </g>
   <g id="Path3DCollection_8">
    <g clip-path="url(#pf42a648ce8)">
     <use xlink:href="#m907a39afe8" x="291.216899" y="94.414907" style="stroke: #000000"/>
    </g>
   </g>
   <g id="Path3DCollection_9">
    <g clip-path="url(#pf42a648ce8)">
     <use xlink:href="#m907a39afe8" x="291.22264" y="93.965517" style="stroke: #000000"/>
    </g>
   </g>
   <g id="Path3DCollection_10">
    <defs>
     <path id="m5d90c2aa49" d="M 0 0.612372 
C 0.162403 0.612372 0.318176 0.547849 0.433013 0.433013 
C 0.547849 0.318176 0.612372 0.162403 0.612372 0 
C 0.612372 -0.162403 0.547849 -0.318176 0.433013 -0.433013 
C 0.318176 -0.547849 0.162403 -0.612372 0 -0.612372 
C -0.162403 -0.612372 -0.318176 -0.547849 -0.433013 -0.433013 
C -0.547849 -0.318176 -0.612372 -0.162403 -0.612372 0 
C -0.612372 0.162403 -0.547849 0.318176 -0.433013 0.433013 
C -0.318176 0.547849 -0.162403 0.612372 0 0.612372 
z
" style="stroke: #000000"/>
    </defs>
    <g clip-path="url(#pf42a648ce8)">
     <use xlink:href="#m5d90c2aa49" x="291.225511" y="93.740785" style="stroke: #000000"/>
    </g>
   </g>
   <g id="Path3DCollection_11">
    <g clip-path="url(#pf42a648ce8)">
     <use xlink:href="#m5d90c2aa49" x="291.226946" y="93.62841" style="stroke: #000000"/>
    </g>
   </g>
   <g id="Path3DCollection_12">
    <g clip-path="url(#pf42a648ce8)">
     <use xlink:href="#ma91f6c425d" x="291.227664" y="93.57222" style="stroke: #000000"/>
    </g>
   </g>
   <g id="Path3DCollection_13">
    <defs>
     <path id="m2cb05b3491" d="M 0 11.283284 
C 2.992362 11.283284 5.862567 10.094406 7.978487 7.978487 
C 10.094406 5.862567 11.283284 2.992362 11.283284 0 
C 11.283284 -2.992362 10.094406 -5.862567 7.978487 -7.978487 
C 5.862567 -10.094406 2.992362 -11.283284 0 -11.283284 
C -2.992362 -11.283284 -5.862567 -10.094406 -7.978487 -7.978487 
C -10.094406 -5.862567 -11.283284 -2.992362 -11.283284 0 
C -11.283284 2.992362 -10.094406 5.862567 -7.978487 7.978487 
C -5.862567 10.094406 -2.992362 11.283284 0 11.283284 
z
" style="stroke: #000000"/>
    </defs>
    <g clip-path="url(#pf42a648ce8)">
     <use xlink:href="#m2cb05b3491" x="291.228382" y="93.516029" style="stroke: #000000"/>
    </g>
   </g>
   <g id="Path3DCollection_14">
    <defs>
     <path id="mda94c67253" d="M 0 2.633913 
C 0.698522 2.633913 1.368528 2.356388 1.862458 1.862458 
C 2.356388 1.368528 2.633913 0.698522 2.633913 0 
C 2.633913 -0.698522 2.356388 -1.368528 1.862458 -1.862458 
C 1.368528 -2.356388 0.698522 -2.633913 0 -2.633913 
C -0.698522 -2.633913 -1.368528 -2.356388 -1.862458 -1.862458 
C -2.356388 -1.368528 -2.633913 -0.698522 -2.633913 0 
C -2.633913 0.698522 -2.356388 1.368528 -1.862458 1.862458 
C -1.368528 2.356388 -0.698522 2.633913 0 2.633913 
z
" style="stroke: #000000"/>
    </defs>
    <g clip-path="url(#pf42a648ce8)">
     <use xlink:href="#mda94c67253" x="124.878245" y="231.83712" style="stroke: #000000"/>
    </g>
   </g>
   <g id="Path3DCollection_15">
    <defs>
     <path id="m4a73c52545" d="M 0 0.433013 
C 0.114836 0.433013 0.224985 0.387388 0.306186 0.306186 
C 0.387388 0.224985 0.433013 0.114836 0.433013 0 
C 0.433013 -0.114836 0.387388 -0.224985 0.306186 -0.306186 
C 0.224985 -0.387388 0.114836 -0.433013 0 -0.433013 
C -0.114836 -0.433013 -0.224985 -0.387388 -0.306186 -0.306186 
C -0.387388 -0.224985 -0.433013 -0.114836 -0.433013 0 
C -0.433013 0.114836 -0.387388 0.224985 -0.306186 0.306186 
C -0.224985 0.387388 -0.114836 0.433013 0 0.433013 
z
" style="stroke: #000000"/>
    </defs>
    <g clip-path="url(#pf42a648ce8)">
     <use xlink:href="#m4a73c52545" x="124.880031" y="231.837731" style="stroke: #000000"/>
    </g>
   </g>
   <g id="Path3DCollection_16">
    <g clip-path="url(#pf42a648ce8)">
     <use xlink:href="#m5d90c2aa49" x="124.881818" y="231.838342" style="stroke: #000000"/>
    </g>
   </g>
   <g id="Path3DCollection_17">
    <g clip-path="url(#pf42a648ce8)">
     <use xlink:href="#m907a39afe8" x="124.892535" y="231.842006" style="stroke: #000000"/>
    </g>
   </g>
   <g id="Path3DCollection_18">
    <g clip-path="url(#pf42a648ce8)">
     <use xlink:href="#m907a39afe8" x="124.935406" y="231.856664" style="stroke: #000000"/>
    </g>
   </g>
   <g id="Path3DCollection_19">
    <g clip-path="url(#pf42a648ce8)">
     <use xlink:href="#m5d90c2aa49" x="125.106912" y="231.915303" style="stroke: #000000"/>
    </g>
   </g>
   <g id="Path3DCollection_20">
    <defs>
     <path id="mdec0797cfa" d="M 0 1.299038 
C 0.344509 1.299038 0.674954 1.162163 0.918559 0.918559 
C 1.162163 0.674954 1.299038 0.344509 1.299038 0 
C 1.299038 -0.344509 1.162163 -0.674954 0.918559 -0.918559 
C 0.674954 -1.162163 0.344509 -1.299038 0 -1.299038 
C -0.344509 -1.299038 -0.674954 -1.162163 -0.918559 -0.918559 
C -1.162163 -0.674954 -1.299038 -0.344509 -1.299038 0 
C -1.299038 0.344509 -1.162163 0.674954 -0.918559 0.918559 
C -0.674954 1.162163 -0.344509 1.299038 0 1.299038 
z
" style="stroke: #000000"/>
    </defs>
    <g clip-path="url(#pf42a648ce8)">
     <use xlink:href="#mdec0797cfa" x="125.335639" y="231.993506" style="stroke: #000000"/>
    </g>
   </g>
   <g id="Path3DCollection_21">
    <defs>
     <path id="md0afa6b405" d="M 0 2.25 
C 0.596707 2.25 1.169055 2.012926 1.59099 1.59099 
C 2.012926 1.169055 2.25 0.596707 2.25 0 
C 2.25 -0.596707 2.012926 -1.169055 1.59099 -1.59099 
C 1.169055 -2.012926 0.596707 -2.25 0 -2.25 
C -0.596707 -2.25 -1.169055 -2.012926 -1.59099 -1.59099 
C -2.012926 -1.169055 -2.25 -0.596707 -2.25 0 
C -2.25 0.596707 -2.012926 1.169055 -1.59099 1.59099 
C -1.169055 2.012926 -0.596707 2.25 0 2.25 
z
" style="stroke: #000000"/>
    </defs>
    <g clip-path="url(#pf42a648ce8)">
     <use xlink:href="#md0afa6b405" x="125.793277" y="232.149974" style="stroke: #000000"/>
    </g>
   </g>
   <g id="Path3DCollection_22">
    <defs>
     <path id="m20692760d2" d="M 0 2.872281 
C 0.761738 2.872281 1.49238 2.56964 2.03101 2.03101 
C 2.56964 1.49238 2.872281 0.761738 2.872281 0 
C 2.872281 -0.761738 2.56964 -1.49238 2.03101 -2.03101 
C 1.49238 -2.56964 0.761738 -2.872281 0 -2.872281 
C -0.761738 -2.872281 -1.49238 -2.56964 -2.03101 -2.03101 
C -2.56964 -1.49238 -2.872281 -0.761738 -2.872281 0 
C -2.872281 0.761738 -2.56964 1.49238 -2.03101 2.03101 
C -1.49238 2.56964 -0.761738 2.872281 0 2.872281 
z
" style="stroke: #000000"/>
    </defs>
    <g clip-path="url(#pf42a648ce8)">
     <use xlink:href="#m20692760d2" x="126.70929" y="232.463164" style="stroke: #000000"/>
    </g>
   </g>
   <g id="Path3DCollection_23">
    <g clip-path="url(#pf42a648ce8)">
     <use xlink:href="#m4a73c52545" x="126.874567" y="232.519673" style="stroke: #000000"/>
    </g>
   </g>
   <g id="Path3DCollection_24">
    <g clip-path="url(#pf42a648ce8)">
     <use xlink:href="#m4a73c52545" x="126.989212" y="232.558871" style="stroke: #000000"/>
    </g>
   </g>
   <g id="Path3DCollection_25">
    <g clip-path="url(#pf42a648ce8)">
     <use xlink:href="#m4a73c52545" x="127.39453" y="232.697451" style="stroke: #000000"/>
    </g>
   </g>
   <g id="Path3DCollection_26">
    <g clip-path="url(#pf42a648ce8)">
     <use xlink:href="#m4a73c52545" x="128.181087" y="232.966379" style="stroke: #000000"/>
    </g>
   </g>
   <g id="Path3DCollection_27">
    <defs>
     <path id="m4a12fd9b30" d="M 0 3 
C 0.795609 3 1.55874 2.683901 2.12132 2.12132 
C 2.683901 1.55874 3 0.795609 3 0 
C 3 -0.795609 2.683901 -1.55874 2.12132 -2.12132 
C 1.55874 -2.683901 0.795609 -3 0 -3 
C -0.795609 -3 -1.55874 -2.683901 -2.12132 -2.12132 
C -2.683901 -1.55874 -3 -0.795609 -3 0 
C -3 0.795609 -2.683901 1.55874 -2.12132 2.12132 
C -1.55874 2.683901 -0.795609 3 0 3 
z
" style="stroke: #000000"/>
    </defs>
    <g clip-path="url(#pf42a648ce8)">
     <use xlink:href="#m4a12fd9b30" x="128.544261" y="233.090549" style="stroke: #000000"/>
    </g>
   </g>
   <g id="Path3DCollection_28">
    <g clip-path="url(#pf42a648ce8)">
     <use xlink:href="#m4a73c52545" x="128.779671" y="233.171037" style="stroke: #000000"/>
    </g>
   </g>
   <g id="Path3DCollection_29">
    <g clip-path="url(#pf42a648ce8)">
     <use xlink:href="#m4a73c52545" x="128.796962" y="233.176949" style="stroke: #000000"/>
    </g>
   </g>
   <g id="Path3DCollection_30">
    <g clip-path="url(#pf42a648ce8)">
     <use xlink:href="#m4a73c52545" x="129.653866" y="233.469929" style="stroke: #000000"/>
    </g>
   </g>
   <g id="Path3DCollection_31">
    <g clip-path="url(#pf42a648ce8)">
     <use xlink:href="#m4a73c52545" x="130.882319" y="233.889943" style="stroke: #000000"/>
    </g>
   </g>
   <g id="Path3DCollection_32">
    <defs>
     <path id="mea6890e096" d="M 0 3.381937 
C 0.8969 3.381937 1.757187 3.025595 2.391391 2.391391 
C 3.025595 1.757187 3.381937 0.8969 3.381937 0 
C 3.381937 -0.8969 3.025595 -1.757187 2.391391 -2.391391 
C 1.757187 -3.025595 0.8969 -3.381937 0 -3.381937 
C -0.8969 -3.381937 -1.757187 -3.025595 -2.391391 -2.391391 
C -3.025595 -1.757187 -3.381937 -0.8969 -3.381937 0 
C -3.381937 0.8969 -3.025595 1.757187 -2.391391 2.391391 
C -1.757187 3.025595 -0.8969 3.381937 0 3.381937 
z
" style="stroke: #000000"/>
    </defs>
    <g clip-path="url(#pf42a648ce8)">
     <use xlink:href="#mea6890e096" x="132.226035" y="234.349366" style="stroke: #000000"/>
    </g>
   </g>
   <g id="Path3DCollection_33">
    <g clip-path="url(#pf42a648ce8)">
     <use xlink:href="#m4a73c52545" x="132.616625" y="234.482911" style="stroke: #000000"/>
    </g>
   </g>
   <g id="Path3DCollection_34">
    <g clip-path="url(#pf42a648ce8)">
     <use xlink:href="#m4a73c52545" x="134.739801" y="235.208835" style="stroke: #000000"/>
    </g>
   </g>
   <g id="Path3DCollection_35">
    <g clip-path="url(#pf42a648ce8)">
     <use xlink:href="#m4a73c52545" x="134.785582" y="235.224488" style="stroke: #000000"/>
    </g>
   </g>
   <g id="Path3DCollection_36">
    <g clip-path="url(#pf42a648ce8)">
     <use xlink:href="#m4a73c52545" x="136.706579" y="235.881286" style="stroke: #000000"/>
    </g>
   </g>
   <g id="Path3DCollection_37">
    <g clip-path="url(#pf42a648ce8)">
     <use xlink:href="#m4a73c52545" x="137.225737" y="236.058789" style="stroke: #000000"/>
    </g>
   </g>
   <g id="Path3DCollection_38">
    <g clip-path="url(#pf42a648ce8)">
     <use xlink:href="#m4a73c52545" x="137.226151" y="236.058931" style="stroke: #000000"/>
    </g>
   </g>
   <g id="Path3DCollection_39">
    <g clip-path="url(#pf42a648ce8)">
     <use xlink:href="#m4a73c52545" x="139.335913" y="236.780269" style="stroke: #000000"/>
    </g>
   </g>
   <g id="Path3DCollection_40">
    <defs>
     <path id="md2091b1920" d="M 0 3.181981 
C 0.843871 3.181981 1.653293 2.846707 2.25 2.25 
C 2.846707 1.653293 3.181981 0.843871 3.181981 0 
C 3.181981 -0.843871 2.846707 -1.653293 2.25 -2.25 
C 1.653293 -2.846707 0.843871 -3.181981 0 -3.181981 
C -0.843871 -3.181981 -1.653293 -2.846707 -2.25 -2.25 
C -2.846707 -1.653293 -3.181981 -0.843871 -3.181981 0 
C -3.181981 0.843871 -2.846707 1.653293 -2.25 2.25 
C -1.653293 2.846707 -0.843871 3.181981 0 3.181981 
z
" style="stroke: #000000"/>
    </defs>
    <g clip-path="url(#pf42a648ce8)">
     <use xlink:href="#md2091b1920" x="139.637267" y="236.883303" style="stroke: #000000"/>
    </g>
   </g>
   <g id="Path3DCollection_41">
    <g clip-path="url(#pf42a648ce8)">
     <use xlink:href="#m4a73c52545" x="141.21105" y="237.421387" style="stroke: #000000"/>
    </g>
   </g>
   <g id="Path3DCollection_42">
    <g clip-path="url(#pf42a648ce8)">
     <use xlink:href="#m4a73c52545" x="142.934201" y="238.010541" style="stroke: #000000"/>
    </g>
   </g>
   <g id="Path3DCollection_43">
    <g clip-path="url(#pf42a648ce8)">
     <use xlink:href="#m4a73c52545" x="142.992542" y="238.030488" style="stroke: #000000"/>
    </g>
   </g>
   <g id="Path3DCollection_44">
    <g clip-path="url(#pf42a648ce8)">
     <use xlink:href="#m4a73c52545" x="144.310184" y="238.480996" style="stroke: #000000"/>
    </g>
   </g>
   <g id="Path3DCollection_45">
    <g clip-path="url(#pf42a648ce8)">
     <use xlink:href="#m4a73c52545" x="144.323095" y="238.485411" style="stroke: #000000"/>
    </g>
   </g>
   <g id="Path3DCollection_46">
    <g clip-path="url(#pf42a648ce8)">
     <use xlink:href="#m4a73c52545" x="146.275728" y="239.153026" style="stroke: #000000"/>
    </g>
   </g>
   <g id="Path3DCollection_47">
    <g clip-path="url(#pf42a648ce8)">
     <use xlink:href="#m4a73c52545" x="147.403491" y="239.538613" style="stroke: #000000"/>
    </g>
   </g>
   <g id="Path3DCollection_48">
    <g clip-path="url(#pf42a648ce8)">
     <use xlink:href="#m4a73c52545" x="148.822528" y="240.023789" style="stroke: #000000"/>
    </g>
   </g>
   <g id="Path3DCollection_49">
    <g clip-path="url(#pf42a648ce8)">
     <use xlink:href="#m4a73c52545" x="149.832612" y="240.369142" style="stroke: #000000"/>
    </g>
   </g>
   <g id="Path3DCollection_50">
    <g clip-path="url(#pf42a648ce8)">
     <use xlink:href="#m4a73c52545" x="150.974606" y="240.759595" style="stroke: #000000"/>
    </g>
   </g>
   <g id="Path3DCollection_51">
    <g clip-path="url(#pf42a648ce8)">
     <use xlink:href="#m4a73c52545" x="152.103352" y="241.145519" style="stroke: #000000"/>
    </g>
   </g>
   <g id="Path3DCollection_52">
    <g clip-path="url(#pf42a648ce8)">
     <use xlink:href="#m4a73c52545" x="153.485683" y="241.618145" style="stroke: #000000"/>
    </g>
   </g>
   <g id="Path3DCollection_53">
    <g clip-path="url(#pf42a648ce8)">
     <use xlink:href="#mea6890e096" x="154.653366" y="242.017382" style="stroke: #000000"/>
    </g>
   </g>
   <g id="Path3DCollection_54">
    <g clip-path="url(#pf42a648ce8)">
     <use xlink:href="#m4a73c52545" x="154.918127" y="242.107905" style="stroke: #000000"/>
    </g>
   </g>
   <g id="Path3DCollection_55">
    <g clip-path="url(#pf42a648ce8)">
     <use xlink:href="#m4a73c52545" x="157.487087" y="242.986245" style="stroke: #000000"/>
    </g>
   </g>
   <g id="Path3DCollection_56">
    <g clip-path="url(#pf42a648ce8)">
     <use xlink:href="#m4a73c52545" x="160.239596" y="243.927341" style="stroke: #000000"/>
    </g>
   </g>
   <g id="Path3DCollection_57">
    <g clip-path="url(#pf42a648ce8)">
     <use xlink:href="#m4a73c52545" x="162.224422" y="244.605963" style="stroke: #000000"/>
    </g>
   </g>
   <g id="Path3DCollection_58">
    <g clip-path="url(#pf42a648ce8)">
     <use xlink:href="#m4a73c52545" x="162.998999" y="244.870795" style="stroke: #000000"/>
    </g>
   </g>
   <g id="Path3DCollection_59">
    <g clip-path="url(#pf42a648ce8)">
     <use xlink:href="#m4a73c52545" x="163.326205" y="244.982668" style="stroke: #000000"/>
    </g>
   </g>
   <g id="Path3DCollection_60">
    <g clip-path="url(#pf42a648ce8)">
     <use xlink:href="#m4a73c52545" x="164.892103" y="245.518056" style="stroke: #000000"/>
    </g>
   </g>
   <g id="Path3DCollection_61">
    <g clip-path="url(#pf42a648ce8)">
     <use xlink:href="#m4a73c52545" x="167.458157" y="246.395403" style="stroke: #000000"/>
    </g>
   </g>
   <g id="Path3DCollection_62">
    <g clip-path="url(#pf42a648ce8)">
     <use xlink:href="#m4a73c52545" x="168.00033" y="246.580774" style="stroke: #000000"/>
    </g>
   </g>
   <g id="Path3DCollection_63">
    <g clip-path="url(#pf42a648ce8)">
     <use xlink:href="#m4a73c52545" x="168.531977" y="246.762547" style="stroke: #000000"/>
    </g>
   </g>
   <g id="Path3DCollection_64">
    <g clip-path="url(#pf42a648ce8)">
     <use xlink:href="#m4a73c52545" x="169.165814" y="246.979259" style="stroke: #000000"/>
    </g>
   </g>
   <g id="Path3DCollection_65">
    <g clip-path="url(#pf42a648ce8)">
     <use xlink:href="#m4a73c52545" x="169.946559" y="247.2462" style="stroke: #000000"/>
    </g>
   </g>
   <g id="Path3DCollection_66">
    <g clip-path="url(#pf42a648ce8)">
     <use xlink:href="#m4a73c52545" x="171.811395" y="247.883796" style="stroke: #000000"/>
    </g>
   </g>
   <g id="Path3DCollection_67">
    <g clip-path="url(#pf42a648ce8)">
     <use xlink:href="#m4a73c52545" x="173.459154" y="248.447173" style="stroke: #000000"/>
    </g>
   </g>
   <g id="Path3DCollection_68">
    <g clip-path="url(#pf42a648ce8)">
     <use xlink:href="#m4a73c52545" x="173.837795" y="248.576633" style="stroke: #000000"/>
    </g>
   </g>
   <g id="Path3DCollection_69">
    <g clip-path="url(#pf42a648ce8)">
     <use xlink:href="#m4a73c52545" x="174.339223" y="248.748073" style="stroke: #000000"/>
    </g>
   </g>
   <g id="Path3DCollection_70">
    <g clip-path="url(#pf42a648ce8)">
     <use xlink:href="#m4a73c52545" x="178.230899" y="250.078657" style="stroke: #000000"/>
    </g>
   </g>
   <g id="Path3DCollection_71">
    <g clip-path="url(#pf42a648ce8)">
     <use xlink:href="#m4a73c52545" x="178.928641" y="250.317218" style="stroke: #000000"/>
    </g>
   </g>
   <g id="Path3DCollection_72">
    <g clip-path="url(#pf42a648ce8)">
     <use xlink:href="#m4a73c52545" x="181.32543" y="251.136692" style="stroke: #000000"/>
    </g>
   </g>
   <g id="Path3DCollection_73">
    <g clip-path="url(#pf42a648ce8)">
     <use xlink:href="#m4a73c52545" x="182.015221" y="251.372535" style="stroke: #000000"/>
    </g>
   </g>
   <g id="Path3DCollection_74">
    <g clip-path="url(#pf42a648ce8)">
     <use xlink:href="#m4a73c52545" x="182.537754" y="251.551192" style="stroke: #000000"/>
    </g>
   </g>
   <g id="Path3DCollection_75">
    <defs>
     <path id="mdd370b0520" d="M 0 11.594719 
C 3.074955 11.594719 6.024382 10.373026 8.198704 8.198704 
C 10.373026 6.024382 11.594719 3.074955 11.594719 0 
C 11.594719 -3.074955 10.373026 -6.024382 8.198704 -8.198704 
C 6.024382 -10.373026 3.074955 -11.594719 0 -11.594719 
C -3.074955 -11.594719 -6.024382 -10.373026 -8.198704 -8.198704 
C -10.373026 -6.024382 -11.594719 -3.074955 -11.594719 0 
C -11.594719 3.074955 -10.373026 6.024382 -8.198704 8.198704 
C -6.024382 10.373026 -3.074955 11.594719 0 11.594719 
z
" style="stroke: #000000"/>
    </defs>
    <g clip-path="url(#pf42a648ce8)">
     <use xlink:href="#mdd370b0520" x="185.484143" y="252.558577" style="stroke: #000000"/>
    </g>
   </g>
   <g id="Path3DCollection_76">
    <g clip-path="url(#pf42a648ce8)">
     <use xlink:href="#m4a73c52545" x="190.360653" y="254.225879" style="stroke: #000000"/>
    </g>
   </g>
   <g id="Path3DCollection_77">
    <g clip-path="url(#pf42a648ce8)">
     <use xlink:href="#m4a73c52545" x="194.186235" y="255.533865" style="stroke: #000000"/>
    </g>
   </g>
   <g id="Path3DCollection_78">
    <g clip-path="url(#pf42a648ce8)">
     <use xlink:href="#m4a73c52545" x="196.246079" y="256.238136" style="stroke: #000000"/>
    </g>
   </g>
   <g id="Path3DCollection_79">
    <g clip-path="url(#pf42a648ce8)">
     <use xlink:href="#m4a73c52545" x="196.456205" y="256.309979" style="stroke: #000000"/>
    </g>
   </g>
   <g id="Path3DCollection_80">
    <g clip-path="url(#pf42a648ce8)">
     <use xlink:href="#m4a73c52545" x="197.939215" y="256.817027" style="stroke: #000000"/>
    </g>
   </g>
   <g id="Path3DCollection_81">
    <g clip-path="url(#pf42a648ce8)">
     <use xlink:href="#m4a73c52545" x="198.424988" y="256.983116" style="stroke: #000000"/>
    </g>
   </g>
   <g id="Path3DCollection_82">
    <g clip-path="url(#pf42a648ce8)">
     <use xlink:href="#m4a73c52545" x="199.337922" y="257.295252" style="stroke: #000000"/>
    </g>
   </g>
   <g id="Path3DCollection_83">
    <g clip-path="url(#pf42a648ce8)">
     <use xlink:href="#m4a73c52545" x="199.555502" y="257.369644" style="stroke: #000000"/>
    </g>
   </g>
   <g id="Path3DCollection_84">
    <g clip-path="url(#pf42a648ce8)">
     <use xlink:href="#m4a73c52545" x="200.398662" y="257.657924" style="stroke: #000000"/>
    </g>
   </g>
   <g id="Path3DCollection_85">
    <g clip-path="url(#pf42a648ce8)">
     <use xlink:href="#m4a73c52545" x="201.304059" y="257.967484" style="stroke: #000000"/>
    </g>
   </g>
   <g id="Path3DCollection_86">
    <g clip-path="url(#pf42a648ce8)">
     <use xlink:href="#m4a73c52545" x="202.697222" y="258.443813" style="stroke: #000000"/>
    </g>
   </g>
   <g id="Path3DCollection_87">
    <defs>
     <path id="md231f69a66" d="M 0 2.20794 
C 0.585553 2.20794 1.147201 1.975298 1.561249 1.561249 
C 1.975298 1.147201 2.20794 0.585553 2.20794 0 
C 2.20794 -0.585553 1.975298 -1.147201 1.561249 -1.561249 
C 1.147201 -1.975298 0.585553 -2.20794 0 -2.20794 
C -0.585553 -2.20794 -1.147201 -1.975298 -1.561249 -1.561249 
C -1.975298 -1.147201 -2.20794 -0.585553 -2.20794 0 
C -2.20794 0.585553 -1.975298 1.147201 -1.561249 1.561249 
C -1.147201 1.975298 -0.585553 2.20794 0 2.20794 
z
" style="stroke: #000000"/>
    </defs>
    <g clip-path="url(#pf42a648ce8)">
     <use xlink:href="#md231f69a66" x="217.427729" y="263.480247" style="stroke: #000000"/>
    </g>
   </g>
   <g id="Path3DCollection_88">
    <defs>
     <path id="m32696fe546" d="M 0 1.785357 
C 0.473482 1.785357 0.927636 1.597241 1.262438 1.262438 
C 1.597241 0.927636 1.785357 0.473482 1.785357 0 
C 1.785357 -0.473482 1.597241 -0.927636 1.262438 -1.262438 
C 0.927636 -1.597241 0.473482 -1.785357 0 -1.785357 
C -0.473482 -1.785357 -0.927636 -1.597241 -1.262438 -1.262438 
C -1.597241 -0.927636 -1.785357 -0.473482 -1.785357 0 
C -1.785357 0.473482 -1.597241 0.927636 -1.262438 1.262438 
C -0.927636 1.597241 -0.473482 1.785357 0 1.785357 
z
" style="stroke: #000000"/>
    </defs>
    <g clip-path="url(#pf42a648ce8)">
     <use xlink:href="#m32696fe546" x="233.835826" y="269.090256" style="stroke: #000000"/>
    </g>
   </g>
   <g id="Path3DCollection_89">
    <g clip-path="url(#pf42a648ce8)">
     <use xlink:href="#m907a39afe8" x="246.339343" y="273.36527" style="stroke: #000000"/>
    </g>
   </g>
   <g id="Path3DCollection_90">
    <g clip-path="url(#pf42a648ce8)">
     <use xlink:href="#mf4b9f8eb6d" x="250.018658" y="274.623246" style="stroke: #000000"/>
    </g>
   </g>
   <g id="Path3DCollection_91">
    <g clip-path="url(#pf42a648ce8)">
     <use xlink:href="#mf0d919745a" x="250.282033" y="274.713296" style="stroke: #000000"/>
    </g>
   </g>
   <g id="Path3DCollection_92">
    <g clip-path="url(#pf42a648ce8)">
     <use xlink:href="#mf0d919745a" x="250.413748" y="274.75833" style="stroke: #000000"/>
    </g>
   </g>
   <g id="Path3DCollection_93">
    <g clip-path="url(#pf42a648ce8)">
     <use xlink:href="#m5d90c2aa49" x="250.512547" y="274.792109" style="stroke: #000000"/>
    </g>
   </g>
   <g id="Path3DCollection_94">
    <g clip-path="url(#pf42a648ce8)">
     <use xlink:href="#ma91f6c425d" x="250.537247" y="274.800555" style="stroke: #000000"/>
    </g>
   </g>
   <g id="Path3DCollection_95">
    <defs>
     <path id="m0e73445159" d="M 0 2.772634 
C 0.735311 2.772634 1.440605 2.480492 1.960548 1.960548 
C 2.480492 1.440605 2.772634 0.735311 2.772634 0 
C 2.772634 -0.735311 2.480492 -1.440605 1.960548 -1.960548 
C 1.440605 -2.480492 0.735311 -2.772634 0 -2.772634 
C -0.735311 -2.772634 -1.440605 -2.480492 -1.960548 -1.960548 
C -2.480492 -1.440605 -2.772634 -0.735311 -2.772634 0 
C -2.772634 0.735311 -2.480492 1.440605 -1.960548 1.960548 
C -1.440605 2.480492 -0.735311 2.772634 0 2.772634 
z
" style="stroke: #000000"/>
    </defs>
    <g clip-path="url(#pf42a648ce8)">
     <use xlink:href="#m0e73445159" x="250.545482" y="274.80337" style="stroke: #000000"/>
    </g>
   </g>
  </g>
 </g>
 <defs>
  <clipPath id="pf42a648ce8">
   <rect x="103.104" y="41.472" width="266.112" height="266.112"/>
  </clipPath>
 </defs>
</svg>
